<svg width="2321" height="1160" viewBox="0 0 2321 1160" fill="none" xmlns="http://www.w3.org/2000/svg">
<g style="mix-blend-mode:hard-light" opacity="0.35">
<path d="M585.879 725.826C594.565 760.129 618.873 788.789 655.476 811.233C692.081 833.679 740.955 849.887 798.695 859.283C914.175 878.073 1065.02 869.595 1223.86 829.373C1382.7 789.15 1519.4 724.81 1612.02 653.322C1658.33 617.578 1693.6 580.062 1715.11 542.899C1736.61 505.74 1744.35 468.964 1735.67 434.661C1726.98 400.359 1702.67 371.698 1666.07 349.254C1629.46 326.809 1580.59 310.6 1522.85 301.205C1407.37 282.414 1256.52 290.892 1097.68 331.115C938.848 371.337 802.145 435.677 709.527 507.165C663.218 542.909 627.949 580.426 606.439 617.588C584.93 654.748 577.192 691.523 585.879 725.826Z" stroke="url(#paint0_linear_222_100)"/>
<path d="M325.272 791.82C337.912 841.733 373.278 883.418 426.493 916.049C479.711 948.681 550.752 972.238 634.663 985.892C802.484 1013.2 1021.69 1000.88 1252.49 942.431C1483.29 883.984 1681.94 790.491 1816.54 686.601C1883.84 634.656 1935.1 580.126 1966.38 526.098C1997.65 472.073 2008.91 418.58 1996.27 368.667C1983.63 318.754 1948.27 277.069 1895.05 244.439C1841.83 211.807 1770.79 188.249 1686.88 174.596C1519.06 147.288 1299.85 159.61 1069.05 218.057C838.254 276.503 639.604 369.996 505.006 473.886C437.707 525.831 386.44 580.361 355.168 634.389C323.897 688.414 312.633 741.908 325.272 791.82Z" stroke="url(#paint1_linear_222_100)"/>
<path d="M8.16284 872.123C25.6124 941.03 74.4345 998.564 147.864 1043.59C221.297 1088.62 319.31 1121.12 435.067 1139.95C666.578 1177.62 968.96 1160.62 1287.33 1080C1605.7 999.379 1879.72 870.413 2065.4 727.096C2158.24 655.437 2228.98 580.205 2272.13 505.655C2315.28 431.107 2330.83 357.272 2313.38 288.365C2295.93 219.457 2247.11 161.924 2173.68 116.898C2100.25 71.871 2002.23 39.3718 1886.48 20.5364C1654.97 -17.1342 1352.58 -0.134627 1034.22 80.4868C715.849 161.108 441.821 290.075 256.142 433.392C163.302 505.051 92.5693 580.283 49.418 654.833C6.26824 729.38 -9.28676 803.216 8.16284 872.123Z" stroke="url(#paint2_linear_222_100)"/>
</g>
<defs>
<linearGradient id="paint0_linear_222_100" x1="1695.85" y1="414.796" x2="699.789" y2="828.025" gradientUnits="userSpaceOnUse">
<stop stop-color="#7CAFD1"/>
<stop offset="0.491388" stop-color="#484848" stop-opacity="0.36"/>
<stop offset="1" stop-color="#BFD1E2"/>
</linearGradient>
<linearGradient id="paint1_linear_222_100" x1="1938.2" y1="339.859" x2="490.996" y2="940.253" gradientUnits="userSpaceOnUse">
<stop stop-color="#7CAFD1"/>
<stop offset="0.491388" stop-color="#484848" stop-opacity="0.36"/>
<stop offset="1" stop-color="#BFD1E2"/>
</linearGradient>
<linearGradient id="paint2_linear_222_100" x1="2233.1" y1="248.676" x2="236.933" y2="1076.81" gradientUnits="userSpaceOnUse">
<stop stop-color="#7CAFD1"/>
<stop offset="0.491388" stop-color="#484848" stop-opacity="0.36"/>
<stop offset="1" stop-color="#BFD1E2"/>
</linearGradient>
</defs>
</svg>
