<svg width="1300" height="443" viewBox="0 0 1300 443" fill="none" xmlns="http://www.w3.org/2000/svg">
<path d="M67.7549 167.4H70.1069V176.08H78.4509V167.4H80.8029V187H78.4509V178.264H70.1069V187H67.7549V167.4ZM84.5355 167.4H98.3115V169.584H92.5995V187H90.2475V169.584H84.5355V167.4ZM101.288 167.4H105.768L108.4 185.992H108.736L111.368 167.4H115.848V187H113.664V168.408H113.328L110.696 187H106.44L103.808 168.408H103.472V187H101.288V167.4ZM119.581 167.4H121.933V184.816H132.181V187H119.581V167.4Z" fill="#BFD1E2"/>
<path d="M302.963 185.208C303.766 185.208 304.447 185.077 305.007 184.816C305.586 184.536 306.053 184.172 306.407 183.724C306.781 183.257 307.051 182.735 307.219 182.156C307.406 181.559 307.499 180.933 307.499 180.28V179.944H309.851V180.28C309.851 181.269 309.702 182.203 309.403 183.08C309.105 183.939 308.666 184.695 308.087 185.348C307.509 185.983 306.79 186.487 305.931 186.86C305.073 187.215 304.083 187.392 302.963 187.392C300.798 187.392 299.109 186.711 297.895 185.348C296.682 183.985 296.075 181.997 296.075 179.384V175.016C296.075 172.477 296.682 170.508 297.895 169.108C299.109 167.708 300.798 167.008 302.963 167.008C304.083 167.008 305.073 167.195 305.931 167.568C306.79 167.923 307.509 168.427 308.087 169.08C308.666 169.715 309.105 170.471 309.403 171.348C309.702 172.207 309.851 173.131 309.851 174.12V174.456H307.499V174.12C307.481 173.485 307.378 172.869 307.191 172.272C307.023 171.675 306.753 171.152 306.379 170.704C306.025 170.237 305.567 169.873 305.007 169.612C304.447 169.332 303.766 169.192 302.963 169.192C301.451 169.192 300.313 169.743 299.547 170.844C298.801 171.945 298.427 173.392 298.427 175.184V179.216C298.427 181.139 298.801 182.623 299.547 183.668C300.313 184.695 301.451 185.208 302.963 185.208ZM324.616 173.056C324.616 172.421 324.485 171.861 324.224 171.376C323.981 170.891 323.645 170.489 323.216 170.172C322.786 169.855 322.292 169.612 321.732 169.444C321.172 169.276 320.584 169.192 319.968 169.192C319.426 169.192 318.913 169.267 318.428 169.416C317.942 169.547 317.504 169.743 317.112 170.004C316.738 170.265 316.44 170.592 316.216 170.984C315.992 171.357 315.88 171.796 315.88 172.3V172.468C315.88 173.009 315.992 173.476 316.216 173.868C316.44 174.241 316.766 174.568 317.196 174.848C317.644 175.109 318.194 175.333 318.848 175.52C319.501 175.688 320.266 175.837 321.144 175.968C323.197 176.285 324.709 176.892 325.68 177.788C326.65 178.665 327.136 179.851 327.136 181.344V181.68C327.136 182.52 326.986 183.295 326.688 184.004C326.408 184.695 325.978 185.292 325.4 185.796C324.84 186.3 324.14 186.692 323.3 186.972C322.46 187.252 321.489 187.392 320.388 187.392C319.137 187.392 318.026 187.215 317.056 186.86C316.104 186.487 315.301 185.983 314.648 185.348C314.013 184.695 313.528 183.939 313.192 183.08C312.856 182.203 312.688 181.251 312.688 180.224V179.384H315.04V180.056C315.04 181.773 315.506 183.061 316.44 183.92C317.392 184.779 318.708 185.208 320.388 185.208C321.844 185.208 322.936 184.891 323.664 184.256C324.41 183.603 324.784 182.744 324.784 181.68V181.512C324.784 180.485 324.401 179.701 323.636 179.16C322.889 178.619 321.666 178.227 319.968 177.984C318.978 177.853 318.082 177.657 317.28 177.396C316.496 177.116 315.824 176.761 315.264 176.332C314.704 175.884 314.274 175.352 313.976 174.736C313.677 174.12 313.528 173.392 313.528 172.552V172.216C313.528 171.451 313.686 170.751 314.004 170.116C314.321 169.481 314.76 168.931 315.32 168.464C315.898 167.997 316.58 167.643 317.364 167.4C318.166 167.139 319.044 167.008 319.996 167.008C321.097 167.008 322.077 167.167 322.936 167.484C323.813 167.801 324.55 168.231 325.148 168.772C325.745 169.295 326.193 169.92 326.492 170.648C326.809 171.357 326.968 172.104 326.968 172.888V174.064H324.616V173.056ZM341.76 173.056C341.76 172.421 341.63 171.861 341.368 171.376C341.126 170.891 340.79 170.489 340.36 170.172C339.931 169.855 339.436 169.612 338.876 169.444C338.316 169.276 337.728 169.192 337.112 169.192C336.571 169.192 336.058 169.267 335.572 169.416C335.087 169.547 334.648 169.743 334.256 170.004C333.883 170.265 333.584 170.592 333.36 170.984C333.136 171.357 333.024 171.796 333.024 172.3V172.468C333.024 173.009 333.136 173.476 333.36 173.868C333.584 174.241 333.911 174.568 334.34 174.848C334.788 175.109 335.339 175.333 335.992 175.52C336.646 175.688 337.411 175.837 338.288 175.968C340.342 176.285 341.854 176.892 342.824 177.788C343.795 178.665 344.28 179.851 344.28 181.344V181.68C344.28 182.52 344.131 183.295 343.832 184.004C343.552 184.695 343.123 185.292 342.544 185.796C341.984 186.3 341.284 186.692 340.444 186.972C339.604 187.252 338.634 187.392 337.532 187.392C336.282 187.392 335.171 187.215 334.2 186.86C333.248 186.487 332.446 185.983 331.792 185.348C331.158 184.695 330.672 183.939 330.336 183.08C330 182.203 329.832 181.251 329.832 180.224V179.384H332.184V180.056C332.184 181.773 332.651 183.061 333.584 183.92C334.536 184.779 335.852 185.208 337.532 185.208C338.988 185.208 340.08 184.891 340.808 184.256C341.555 183.603 341.928 182.744 341.928 181.68V181.512C341.928 180.485 341.546 179.701 340.78 179.16C340.034 178.619 338.811 178.227 337.112 177.984C336.123 177.853 335.227 177.657 334.424 177.396C333.64 177.116 332.968 176.761 332.408 176.332C331.848 175.884 331.419 175.352 331.12 174.736C330.822 174.12 330.672 173.392 330.672 172.552V172.216C330.672 171.451 330.831 170.751 331.148 170.116C331.466 169.481 331.904 168.931 332.464 168.464C333.043 167.997 333.724 167.643 334.508 167.4C335.311 167.139 336.188 167.008 337.14 167.008C338.242 167.008 339.222 167.167 340.08 167.484C340.958 167.801 341.695 168.231 342.292 168.772C342.89 169.295 343.338 169.92 343.636 170.648C343.954 171.357 344.112 172.104 344.112 172.888V174.064H341.76V173.056Z" fill="#BFD1E2"/>
<path d="M468.417 181.12C468.417 183.155 467.913 184.713 466.905 185.796C465.916 186.86 464.46 187.392 462.537 187.392C460.615 187.392 459.093 186.86 457.973 185.796C456.872 184.713 456.321 183.155 456.321 181.12V179.608H458.673V181.12C458.673 182.352 458.991 183.341 459.625 184.088C460.26 184.835 461.231 185.208 462.537 185.208C463.844 185.208 464.759 184.835 465.281 184.088C465.804 183.341 466.065 182.352 466.065 181.12V169.584H464.049V167.4H470.097V169.584H468.417V181.12ZM483.938 184.648H483.602C483.154 185.581 482.529 186.272 481.726 186.72C480.942 187.168 480.111 187.392 479.234 187.392C478.319 187.392 477.47 187.243 476.686 186.944C475.902 186.627 475.211 186.169 474.614 185.572C474.035 184.956 473.578 184.209 473.242 183.332C472.906 182.455 472.738 181.437 472.738 180.28V179.832C472.738 178.693 472.906 177.685 473.242 176.808C473.578 175.931 474.035 175.193 474.614 174.596C475.211 173.98 475.902 173.513 476.686 173.196C477.47 172.879 478.301 172.72 479.178 172.72C480.13 172.72 480.989 172.935 481.754 173.364C482.538 173.775 483.154 174.419 483.602 175.296H483.938V173.112H486.122V184.144C486.122 184.704 486.374 184.984 486.878 184.984H487.578V187H486.094C485.459 187 484.937 186.795 484.526 186.384C484.134 185.973 483.938 185.451 483.938 184.816V184.648ZM479.458 185.32C480.111 185.32 480.709 185.199 481.25 184.956C481.81 184.713 482.286 184.368 482.678 183.92C483.07 183.472 483.378 182.94 483.602 182.324C483.826 181.689 483.938 180.989 483.938 180.224V179.888C483.938 179.141 483.826 178.46 483.602 177.844C483.378 177.209 483.061 176.668 482.65 176.22C482.258 175.772 481.782 175.427 481.222 175.184C480.681 174.923 480.093 174.792 479.458 174.792C478.805 174.792 478.207 174.913 477.666 175.156C477.125 175.399 476.649 175.744 476.238 176.192C475.846 176.621 475.538 177.153 475.314 177.788C475.09 178.404 474.978 179.085 474.978 179.832V180.28C474.978 181.867 475.389 183.108 476.21 184.004C477.05 184.881 478.133 185.32 479.458 185.32ZM499.262 187H494.95L490.106 173.112H492.682L496.938 185.992H497.274L501.53 173.112H504.106L499.262 187ZM518.227 184.648H517.891C517.443 185.581 516.818 186.272 516.015 186.72C515.231 187.168 514.4 187.392 513.523 187.392C512.608 187.392 511.759 187.243 510.975 186.944C510.191 186.627 509.5 186.169 508.903 185.572C508.324 184.956 507.867 184.209 507.531 183.332C507.195 182.455 507.027 181.437 507.027 180.28V179.832C507.027 178.693 507.195 177.685 507.531 176.808C507.867 175.931 508.324 175.193 508.903 174.596C509.5 173.98 510.191 173.513 510.975 173.196C511.759 172.879 512.59 172.72 513.467 172.72C514.419 172.72 515.278 172.935 516.043 173.364C516.827 173.775 517.443 174.419 517.891 175.296H518.227V173.112H520.411V184.144C520.411 184.704 520.663 184.984 521.167 184.984H521.867V187H520.383C519.748 187 519.226 186.795 518.815 186.384C518.423 185.973 518.227 185.451 518.227 184.816V184.648ZM513.747 185.32C514.4 185.32 514.998 185.199 515.539 184.956C516.099 184.713 516.575 184.368 516.967 183.92C517.359 183.472 517.667 182.94 517.891 182.324C518.115 181.689 518.227 180.989 518.227 180.224V179.888C518.227 179.141 518.115 178.46 517.891 177.844C517.667 177.209 517.35 176.668 516.939 176.22C516.547 175.772 516.071 175.427 515.511 175.184C514.97 174.923 514.382 174.792 513.747 174.792C513.094 174.792 512.496 174.913 511.955 175.156C511.414 175.399 510.938 175.744 510.527 176.192C510.135 176.621 509.827 177.153 509.603 177.788C509.379 178.404 509.267 179.085 509.267 179.832V180.28C509.267 181.867 509.678 183.108 510.499 184.004C511.339 184.881 512.422 185.32 513.747 185.32ZM536.043 173.056C536.043 172.421 535.913 171.861 535.651 171.376C535.409 170.891 535.073 170.489 534.643 170.172C534.214 169.855 533.719 169.612 533.159 169.444C532.599 169.276 532.011 169.192 531.395 169.192C530.854 169.192 530.341 169.267 529.855 169.416C529.37 169.547 528.931 169.743 528.539 170.004C528.166 170.265 527.867 170.592 527.643 170.984C527.419 171.357 527.307 171.796 527.307 172.3V172.468C527.307 173.009 527.419 173.476 527.643 173.868C527.867 174.241 528.194 174.568 528.623 174.848C529.071 175.109 529.622 175.333 530.275 175.52C530.929 175.688 531.694 175.837 532.571 175.968C534.625 176.285 536.137 176.892 537.107 177.788C538.078 178.665 538.563 179.851 538.563 181.344V181.68C538.563 182.52 538.414 183.295 538.115 184.004C537.835 184.695 537.406 185.292 536.827 185.796C536.267 186.3 535.567 186.692 534.727 186.972C533.887 187.252 532.917 187.392 531.815 187.392C530.565 187.392 529.454 187.215 528.483 186.86C527.531 186.487 526.729 185.983 526.075 185.348C525.441 184.695 524.955 183.939 524.619 183.08C524.283 182.203 524.115 181.251 524.115 180.224V179.384H526.467V180.056C526.467 181.773 526.934 183.061 527.867 183.92C528.819 184.779 530.135 185.208 531.815 185.208C533.271 185.208 534.363 184.891 535.091 184.256C535.838 183.603 536.211 182.744 536.211 181.68V181.512C536.211 180.485 535.829 179.701 535.063 179.16C534.317 178.619 533.094 178.227 531.395 177.984C530.406 177.853 529.51 177.657 528.707 177.396C527.923 177.116 527.251 176.761 526.691 176.332C526.131 175.884 525.702 175.352 525.403 174.736C525.105 174.12 524.955 173.392 524.955 172.552V172.216C524.955 171.451 525.114 170.751 525.431 170.116C525.749 169.481 526.187 168.931 526.747 168.464C527.326 167.997 528.007 167.643 528.791 167.4C529.594 167.139 530.471 167.008 531.423 167.008C532.525 167.008 533.505 167.167 534.363 167.484C535.241 167.801 535.978 168.231 536.575 168.772C537.173 169.295 537.621 169.92 537.919 170.648C538.237 171.357 538.395 172.104 538.395 172.888V174.064H536.043V173.056ZM555.428 182.072C555.279 182.837 555.017 183.547 554.644 184.2C554.289 184.853 553.832 185.423 553.272 185.908C552.712 186.375 552.059 186.739 551.312 187C550.565 187.261 549.735 187.392 548.82 187.392C547.849 187.392 546.925 187.233 546.048 186.916C545.189 186.599 544.433 186.141 543.78 185.544C543.127 184.928 542.604 184.181 542.212 183.304C541.839 182.427 541.652 181.419 541.652 180.28V179.944C541.652 178.824 541.839 177.816 542.212 176.92C542.604 176.024 543.127 175.268 543.78 174.652C544.433 174.036 545.189 173.56 546.048 173.224C546.925 172.888 547.849 172.72 548.82 172.72C549.697 172.72 550.509 172.851 551.256 173.112C552.003 173.373 552.656 173.747 553.216 174.232C553.795 174.699 554.261 175.259 554.616 175.912C554.989 176.565 555.241 177.275 555.372 178.04L553.188 178.544C553.132 178.059 552.992 177.592 552.768 177.144C552.563 176.677 552.273 176.276 551.9 175.94C551.545 175.585 551.107 175.305 550.584 175.1C550.061 174.895 549.455 174.792 548.764 174.792C548.092 174.792 547.457 174.923 546.86 175.184C546.281 175.427 545.768 175.781 545.32 176.248C544.872 176.696 544.517 177.237 544.256 177.872C544.013 178.507 543.892 179.197 543.892 179.944V180.28C543.892 181.064 544.013 181.773 544.256 182.408C544.517 183.024 544.872 183.547 545.32 183.976C545.768 184.405 546.291 184.741 546.888 184.984C547.485 185.208 548.129 185.32 548.82 185.32C549.511 185.32 550.108 185.217 550.612 185.012C551.135 184.788 551.573 184.508 551.928 184.172C552.301 183.817 552.591 183.416 552.796 182.968C553.02 182.52 553.169 182.053 553.244 181.568L555.428 182.072ZM558.797 173.112H563.837V174.96H564.173C564.527 174.195 565.031 173.635 565.685 173.28C566.338 172.907 567.085 172.72 567.925 172.72C569.325 172.72 570.454 173.177 571.313 174.092C572.171 175.007 572.629 176.341 572.685 178.096L570.389 178.432C570.389 177.144 570.081 176.22 569.465 175.66C568.849 175.081 568.093 174.792 567.197 174.792C566.618 174.792 566.114 174.904 565.685 175.128C565.274 175.352 564.929 175.66 564.649 176.052C564.369 176.444 564.163 176.901 564.033 177.424C563.902 177.947 563.837 178.507 563.837 179.104V184.984H567.365V187H558.461V184.984H561.653V175.128H558.797V173.112ZM581.037 168.968C581.037 168.427 581.224 167.969 581.597 167.596C581.989 167.204 582.456 167.008 582.997 167.008C583.538 167.008 583.996 167.204 584.369 167.596C584.761 167.969 584.957 168.427 584.957 168.968C584.957 169.509 584.761 169.976 584.369 170.368C583.996 170.741 583.538 170.928 582.997 170.928C582.456 170.928 581.989 170.741 581.597 170.368C581.224 169.976 581.037 169.509 581.037 168.968ZM577.061 184.984H581.933V175.128H577.565V173.112H584.117V184.984H588.653V187H577.061V184.984ZM595.55 192.6H593.366V173.112H595.55V175.296H595.886C596.371 174.456 597.043 173.821 597.902 173.392C598.76 172.944 599.694 172.72 600.702 172.72C601.56 172.72 602.372 172.879 603.138 173.196C603.903 173.513 604.575 173.971 605.154 174.568C605.751 175.165 606.218 175.903 606.554 176.78C606.908 177.657 607.086 178.656 607.086 179.776V180.336C607.086 181.475 606.918 182.483 606.582 183.36C606.246 184.237 605.779 184.975 605.182 185.572C604.603 186.169 603.922 186.627 603.138 186.944C602.354 187.243 601.523 187.392 600.646 187.392C600.198 187.392 599.74 187.336 599.274 187.224C598.807 187.131 598.359 186.981 597.93 186.776C597.519 186.552 597.136 186.291 596.782 185.992C596.427 185.675 596.128 185.301 595.886 184.872H595.55V192.6ZM600.198 185.32C600.87 185.32 601.486 185.208 602.046 184.984C602.606 184.741 603.091 184.405 603.502 183.976C603.931 183.547 604.258 183.024 604.482 182.408C604.724 181.792 604.846 181.101 604.846 180.336V179.776C604.846 179.029 604.724 178.357 604.482 177.76C604.258 177.144 603.931 176.621 603.502 176.192C603.091 175.744 602.596 175.399 602.018 175.156C601.458 174.913 600.851 174.792 600.198 174.792C599.544 174.792 598.938 174.923 598.378 175.184C597.818 175.427 597.323 175.772 596.894 176.22C596.483 176.668 596.156 177.209 595.914 177.844C595.671 178.46 595.55 179.141 595.55 179.888V180.224C595.55 180.989 595.671 181.689 595.914 182.324C596.156 182.94 596.483 183.472 596.894 183.92C597.323 184.368 597.818 184.713 598.378 184.956C598.938 185.199 599.544 185.32 600.198 185.32ZM610.538 173.112H614.906V167.4H617.09V173.112H622.466V175.128H617.09V184.144C617.09 184.704 617.342 184.984 617.846 184.984H621.794V187H617.062C616.427 187 615.905 186.795 615.494 186.384C615.102 185.973 614.906 185.451 614.906 184.816V175.128H610.538V173.112Z" fill="#BFD1E2"/>
<path d="M713.298 178.936V187H710.946V167.4H717.946C718.954 167.4 719.832 167.549 720.578 167.848C721.325 168.128 721.941 168.511 722.426 168.996C722.93 169.481 723.304 170.051 723.546 170.704C723.808 171.339 723.938 172.011 723.938 172.72V173.56C723.938 174.269 723.808 174.951 723.546 175.604C723.304 176.257 722.93 176.836 722.426 177.34C721.922 177.825 721.297 178.217 720.55 178.516C719.804 178.796 718.936 178.936 717.946 178.936H713.298ZM713.298 176.752H717.666C720.28 176.752 721.586 175.632 721.586 173.392V172.888C721.586 171.899 721.26 171.105 720.606 170.508C719.972 169.892 718.992 169.584 717.666 169.584H713.298V176.752ZM738.227 184.48H737.891C737.443 185.376 736.855 186.085 736.127 186.608C735.399 187.131 734.475 187.392 733.355 187.392C732.59 187.392 731.88 187.261 731.227 187C730.592 186.757 730.042 186.384 729.575 185.88C729.127 185.376 728.772 184.751 728.511 184.004C728.268 183.257 728.147 182.389 728.147 181.4V173.112H730.331V181.12C730.331 182.576 730.63 183.64 731.227 184.312C731.824 184.984 732.739 185.32 733.971 185.32C735.296 185.32 736.332 184.872 737.079 183.976C737.844 183.061 738.227 181.848 738.227 180.336V173.112H740.411V190.416C740.411 191.051 740.206 191.573 739.795 191.984C739.403 192.395 738.89 192.6 738.255 192.6H730.331V190.584H737.471C737.975 190.584 738.227 190.304 738.227 189.744V184.48ZM744.815 173.112H749.183V167.4H751.367V173.112H756.743V175.128H751.367V184.144C751.367 184.704 751.619 184.984 752.123 184.984H756.071V187H751.339C750.705 187 750.182 186.795 749.771 186.384C749.379 185.973 749.183 185.451 749.183 184.816V175.128H744.815V173.112ZM764.62 187H762.436V167.4H764.62V175.632H764.956C765.385 174.736 765.983 174.027 766.748 173.504C767.532 172.981 768.484 172.72 769.604 172.72C771.116 172.72 772.339 173.224 773.272 174.232C774.224 175.221 774.7 176.715 774.7 178.712V187H772.516V179.16C772.516 177.704 772.189 176.612 771.536 175.884C770.883 175.156 769.996 174.792 768.876 174.792C767.551 174.792 766.505 175.249 765.74 176.164C764.993 177.06 764.62 178.264 764.62 179.776V187ZM792.685 180.224C792.685 181.381 792.489 182.408 792.097 183.304C791.723 184.181 791.219 184.928 790.585 185.544C789.95 186.141 789.203 186.599 788.345 186.916C787.505 187.233 786.627 187.392 785.713 187.392C784.779 187.392 783.893 187.233 783.053 186.916C782.213 186.599 781.475 186.141 780.841 185.544C780.206 184.928 779.693 184.181 779.301 183.304C778.927 182.408 778.741 181.381 778.741 180.224V179.888C778.741 178.749 778.927 177.741 779.301 176.864C779.693 175.968 780.206 175.212 780.841 174.596C781.494 173.98 782.241 173.513 783.081 173.196C783.921 172.879 784.798 172.72 785.713 172.72C786.627 172.72 787.505 172.879 788.345 173.196C789.185 173.513 789.922 173.98 790.557 174.596C791.21 175.212 791.723 175.968 792.097 176.864C792.489 177.741 792.685 178.749 792.685 179.888V180.224ZM785.713 185.32C786.385 185.32 787.001 185.208 787.561 184.984C788.139 184.741 788.643 184.396 789.073 183.948C789.502 183.5 789.838 182.968 790.081 182.352C790.323 181.717 790.445 181.008 790.445 180.224V179.888C790.445 179.141 790.323 178.46 790.081 177.844C789.838 177.209 789.502 176.668 789.073 176.22C788.643 175.772 788.139 175.427 787.561 175.184C786.982 174.923 786.366 174.792 785.713 174.792C785.059 174.792 784.443 174.923 783.865 175.184C783.286 175.427 782.782 175.772 782.353 176.22C781.923 176.668 781.587 177.209 781.345 177.844C781.102 178.46 780.981 179.141 780.981 179.888V180.224C780.981 181.008 781.102 181.717 781.345 182.352C781.587 182.968 781.923 183.5 782.353 183.948C782.782 184.396 783.277 184.741 783.837 184.984C784.415 185.208 785.041 185.32 785.713 185.32ZM798.909 187H796.725V173.112H798.909V175.464H799.245C800.104 173.635 801.597 172.72 803.725 172.72C805.33 172.72 806.609 173.224 807.561 174.232C808.513 175.221 808.989 176.715 808.989 178.712V187H806.805V179.16C806.805 177.704 806.478 176.612 805.825 175.884C805.172 175.156 804.285 174.792 803.165 174.792C801.84 174.792 800.794 175.249 800.029 176.164C799.282 177.06 798.909 178.264 798.909 179.776V187Z" fill="#BFD1E2"/>
<path d="M951.839 187H949.487V180.448C949.487 179.963 949.375 179.589 949.151 179.328C948.927 179.067 948.535 178.936 947.975 178.936H941.871V187H939.519V167.4H946.519C947.527 167.4 948.404 167.549 949.151 167.848C949.897 168.128 950.513 168.511 950.999 168.996C951.503 169.481 951.876 170.051 952.119 170.704C952.38 171.339 952.511 172.011 952.511 172.72V173.56C952.511 174.288 952.305 175.016 951.895 175.744C951.503 176.472 950.887 177.032 950.047 177.424V177.76C950.607 177.853 951.045 178.077 951.363 178.432C951.68 178.787 951.839 179.291 951.839 179.944V187ZM941.871 176.752H946.239C947.564 176.752 948.544 176.472 949.179 175.912C949.832 175.333 950.159 174.493 950.159 173.392V172.888C950.159 171.899 949.832 171.105 949.179 170.508C948.544 169.892 947.564 169.584 946.239 169.584H941.871V176.752ZM958.315 180.728C958.371 182.109 958.801 183.22 959.603 184.06C960.406 184.9 961.526 185.32 962.963 185.32C963.617 185.32 964.186 185.245 964.671 185.096C965.157 184.947 965.567 184.741 965.903 184.48C966.258 184.219 966.538 183.92 966.743 183.584C966.967 183.229 967.145 182.856 967.275 182.464L969.347 183.024C968.955 184.312 968.227 185.367 967.163 186.188C966.118 186.991 964.699 187.392 962.907 187.392C961.918 187.392 961.003 187.224 960.163 186.888C959.342 186.533 958.633 186.039 958.035 185.404C957.438 184.769 956.971 184.013 956.635 183.136C956.299 182.259 956.131 181.288 956.131 180.224V179.552C956.131 178.581 956.299 177.676 956.635 176.836C956.99 175.996 957.475 175.277 958.091 174.68C958.707 174.064 959.426 173.588 960.247 173.252C961.087 172.897 961.993 172.72 962.963 172.72C964.102 172.72 965.082 172.935 965.903 173.364C966.743 173.775 967.425 174.288 967.947 174.904C968.489 175.52 968.881 176.192 969.123 176.92C969.385 177.648 969.515 178.32 969.515 178.936V180.728H958.315ZM962.963 174.792C962.347 174.792 961.769 174.895 961.227 175.1C960.705 175.287 960.238 175.557 959.827 175.912C959.435 176.267 959.109 176.687 958.847 177.172C958.605 177.639 958.446 178.152 958.371 178.712H967.331C967.294 178.115 967.145 177.573 966.883 177.088C966.641 176.603 966.314 176.192 965.903 175.856C965.511 175.52 965.054 175.259 964.531 175.072C964.027 174.885 963.505 174.792 962.963 174.792ZM983.944 184.648H983.608C983.16 185.581 982.534 186.272 981.732 186.72C980.948 187.168 980.117 187.392 979.24 187.392C978.325 187.392 977.476 187.243 976.692 186.944C975.908 186.627 975.217 186.169 974.62 185.572C974.041 184.956 973.584 184.209 973.248 183.332C972.912 182.455 972.744 181.437 972.744 180.28V179.832C972.744 178.693 972.912 177.685 973.248 176.808C973.584 175.931 974.041 175.193 974.62 174.596C975.217 173.98 975.908 173.513 976.692 173.196C977.476 172.879 978.306 172.72 979.184 172.72C980.136 172.72 980.994 172.935 981.76 173.364C982.544 173.775 983.16 174.419 983.608 175.296H983.944V173.112H986.128V184.144C986.128 184.704 986.38 184.984 986.884 184.984H987.584V187H986.1C985.465 187 984.942 186.795 984.532 186.384C984.14 185.973 983.944 185.451 983.944 184.816V184.648ZM979.464 185.32C980.117 185.32 980.714 185.199 981.256 184.956C981.816 184.713 982.292 184.368 982.684 183.92C983.076 183.472 983.384 182.94 983.608 182.324C983.832 181.689 983.944 180.989 983.944 180.224V179.888C983.944 179.141 983.832 178.46 983.608 177.844C983.384 177.209 983.066 176.668 982.656 176.22C982.264 175.772 981.788 175.427 981.228 175.184C980.686 174.923 980.098 174.792 979.464 174.792C978.81 174.792 978.213 174.913 977.672 175.156C977.13 175.399 976.654 175.744 976.244 176.192C975.852 176.621 975.544 177.153 975.32 177.788C975.096 178.404 974.984 179.085 974.984 179.832V180.28C974.984 181.867 975.394 183.108 976.216 184.004C977.056 184.881 978.138 185.32 979.464 185.32ZM1004 182.072C1003.85 182.837 1003.59 183.547 1003.22 184.2C1002.86 184.853 1002.4 185.423 1001.84 185.908C1001.28 186.375 1000.63 186.739 999.884 187C999.138 187.261 998.307 187.392 997.392 187.392C996.422 187.392 995.498 187.233 994.62 186.916C993.762 186.599 993.006 186.141 992.352 185.544C991.699 184.928 991.176 184.181 990.784 183.304C990.411 182.427 990.224 181.419 990.224 180.28V179.944C990.224 178.824 990.411 177.816 990.784 176.92C991.176 176.024 991.699 175.268 992.352 174.652C993.006 174.036 993.762 173.56 994.62 173.224C995.498 172.888 996.422 172.72 997.392 172.72C998.27 172.72 999.082 172.851 999.828 173.112C1000.57 173.373 1001.23 173.747 1001.79 174.232C1002.37 174.699 1002.83 175.259 1003.19 175.912C1003.56 176.565 1003.81 177.275 1003.94 178.04L1001.76 178.544C1001.7 178.059 1001.56 177.592 1001.34 177.144C1001.13 176.677 1000.85 176.276 1000.47 175.94C1000.12 175.585 999.679 175.305 999.156 175.1C998.634 174.895 998.027 174.792 997.336 174.792C996.664 174.792 996.03 174.923 995.432 175.184C994.854 175.427 994.34 175.781 993.892 176.248C993.444 176.696 993.09 177.237 992.828 177.872C992.586 178.507 992.464 179.197 992.464 179.944V180.28C992.464 181.064 992.586 181.773 992.828 182.408C993.09 183.024 993.444 183.547 993.892 183.976C994.34 184.405 994.863 184.741 995.46 184.984C996.058 185.208 996.702 185.32 997.392 185.32C998.083 185.32 998.68 185.217 999.184 185.012C999.707 184.788 1000.15 184.508 1000.5 184.172C1000.87 183.817 1001.16 183.416 1001.37 182.968C1001.59 182.52 1001.74 182.053 1001.82 181.568L1004 182.072ZM1007.68 173.112H1012.04V167.4H1014.23V173.112H1019.6V175.128H1014.23V184.144C1014.23 184.704 1014.48 184.984 1014.98 184.984H1018.93V187H1014.2C1013.57 187 1013.04 186.795 1012.63 186.384C1012.24 185.973 1012.04 185.451 1012.04 184.816V175.128H1007.68V173.112Z" fill="#BFD1E2"/>
<path d="M1180.98 177.592H1189.71V187H1187.53V184.648H1187.19C1186.87 185.469 1186.31 186.132 1185.51 186.636C1184.71 187.14 1183.78 187.392 1182.71 187.392C1180.6 187.392 1178.94 186.711 1177.73 185.348C1176.53 183.985 1175.94 181.997 1175.94 179.384V175.016C1175.94 172.477 1176.54 170.508 1177.76 169.108C1178.97 167.708 1180.66 167.008 1182.82 167.008C1183.94 167.008 1184.93 167.195 1185.79 167.568C1186.65 167.923 1187.37 168.427 1187.95 169.08C1188.53 169.715 1188.96 170.471 1189.26 171.348C1189.56 172.207 1189.71 173.131 1189.71 174.12V174.456H1187.36V174.12C1187.36 173.485 1187.27 172.869 1187.08 172.272C1186.91 171.675 1186.64 171.152 1186.27 170.704C1185.91 170.237 1185.45 169.873 1184.87 169.612C1184.31 169.332 1183.63 169.192 1182.82 169.192C1181.31 169.192 1180.17 169.743 1179.41 170.844C1178.66 171.945 1178.29 173.392 1178.29 175.184V179.216C1178.29 181.139 1178.66 182.623 1179.41 183.668C1180.17 184.695 1181.33 185.208 1182.88 185.208C1184.28 185.208 1185.37 184.76 1186.16 183.864C1186.96 182.968 1187.36 181.717 1187.36 180.112V179.776H1180.98V177.592ZM1198.18 168.968C1198.18 168.427 1198.36 167.969 1198.74 167.596C1199.13 167.204 1199.59 167.008 1200.14 167.008C1200.68 167.008 1201.13 167.204 1201.51 167.596C1201.9 167.969 1202.1 168.427 1202.1 168.968C1202.1 169.509 1201.9 169.976 1201.51 170.368C1201.13 170.741 1200.68 170.928 1200.14 170.928C1199.59 170.928 1199.13 170.741 1198.74 170.368C1198.36 169.976 1198.18 169.509 1198.18 168.968ZM1194.2 184.984H1199.07V175.128H1194.7V173.112H1201.26V184.984H1205.79V187H1194.2V184.984ZM1210.53 173.112H1214.9V167.4H1217.08V173.112H1222.46V175.128H1217.08V184.144C1217.08 184.704 1217.34 184.984 1217.84 184.984H1221.79V187H1217.06C1216.42 187 1215.9 186.795 1215.49 186.384C1215.1 185.973 1214.9 185.451 1214.9 184.816V175.128H1210.53V173.112Z" fill="#BFD1E2"/>
<path d="M65.8187 426.208C66.6213 426.208 67.3027 426.077 67.8627 425.816C68.4413 425.536 68.908 425.172 69.2627 424.724C69.636 424.257 69.9067 423.735 70.0747 423.156C70.2613 422.559 70.3547 421.933 70.3547 421.28V420.944H72.7067V421.28C72.7067 422.269 72.5573 423.203 72.2587 424.08C71.96 424.939 71.5213 425.695 70.9427 426.348C70.364 426.983 69.6453 427.487 68.7867 427.86C67.928 428.215 66.9387 428.392 65.8187 428.392C63.6533 428.392 61.964 427.711 60.7507 426.348C59.5373 424.985 58.9307 422.997 58.9307 420.384V416.016C58.9307 413.477 59.5373 411.508 60.7507 410.108C61.964 408.708 63.6533 408.008 65.8187 408.008C66.9387 408.008 67.928 408.195 68.7867 408.568C69.6453 408.923 70.364 409.427 70.9427 410.08C71.5213 410.715 71.96 411.471 72.2587 412.348C72.5573 413.207 72.7067 414.131 72.7067 415.12V415.456H70.3547V415.12C70.336 414.485 70.2333 413.869 70.0467 413.272C69.8787 412.675 69.608 412.152 69.2347 411.704C68.88 411.237 68.4227 410.873 67.8627 410.612C67.3027 410.332 66.6213 410.192 65.8187 410.192C64.3067 410.192 63.168 410.743 62.4027 411.844C61.656 412.945 61.2827 414.392 61.2827 416.184V420.216C61.2827 422.139 61.656 423.623 62.4027 424.668C63.168 425.695 64.3067 426.208 65.8187 426.208ZM85.9592 405.432L87.9192 406.048L79.7712 430.968L77.7832 430.352L85.9592 405.432ZM100.108 426.208C100.91 426.208 101.592 426.077 102.152 425.816C102.73 425.536 103.197 425.172 103.552 424.724C103.925 424.257 104.196 423.735 104.364 423.156C104.55 422.559 104.644 421.933 104.644 421.28V420.944H106.996V421.28C106.996 422.269 106.846 423.203 106.548 424.08C106.249 424.939 105.81 425.695 105.232 426.348C104.653 426.983 103.934 427.487 103.076 427.86C102.217 428.215 101.228 428.392 100.108 428.392C97.9424 428.392 96.2531 427.711 95.0397 426.348C93.8264 424.985 93.2197 422.997 93.2197 420.384V416.016C93.2197 413.477 93.8264 411.508 95.0397 410.108C96.2531 408.708 97.9424 408.008 100.108 408.008C101.228 408.008 102.217 408.195 103.076 408.568C103.934 408.923 104.653 409.427 105.232 410.08C105.81 410.715 106.249 411.471 106.548 412.348C106.846 413.207 106.996 414.131 106.996 415.12V415.456H104.644V415.12C104.625 414.485 104.522 413.869 104.336 413.272C104.168 412.675 103.897 412.152 103.524 411.704C103.169 411.237 102.712 410.873 102.152 410.612C101.592 410.332 100.91 410.192 100.108 410.192C98.5957 410.192 97.4571 410.743 96.6917 411.844C95.9451 412.945 95.5717 414.392 95.5717 416.184V420.216C95.5717 422.139 95.9451 423.623 96.6917 424.668C97.4571 425.695 98.5957 426.208 100.108 426.208ZM111.288 417.192H116.132V412.348H118.148V417.192H122.992V419.208H118.148V424.052H116.132V419.208H111.288V417.192ZM128.433 417.192H133.277V412.348H135.293V417.192H140.137V419.208H135.293V424.052H133.277V419.208H128.433V417.192Z" fill="#BFD1E2"/>
<g clip-path="url(#clip0_11_148)">
<path fill-rule="evenodd" clip-rule="evenodd" d="M150.017 336.25C150.823 334.865 151.32 333.293 151.32 331.889V283.111C151.32 281.707 150.823 280.144 150.017 278.75L100.16 307.5L150.017 336.25Z" fill="#7CAFD1"/>
<path fill-rule="evenodd" clip-rule="evenodd" d="M104.592 363.942L146.888 339.554C148.106 338.852 149.212 337.635 150.017 336.25L100.16 307.5L50.3025 336.25C51.1083 337.635 52.214 338.852 53.432 339.554L95.7279 363.942C98.1641 365.346 102.146 365.346 104.592 363.942Z" fill="#7CAFD1"/>
<path fill-rule="evenodd" clip-rule="evenodd" d="M150.017 278.75C149.211 277.365 148.106 276.148 146.888 275.446L104.592 251.058C102.156 249.654 98.1641 249.654 95.7279 251.058L53.432 275.446C50.9958 276.85 49 280.304 49 283.111V331.889C49 333.293 49.4966 334.856 50.3024 336.25L100.16 307.5L150.017 278.75Z" fill="#7CAFD1"/>
<path fill-rule="evenodd" clip-rule="evenodd" d="M100.16 341.566C81.3543 341.566 66.0532 326.283 66.0532 307.5C66.0532 288.717 81.3543 273.434 100.16 273.434C112.294 273.434 123.613 279.957 129.694 290.458L114.936 298.993C111.891 293.733 106.232 290.477 100.16 290.477C90.7524 290.477 83.1065 298.113 83.1065 307.509C83.1065 316.896 90.7524 324.542 100.16 324.542C106.232 324.542 111.891 321.276 114.936 316.026L129.694 324.561C123.613 335.043 112.294 341.566 100.16 341.566Z" fill="#121824"/>
</g>
<path d="M298.899 414.056C298.899 413.421 298.768 412.861 298.507 412.376C298.264 411.891 297.928 411.489 297.499 411.172C297.07 410.855 296.575 410.612 296.015 410.444C295.455 410.276 294.867 410.192 294.251 410.192C293.71 410.192 293.196 410.267 292.711 410.416C292.226 410.547 291.787 410.743 291.395 411.004C291.022 411.265 290.723 411.592 290.499 411.984C290.275 412.357 290.163 412.796 290.163 413.3V413.468C290.163 414.009 290.275 414.476 290.499 414.868C290.723 415.241 291.05 415.568 291.479 415.848C291.927 416.109 292.478 416.333 293.131 416.52C293.784 416.688 294.55 416.837 295.427 416.968C297.48 417.285 298.992 417.892 299.963 418.788C300.934 419.665 301.419 420.851 301.419 422.344V422.68C301.419 423.52 301.27 424.295 300.971 425.004C300.691 425.695 300.262 426.292 299.683 426.796C299.123 427.3 298.423 427.692 297.583 427.972C296.743 428.252 295.772 428.392 294.671 428.392C293.42 428.392 292.31 428.215 291.339 427.86C290.387 427.487 289.584 426.983 288.931 426.348C288.296 425.695 287.811 424.939 287.475 424.08C287.139 423.203 286.971 422.251 286.971 421.224V420.384H289.323V421.056C289.323 422.773 289.79 424.061 290.723 424.92C291.675 425.779 292.991 426.208 294.671 426.208C296.127 426.208 297.219 425.891 297.947 425.256C298.694 424.603 299.067 423.744 299.067 422.68V422.512C299.067 421.485 298.684 420.701 297.919 420.16C297.172 419.619 295.95 419.227 294.251 418.984C293.262 418.853 292.366 418.657 291.563 418.396C290.779 418.116 290.107 417.761 289.547 417.332C288.987 416.884 288.558 416.352 288.259 415.736C287.96 415.12 287.811 414.392 287.811 413.552V413.216C287.811 412.451 287.97 411.751 288.287 411.116C288.604 410.481 289.043 409.931 289.603 409.464C290.182 408.997 290.863 408.643 291.647 408.4C292.45 408.139 293.327 408.008 294.279 408.008C295.38 408.008 296.36 408.167 297.219 408.484C298.096 408.801 298.834 409.231 299.431 409.772C300.028 410.295 300.476 410.92 300.775 411.648C301.092 412.357 301.251 413.104 301.251 413.888V415.064H298.899V414.056ZM315.371 425.648H315.035C314.587 426.581 313.962 427.272 313.159 427.72C312.375 428.168 311.545 428.392 310.667 428.392C309.753 428.392 308.903 428.243 308.119 427.944C307.335 427.627 306.645 427.169 306.047 426.572C305.469 425.956 305.011 425.209 304.675 424.332C304.339 423.455 304.171 422.437 304.171 421.28V420.832C304.171 419.693 304.339 418.685 304.675 417.808C305.011 416.931 305.469 416.193 306.047 415.596C306.645 414.98 307.335 414.513 308.119 414.196C308.903 413.879 309.734 413.72 310.611 413.72C311.563 413.72 312.422 413.935 313.187 414.364C313.971 414.775 314.587 415.419 315.035 416.296H315.371V414.112H317.555V425.144C317.555 425.704 317.807 425.984 318.311 425.984H319.011V428H317.527C316.893 428 316.37 427.795 315.959 427.384C315.567 426.973 315.371 426.451 315.371 425.816V425.648ZM310.891 426.32C311.545 426.32 312.142 426.199 312.683 425.956C313.243 425.713 313.719 425.368 314.111 424.92C314.503 424.472 314.811 423.94 315.035 423.324C315.259 422.689 315.371 421.989 315.371 421.224V420.888C315.371 420.141 315.259 419.46 315.035 418.844C314.811 418.209 314.494 417.668 314.083 417.22C313.691 416.772 313.215 416.427 312.655 416.184C312.114 415.923 311.526 415.792 310.891 415.792C310.238 415.792 309.641 415.913 309.099 416.156C308.558 416.399 308.082 416.744 307.671 417.192C307.279 417.621 306.971 418.153 306.747 418.788C306.523 419.404 306.411 420.085 306.411 420.832V421.28C306.411 422.867 306.822 424.108 307.643 425.004C308.483 425.881 309.566 426.32 310.891 426.32ZM325.32 417.696C325.32 418.368 325.6 418.881 326.16 419.236C326.739 419.591 327.784 419.824 329.296 419.936C330.92 420.067 332.152 420.459 332.992 421.112C333.851 421.747 334.28 422.68 334.28 423.912V424.08C334.28 424.752 334.14 425.359 333.86 425.9C333.599 426.423 333.225 426.871 332.74 427.244C332.273 427.617 331.695 427.897 331.004 428.084C330.332 428.289 329.595 428.392 328.792 428.392C327.709 428.392 326.776 428.252 325.992 427.972C325.227 427.673 324.583 427.291 324.06 426.824C323.556 426.339 323.173 425.797 322.912 425.2C322.651 424.584 322.501 423.968 322.464 423.352L324.536 422.848C324.629 423.912 325.04 424.771 325.768 425.424C326.496 426.059 327.467 426.376 328.68 426.376C329.707 426.376 330.528 426.18 331.144 425.788C331.779 425.377 332.096 424.808 332.096 424.08C332.096 423.296 331.788 422.736 331.172 422.4C330.556 422.064 329.557 421.849 328.176 421.756C326.571 421.644 325.339 421.271 324.48 420.636C323.621 420.001 323.192 419.077 323.192 417.864V417.696C323.192 417.043 323.332 416.473 323.612 415.988C323.892 415.484 324.265 415.064 324.732 414.728C325.217 414.392 325.759 414.14 326.356 413.972C326.953 413.804 327.579 413.72 328.232 413.72C329.147 413.72 329.949 413.851 330.64 414.112C331.331 414.355 331.909 414.681 332.376 415.092C332.843 415.484 333.197 415.941 333.44 416.464C333.701 416.987 333.869 417.509 333.944 418.032L331.872 418.536C331.779 417.64 331.415 416.94 330.78 416.436C330.164 415.932 329.352 415.68 328.344 415.68C327.952 415.68 327.569 415.727 327.196 415.82C326.841 415.895 326.524 416.016 326.244 416.184C325.964 416.352 325.74 416.567 325.572 416.828C325.404 417.071 325.32 417.36 325.32 417.696ZM342.465 417.696C342.465 418.368 342.745 418.881 343.305 419.236C343.883 419.591 344.929 419.824 346.441 419.936C348.065 420.067 349.297 420.459 350.137 421.112C350.995 421.747 351.425 422.68 351.425 423.912V424.08C351.425 424.752 351.285 425.359 351.005 425.9C350.743 426.423 350.37 426.871 349.885 427.244C349.418 427.617 348.839 427.897 348.149 428.084C347.477 428.289 346.739 428.392 345.937 428.392C344.854 428.392 343.921 428.252 343.137 427.972C342.371 427.673 341.727 427.291 341.205 426.824C340.701 426.339 340.318 425.797 340.057 425.2C339.795 424.584 339.646 423.968 339.609 423.352L341.681 422.848C341.774 423.912 342.185 424.771 342.913 425.424C343.641 426.059 344.611 426.376 345.825 426.376C346.851 426.376 347.673 426.18 348.289 425.788C348.923 425.377 349.241 424.808 349.241 424.08C349.241 423.296 348.933 422.736 348.317 422.4C347.701 422.064 346.702 421.849 345.321 421.756C343.715 421.644 342.483 421.271 341.625 420.636C340.766 420.001 340.337 419.077 340.337 417.864V417.696C340.337 417.043 340.477 416.473 340.757 415.988C341.037 415.484 341.41 415.064 341.877 414.728C342.362 414.392 342.903 414.14 343.501 413.972C344.098 413.804 344.723 413.72 345.377 413.72C346.291 413.72 347.094 413.851 347.785 414.112C348.475 414.355 349.054 414.681 349.521 415.092C349.987 415.484 350.342 415.941 350.585 416.464C350.846 416.987 351.014 417.509 351.089 418.032L349.017 418.536C348.923 417.64 348.559 416.94 347.925 416.436C347.309 415.932 346.497 415.68 345.489 415.68C345.097 415.68 344.714 415.727 344.341 415.82C343.986 415.895 343.669 416.016 343.389 416.184C343.109 416.352 342.885 416.567 342.717 416.828C342.549 417.071 342.465 417.36 342.465 417.696Z" fill="#BFD1E2"/>
<path d="M527.471 414.056C527.471 413.421 527.341 412.861 527.079 412.376C526.837 411.891 526.501 411.489 526.071 411.172C525.642 410.855 525.147 410.612 524.587 410.444C524.027 410.276 523.439 410.192 522.823 410.192C522.282 410.192 521.769 410.267 521.283 410.416C520.798 410.547 520.359 410.743 519.967 411.004C519.594 411.265 519.295 411.592 519.071 411.984C518.847 412.357 518.735 412.796 518.735 413.3V413.468C518.735 414.009 518.847 414.476 519.071 414.868C519.295 415.241 519.622 415.568 520.051 415.848C520.499 416.109 521.05 416.333 521.703 416.52C522.357 416.688 523.122 416.837 523.999 416.968C526.053 417.285 527.565 417.892 528.535 418.788C529.506 419.665 529.991 420.851 529.991 422.344V422.68C529.991 423.52 529.842 424.295 529.543 425.004C529.263 425.695 528.834 426.292 528.255 426.796C527.695 427.3 526.995 427.692 526.155 427.972C525.315 428.252 524.345 428.392 523.243 428.392C521.993 428.392 520.882 428.215 519.911 427.86C518.959 427.487 518.157 426.983 517.503 426.348C516.869 425.695 516.383 424.939 516.047 424.08C515.711 423.203 515.543 422.251 515.543 421.224V420.384H517.895V421.056C517.895 422.773 518.362 424.061 519.295 424.92C520.247 425.779 521.563 426.208 523.243 426.208C524.699 426.208 525.791 425.891 526.519 425.256C527.266 424.603 527.639 423.744 527.639 422.68V422.512C527.639 421.485 527.257 420.701 526.491 420.16C525.745 419.619 524.522 419.227 522.823 418.984C521.834 418.853 520.938 418.657 520.135 418.396C519.351 418.116 518.679 417.761 518.119 417.332C517.559 416.884 517.13 416.352 516.831 415.736C516.533 415.12 516.383 414.392 516.383 413.552V413.216C516.383 412.451 516.542 411.751 516.859 411.116C517.177 410.481 517.615 409.931 518.175 409.464C518.754 408.997 519.435 408.643 520.219 408.4C521.022 408.139 521.899 408.008 522.851 408.008C523.953 408.008 524.933 408.167 525.791 408.484C526.669 408.801 527.406 409.231 528.003 409.772C528.601 410.295 529.049 410.92 529.347 411.648C529.665 412.357 529.823 413.104 529.823 413.888V415.064H527.471V414.056ZM533.108 416.016C533.108 413.477 533.714 411.508 534.928 410.108C536.141 408.708 537.83 408.008 539.996 408.008C542.161 408.008 543.85 408.708 545.064 410.108C546.277 411.508 546.884 413.477 546.884 416.016V420.384C546.884 422.773 546.37 424.649 545.344 426.012C544.336 427.356 542.917 428.131 541.088 428.336V429.512C541.088 430.072 541.34 430.352 541.844 430.352H544.196V432.368H541.06C540.425 432.368 539.902 432.163 539.492 431.752C539.1 431.341 538.904 430.819 538.904 430.184V428.336C537.056 428.112 535.628 427.328 534.62 425.984C533.612 424.64 533.108 422.773 533.108 420.384V416.016ZM539.996 426.208C541.508 426.208 542.637 425.695 543.384 424.668C544.149 423.623 544.532 422.139 544.532 420.216V416.184C544.532 414.392 544.149 412.945 543.384 411.844C542.637 410.743 541.508 410.192 539.996 410.192C538.484 410.192 537.345 410.743 536.58 411.844C535.833 412.945 535.46 414.392 535.46 416.184V420.216C535.46 422.139 535.833 423.623 536.58 424.668C537.345 425.695 538.484 426.208 539.996 426.208ZM551.008 408.4H553.36V425.816H563.608V428H551.008V408.4Z" fill="#BFD1E2"/>
<path d="M700.75 408.4H703.27L708.394 426.992H708.73L713.854 408.4H716.374L710.83 428H706.294L700.75 408.4ZM730.327 414.056C730.327 413.421 730.196 412.861 729.935 412.376C729.692 411.891 729.356 411.489 728.927 411.172C728.497 410.855 728.003 410.612 727.443 410.444C726.883 410.276 726.295 410.192 725.679 410.192C725.137 410.192 724.624 410.267 724.139 410.416C723.653 410.547 723.215 410.743 722.823 411.004C722.449 411.265 722.151 411.592 721.927 411.984C721.703 412.357 721.591 412.796 721.591 413.3V413.468C721.591 414.009 721.703 414.476 721.927 414.868C722.151 415.241 722.477 415.568 722.907 415.848C723.355 416.109 723.905 416.333 724.559 416.52C725.212 416.688 725.977 416.837 726.855 416.968C728.908 417.285 730.42 417.892 731.391 418.788C732.361 419.665 732.847 420.851 732.847 422.344V422.68C732.847 423.52 732.697 424.295 732.399 425.004C732.119 425.695 731.689 426.292 731.111 426.796C730.551 427.3 729.851 427.692 729.011 427.972C728.171 428.252 727.2 428.392 726.099 428.392C724.848 428.392 723.737 428.215 722.767 427.86C721.815 427.487 721.012 426.983 720.359 426.348C719.724 425.695 719.239 424.939 718.903 424.08C718.567 423.203 718.399 422.251 718.399 421.224V420.384H720.751V421.056C720.751 422.773 721.217 424.061 722.151 424.92C723.103 425.779 724.419 426.208 726.099 426.208C727.555 426.208 728.647 425.891 729.375 425.256C730.121 424.603 730.495 423.744 730.495 422.68V422.512C730.495 421.485 730.112 420.701 729.347 420.16C728.6 419.619 727.377 419.227 725.679 418.984C724.689 418.853 723.793 418.657 722.991 418.396C722.207 418.116 721.535 417.761 720.975 417.332C720.415 416.884 719.985 416.352 719.687 415.736C719.388 415.12 719.239 414.392 719.239 413.552V413.216C719.239 412.451 719.397 411.751 719.715 411.116C720.032 410.481 720.471 409.931 721.031 409.464C721.609 408.997 722.291 408.643 723.075 408.4C723.877 408.139 724.755 408.008 725.707 408.008C726.808 408.008 727.788 408.167 728.647 408.484C729.524 408.801 730.261 409.231 730.859 409.772C731.456 410.295 731.904 410.92 732.203 411.648C732.52 412.357 732.679 413.104 732.679 413.888V415.064H730.327V414.056ZM760.108 426.208C760.91 426.208 761.592 426.077 762.152 425.816C762.73 425.536 763.197 425.172 763.552 424.724C763.925 424.257 764.196 423.735 764.364 423.156C764.55 422.559 764.644 421.933 764.644 421.28V420.944H766.996V421.28C766.996 422.269 766.846 423.203 766.548 424.08C766.249 424.939 765.81 425.695 765.232 426.348C764.653 426.983 763.934 427.487 763.076 427.86C762.217 428.215 761.228 428.392 760.108 428.392C757.942 428.392 756.253 427.711 755.04 426.348C753.826 424.985 753.22 422.997 753.22 420.384V416.016C753.22 413.477 753.826 411.508 755.04 410.108C756.253 408.708 757.942 408.008 760.108 408.008C761.228 408.008 762.217 408.195 763.076 408.568C763.934 408.923 764.653 409.427 765.232 410.08C765.81 410.715 766.249 411.471 766.548 412.348C766.846 413.207 766.996 414.131 766.996 415.12V415.456H764.644V415.12C764.625 414.485 764.522 413.869 764.336 413.272C764.168 412.675 763.897 412.152 763.524 411.704C763.169 411.237 762.712 410.873 762.152 410.612C761.592 410.332 760.91 410.192 760.108 410.192C758.596 410.192 757.457 410.743 756.692 411.844C755.945 412.945 755.572 414.392 755.572 416.184V420.216C755.572 422.139 755.945 423.623 756.692 424.668C757.457 425.695 758.596 426.208 760.108 426.208ZM784.112 421.224C784.112 422.381 783.916 423.408 783.524 424.304C783.151 425.181 782.647 425.928 782.012 426.544C781.378 427.141 780.631 427.599 779.772 427.916C778.932 428.233 778.055 428.392 777.14 428.392C776.207 428.392 775.32 428.233 774.48 427.916C773.64 427.599 772.903 427.141 772.268 426.544C771.634 425.928 771.12 425.181 770.728 424.304C770.355 423.408 770.168 422.381 770.168 421.224V420.888C770.168 419.749 770.355 418.741 770.728 417.864C771.12 416.968 771.634 416.212 772.268 415.596C772.922 414.98 773.668 414.513 774.508 414.196C775.348 413.879 776.226 413.72 777.14 413.72C778.055 413.72 778.932 413.879 779.772 414.196C780.612 414.513 781.35 414.98 781.984 415.596C782.638 416.212 783.151 416.968 783.524 417.864C783.916 418.741 784.112 419.749 784.112 420.888V421.224ZM777.14 426.32C777.812 426.32 778.428 426.208 778.988 425.984C779.567 425.741 780.071 425.396 780.5 424.948C780.93 424.5 781.266 423.968 781.508 423.352C781.751 422.717 781.872 422.008 781.872 421.224V420.888C781.872 420.141 781.751 419.46 781.508 418.844C781.266 418.209 780.93 417.668 780.5 417.22C780.071 416.772 779.567 416.427 778.988 416.184C778.41 415.923 777.794 415.792 777.14 415.792C776.487 415.792 775.871 415.923 775.292 416.184C774.714 416.427 774.21 416.772 773.78 417.22C773.351 417.668 773.015 418.209 772.772 418.844C772.53 419.46 772.408 420.141 772.408 420.888V421.224C772.408 422.008 772.53 422.717 772.772 423.352C773.015 423.968 773.351 424.5 773.78 424.948C774.21 425.396 774.704 425.741 775.264 425.984C775.843 426.208 776.468 426.32 777.14 426.32ZM798.905 425.872H798.569C798.345 426.301 798.055 426.675 797.701 426.992C797.365 427.309 796.991 427.571 796.581 427.776C796.189 427.981 795.769 428.131 795.321 428.224C794.873 428.336 794.443 428.392 794.033 428.392C793.099 428.392 792.231 428.233 791.429 427.916C790.626 427.599 789.917 427.141 789.301 426.544C788.703 425.947 788.227 425.209 787.873 424.332C787.537 423.436 787.369 422.419 787.369 421.28V420.832C787.369 419.712 787.546 418.713 787.901 417.836C788.255 416.94 788.731 416.193 789.329 415.596C789.926 414.98 790.626 414.513 791.429 414.196C792.231 413.879 793.081 413.72 793.977 413.72C794.929 413.72 795.815 413.935 796.637 414.364C797.477 414.775 798.121 415.419 798.569 416.296H798.905V408.4H801.089V428H798.905V425.872ZM794.257 426.32C794.91 426.32 795.517 426.199 796.077 425.956C796.637 425.713 797.122 425.368 797.533 424.92C797.962 424.472 798.298 423.94 798.541 423.324C798.783 422.689 798.905 421.989 798.905 421.224V420.888C798.905 420.141 798.783 419.46 798.541 418.844C798.298 418.209 797.962 417.668 797.533 417.22C797.122 416.772 796.627 416.427 796.049 416.184C795.489 415.923 794.891 415.792 794.257 415.792C793.603 415.792 792.987 415.913 792.409 416.156C791.849 416.399 791.354 416.744 790.925 417.192C790.514 417.64 790.187 418.172 789.945 418.788C789.721 419.404 789.609 420.085 789.609 420.832V421.28C789.609 422.064 789.721 422.764 789.945 423.38C790.187 423.996 790.514 424.528 790.925 424.976C791.354 425.405 791.849 425.741 792.409 425.984C792.969 426.208 793.585 426.32 794.257 426.32ZM806.893 421.728C806.949 423.109 807.379 424.22 808.181 425.06C808.984 425.9 810.104 426.32 811.541 426.32C812.195 426.32 812.764 426.245 813.249 426.096C813.735 425.947 814.145 425.741 814.481 425.48C814.836 425.219 815.116 424.92 815.321 424.584C815.545 424.229 815.723 423.856 815.853 423.464L817.925 424.024C817.533 425.312 816.805 426.367 815.741 427.188C814.696 427.991 813.277 428.392 811.485 428.392C810.496 428.392 809.581 428.224 808.741 427.888C807.92 427.533 807.211 427.039 806.613 426.404C806.016 425.769 805.549 425.013 805.213 424.136C804.877 423.259 804.709 422.288 804.709 421.224V420.552C804.709 419.581 804.877 418.676 805.213 417.836C805.568 416.996 806.053 416.277 806.669 415.68C807.285 415.064 808.004 414.588 808.825 414.252C809.665 413.897 810.571 413.72 811.541 413.72C812.68 413.72 813.66 413.935 814.481 414.364C815.321 414.775 816.003 415.288 816.525 415.904C817.067 416.52 817.459 417.192 817.701 417.92C817.963 418.648 818.093 419.32 818.093 419.936V421.728H806.893ZM811.541 415.792C810.925 415.792 810.347 415.895 809.805 416.1C809.283 416.287 808.816 416.557 808.405 416.912C808.013 417.267 807.687 417.687 807.425 418.172C807.183 418.639 807.024 419.152 806.949 419.712H815.909C815.872 419.115 815.723 418.573 815.461 418.088C815.219 417.603 814.892 417.192 814.481 416.856C814.089 416.52 813.632 416.259 813.109 416.072C812.605 415.885 812.083 415.792 811.541 415.792Z" fill="#BFD1E2"/>
<path d="M939.799 408.4H951.839V410.584H942.151V417.08H951.671V419.264H942.151V428H939.799V408.4ZM961.031 409.968C961.031 409.427 961.218 408.969 961.591 408.596C961.983 408.204 962.45 408.008 962.991 408.008C963.533 408.008 963.99 408.204 964.363 408.596C964.755 408.969 964.951 409.427 964.951 409.968C964.951 410.509 964.755 410.976 964.363 411.368C963.99 411.741 963.533 411.928 962.991 411.928C962.45 411.928 961.983 411.741 961.591 411.368C961.218 410.976 961.031 410.509 961.031 409.968ZM957.055 425.984H961.927V416.128H957.559V414.112H964.111V425.984H968.647V428H957.055V425.984ZM984.42 425.872H984.084C983.636 426.712 983.02 427.347 982.236 427.776C981.47 428.187 980.63 428.392 979.716 428.392C978.782 428.392 977.905 428.233 977.084 427.916C976.262 427.599 975.534 427.141 974.9 426.544C974.284 425.947 973.789 425.209 973.416 424.332C973.061 423.436 972.884 422.419 972.884 421.28V420.832C972.884 419.712 973.07 418.713 973.444 417.836C973.817 416.94 974.312 416.193 974.928 415.596C975.544 414.98 976.262 414.513 977.084 414.196C977.905 413.879 978.764 413.72 979.66 413.72C980.668 413.72 981.545 413.944 982.292 414.392C983.057 414.821 983.654 415.456 984.084 416.296H984.42V414.112H986.604V431.416C986.604 432.051 986.398 432.573 985.988 432.984C985.596 433.395 985.082 433.6 984.448 433.6H975.404V431.584H983.664C984.168 431.584 984.42 431.304 984.42 430.744V425.872ZM979.772 426.32C980.425 426.32 981.032 426.199 981.592 425.956C982.152 425.713 982.637 425.368 983.048 424.92C983.477 424.472 983.813 423.94 984.056 423.324C984.298 422.689 984.42 421.989 984.42 421.224V420.888C984.42 420.141 984.298 419.46 984.056 418.844C983.813 418.209 983.477 417.668 983.048 417.22C982.637 416.772 982.142 416.427 981.564 416.184C981.004 415.923 980.406 415.792 979.772 415.792C979.118 415.792 978.502 415.913 977.924 416.156C977.364 416.399 976.869 416.744 976.44 417.192C976.029 417.64 975.702 418.172 975.46 418.788C975.236 419.404 975.124 420.085 975.124 420.832V421.28C975.124 422.064 975.236 422.764 975.46 423.38C975.702 423.996 976.029 424.528 976.44 424.976C976.869 425.405 977.364 425.741 977.924 425.984C978.484 426.208 979.1 426.32 979.772 426.32ZM1004.36 428H1002.18V418.032C1002.18 417.379 1002.03 416.847 1001.73 416.436C1001.43 416.007 1000.96 415.792 1000.3 415.792C999.688 415.792 999.184 416.025 998.792 416.492C998.419 416.94 998.232 417.64 998.232 418.592V428H996.048V417.92C996.048 417.304 995.88 416.8 995.544 416.408C995.208 415.997 994.76 415.792 994.2 415.792C993.528 415.792 993.006 416.035 992.632 416.52C992.278 417.005 992.1 417.64 992.1 418.424V428H989.916V414.112H992.1V415.624H992.436C992.679 414.971 993.034 414.495 993.5 414.196C993.967 413.879 994.518 413.72 995.152 413.72C995.824 413.72 996.375 413.897 996.804 414.252C997.252 414.607 997.56 415.064 997.728 415.624H998.064C998.699 414.355 999.707 413.72 1001.09 413.72C1002.13 413.72 1002.94 414.056 1003.5 414.728C1004.07 415.381 1004.36 416.24 1004.36 417.304V428ZM1018.23 425.648H1017.9C1017.45 426.581 1016.82 427.272 1016.02 427.72C1015.24 428.168 1014.41 428.392 1013.53 428.392C1012.61 428.392 1011.76 428.243 1010.98 427.944C1010.2 427.627 1009.51 427.169 1008.91 426.572C1008.33 425.956 1007.87 425.209 1007.54 424.332C1007.2 423.455 1007.03 422.437 1007.03 421.28V420.832C1007.03 419.693 1007.2 418.685 1007.54 417.808C1007.87 416.931 1008.33 416.193 1008.91 415.596C1009.51 414.98 1010.2 414.513 1010.98 414.196C1011.76 413.879 1012.6 413.72 1013.47 413.72C1014.42 413.72 1015.28 413.935 1016.05 414.364C1016.83 414.775 1017.45 415.419 1017.9 416.296H1018.23V414.112H1020.42V425.144C1020.42 425.704 1020.67 425.984 1021.17 425.984H1021.87V428H1020.39C1019.75 428 1019.23 427.795 1018.82 427.384C1018.43 426.973 1018.23 426.451 1018.23 425.816V425.648ZM1013.75 426.32C1014.41 426.32 1015 426.199 1015.54 425.956C1016.1 425.713 1016.58 425.368 1016.97 424.92C1017.36 424.472 1017.67 423.94 1017.9 423.324C1018.12 422.689 1018.23 421.989 1018.23 421.224V420.888C1018.23 420.141 1018.12 419.46 1017.9 418.844C1017.67 418.209 1017.36 417.668 1016.94 417.22C1016.55 416.772 1016.08 416.427 1015.52 416.184C1014.98 415.923 1014.39 415.792 1013.75 415.792C1013.1 415.792 1012.5 415.913 1011.96 416.156C1011.42 416.399 1010.94 416.744 1010.53 417.192C1010.14 417.621 1009.83 418.153 1009.61 418.788C1009.38 419.404 1009.27 420.085 1009.27 420.832V421.28C1009.27 422.867 1009.68 424.108 1010.5 425.004C1011.34 425.881 1012.43 426.32 1013.75 426.32Z" fill="#BFD1E2"/>
<path d="M1178.9 428H1176.72V414.112H1178.9V416.464H1179.24C1180.1 414.635 1181.59 413.72 1183.72 413.72C1185.32 413.72 1186.6 414.224 1187.56 415.232C1188.51 416.221 1188.98 417.715 1188.98 419.712V428H1186.8V420.16C1186.8 418.704 1186.47 417.612 1185.82 416.884C1185.17 416.156 1184.28 415.792 1183.16 415.792C1181.83 415.792 1180.79 416.249 1180.02 417.164C1179.28 418.06 1178.9 419.264 1178.9 420.776V428ZM1195.54 433.6H1193.36V414.112H1195.54V416.296H1195.88C1196.37 415.456 1197.04 414.821 1197.9 414.392C1198.75 413.944 1199.69 413.72 1200.7 413.72C1201.55 413.72 1202.37 413.879 1203.13 414.196C1203.9 414.513 1204.57 414.971 1205.15 415.568C1205.75 416.165 1206.21 416.903 1206.55 417.78C1206.9 418.657 1207.08 419.656 1207.08 420.776V421.336C1207.08 422.475 1206.91 423.483 1206.58 424.36C1206.24 425.237 1205.77 425.975 1205.18 426.572C1204.6 427.169 1203.92 427.627 1203.13 427.944C1202.35 428.243 1201.52 428.392 1200.64 428.392C1200.19 428.392 1199.73 428.336 1199.27 428.224C1198.8 428.131 1198.35 427.981 1197.92 427.776C1197.51 427.552 1197.13 427.291 1196.78 426.992C1196.42 426.675 1196.12 426.301 1195.88 425.872H1195.54V433.6ZM1200.19 426.32C1200.86 426.32 1201.48 426.208 1202.04 425.984C1202.6 425.741 1203.09 425.405 1203.5 424.976C1203.93 424.547 1204.25 424.024 1204.48 423.408C1204.72 422.792 1204.84 422.101 1204.84 421.336V420.776C1204.84 420.029 1204.72 419.357 1204.48 418.76C1204.25 418.144 1203.93 417.621 1203.5 417.192C1203.09 416.744 1202.59 416.399 1202.01 416.156C1201.45 415.913 1200.85 415.792 1200.19 415.792C1199.54 415.792 1198.93 415.923 1198.37 416.184C1197.81 416.427 1197.32 416.772 1196.89 417.22C1196.48 417.668 1196.15 418.209 1195.91 418.844C1195.67 419.46 1195.54 420.141 1195.54 420.888V421.224C1195.54 421.989 1195.67 422.689 1195.91 423.324C1196.15 423.94 1196.48 424.472 1196.89 424.92C1197.32 425.368 1197.81 425.713 1198.37 425.956C1198.93 426.199 1199.54 426.32 1200.19 426.32ZM1224.36 428H1222.18V418.032C1222.18 417.379 1222.03 416.847 1221.73 416.436C1221.43 416.007 1220.96 415.792 1220.3 415.792C1219.69 415.792 1219.18 416.025 1218.79 416.492C1218.42 416.94 1218.23 417.64 1218.23 418.592V428H1216.05V417.92C1216.05 417.304 1215.88 416.8 1215.54 416.408C1215.21 415.997 1214.76 415.792 1214.2 415.792C1213.53 415.792 1213.01 416.035 1212.63 416.52C1212.28 417.005 1212.1 417.64 1212.1 418.424V428H1209.92V414.112H1212.1V415.624H1212.44C1212.68 414.971 1213.03 414.495 1213.5 414.196C1213.97 413.879 1214.52 413.72 1215.15 413.72C1215.82 413.72 1216.37 413.897 1216.8 414.252C1217.25 414.607 1217.56 415.064 1217.73 415.624H1218.06C1218.7 414.355 1219.71 413.72 1221.09 413.72C1222.13 413.72 1222.94 414.056 1223.5 414.728C1224.07 415.381 1224.36 416.24 1224.36 417.304V428Z" fill="#BFD1E2"/>
<path d="M49 0H150.652L141.404 103.318L99.7128 115L58.261 103.318L49 0V0ZM83.0326 46.7139L81.9145 33.6952L130.598 33.708L131.716 21.1499L67.9292 21.1371L71.3028 59.5088H115.475L113.905 75.9246L99.8227 79.7758L85.5142 75.9054L84.603 65.7974H71.9749L73.5712 85.7766L99.8227 92.7242L125.854 85.815L129.461 46.7203H83.0326V46.7139V46.7139Z" fill="#7CAFD1"/>
<path d="M270 0H370.623L361.473 103.323L320.205 115L279.163 103.317L270 0ZM351.891 21.1428L288.739 21.1299L289.757 33.6893L338.274 33.7022L337.056 46.7192H305.236L306.389 59.0466H336.013L334.26 75.9299L320.315 79.7834L306.157 75.8977L305.249 65.787H292.747L294.139 84.262L320.315 92.4137L346.059 85.0869L351.891 21.1428V21.1428Z" fill="#7CAFD1"/>
<path d="M482 0H597V115H482V0ZM587.576 87.5725C586.739 82.3272 583.321 77.9189 573.189 73.8044C569.662 72.1497 565.746 71.0061 564.57 68.3483C564.136 66.7639 564.072 65.9078 564.353 64.9686C565.075 61.8764 568.742 60.95 571.617 61.8061C573.489 62.3811 575.214 63.8186 576.294 66.125C581.245 62.8858 581.245 62.8858 584.701 60.7328C583.404 58.7267 582.759 57.8514 581.897 56.9889C578.875 53.6156 574.85 51.8906 568.314 52.0375L564.941 52.4656C561.701 53.2578 558.609 54.9892 556.744 57.2828C551.281 63.4672 552.859 74.2453 559.472 78.7111C566.008 83.5986 575.578 84.6719 576.798 89.2719C577.948 94.8814 572.633 96.6767 567.375 96.0314C563.497 95.1625 561.337 93.2267 558.967 89.6297L550.201 94.6642C551.204 96.9578 552.354 97.9672 554.079 99.9797C562.417 108.388 583.264 107.959 587.001 95.1625C587.136 94.7344 588.151 91.7892 587.359 87.2594L587.576 87.5725V87.5725ZM544.534 52.8553H533.763C533.763 62.1383 533.718 71.3703 533.718 80.6725C533.718 86.5758 534.018 91.9936 533.054 93.6611C531.476 96.9642 527.393 96.5425 525.547 95.9547C523.649 95.0219 522.684 93.725 521.566 91.8594C521.266 91.3611 521.042 90.9267 520.959 90.9267L512.219 96.3189C513.682 99.3408 515.816 101.935 518.57 103.583C522.665 106.03 528.166 106.822 533.929 105.532C537.686 104.446 540.925 102.216 542.605 98.7658C545.058 94.3128 544.534 88.8439 544.515 82.7361C544.566 72.8908 544.515 63.0392 544.515 53.1236L544.534 52.8553Z" fill="#7CAFD1"/>
<path d="M744.306 55.7834H772.082C772.082 55.7834 787.69 56.0337 787.69 40.7016V15.3449C787.69 15.3449 790.058 0 759.394 0C730.039 0 731.868 12.7265 731.868 12.7265L731.907 25.915H759.908V29.8748H720.785C720.785 29.8748 702 27.7441 702 57.3557C702 86.9674 718.397 85.9149 718.397 85.9149H728.178V72.1744C728.178 72.1744 727.645 55.7834 744.306 55.7834ZM743.947 18.9453C742.61 18.9453 741.329 18.4145 740.384 17.4697C739.439 16.5249 738.909 15.2435 738.909 13.9073C738.909 12.5712 739.439 11.2898 740.384 10.345C741.329 9.40016 742.61 8.86938 743.947 8.86938C745.283 8.86938 746.564 9.40016 747.509 10.345C748.454 11.2898 748.985 12.5712 748.985 13.9073C748.985 15.2435 748.454 16.5249 747.509 17.4697C746.564 18.4145 745.283 18.9453 743.947 18.9453Z" fill="#7CAFD1"/>
<path d="M801.212 29.0851H791.432V42.8256C791.432 42.8256 791.964 59.2166 775.304 59.2166H747.528C747.528 59.2166 731.92 58.9599 731.92 74.2984V99.6551C731.92 99.6551 729.551 115 760.216 115C789.564 115 787.735 102.274 787.735 102.274L787.697 89.0914H759.696V85.1316H798.825C798.825 85.1316 817.61 87.2623 817.61 57.6507C817.61 28.039 801.212 29.0851 801.212 29.0851V29.0851ZM775.663 96.0611C776.999 96.0611 778.281 96.5919 779.226 97.5367C780.17 98.4815 780.701 99.7629 780.701 101.099C780.701 102.435 780.17 103.717 779.226 104.661C778.281 105.606 776.999 106.137 775.663 106.137C774.327 106.137 773.046 105.606 772.101 104.661C771.156 103.717 770.625 102.435 770.625 101.099C770.625 99.7629 771.156 98.4815 772.101 97.5367C773.046 96.5919 774.327 96.0611 775.663 96.0611V96.0611Z" fill="#7CAFD1"/>
<path d="M979.631 69.0276C985.996 69.0276 991.156 63.8677 991.156 57.5027C991.156 51.1376 985.996 45.9777 979.631 45.9777C973.266 45.9777 968.106 51.1376 968.106 57.5027C968.106 63.8677 973.266 69.0276 979.631 69.0276Z" fill="#7CAFD1"/>
<path d="M947.36 80.4172L944.81 79.7651C925.866 74.9808 915 66.8455 915 57.4771C915 48.1022 925.873 39.9733 944.81 35.189L947.36 34.5434L948.077 37.0679C949.992 43.6775 952.445 50.119 955.412 56.3278L955.96 57.4771L955.412 58.6263C952.442 64.844 949.982 71.2876 948.077 77.8992L947.36 80.4172V80.4172ZM943.635 41.0645C929.243 45.1192 920.404 51.3046 920.404 57.4771C920.404 63.6366 929.237 69.8285 943.635 73.8767C945.397 68.2724 947.528 62.7908 949.995 57.4771C947.51 52.1545 945.386 46.6713 943.635 41.0645V41.0645ZM1011.89 80.4172L1011.18 77.8862C1009.26 71.2754 1006.81 64.832 1003.84 58.6199L1003.29 57.4771L1003.84 56.3213C1006.81 50.1166 1009.26 43.6665 1011.18 37.055L1011.89 34.5369L1014.44 35.1826C1033.39 39.9669 1044.25 48.0957 1044.25 57.4771C1044.25 66.852 1033.39 74.9808 1014.44 79.7651L1011.89 80.4172V80.4172ZM1009.25 57.4771C1011.83 63.0684 1013.98 68.5694 1015.62 73.8767C1030.02 69.8285 1038.86 63.6366 1038.86 57.4771C1038.86 51.3046 1030.02 45.1257 1015.62 41.0645C1013.86 46.6696 1011.73 52.1524 1009.25 57.4771V57.4771Z" fill="#7CAFD1"/>
<path d="M943.596 41.0387L942.886 38.5207C937.553 19.745 939.167 6.29599 947.322 1.60853C955.295 -3.00791 968.125 2.44788 981.561 16.2326L983.394 18.1179L981.561 19.9968C976.788 24.9599 972.427 30.3019 968.518 35.9703L967.789 37.0163L966.523 37.1196C959.651 37.6594 952.834 38.7585 946.14 40.406L943.596 41.0387V41.0387ZM953.81 5.34042C952.364 5.34042 951.086 5.65679 950.007 6.27662C944.661 9.3564 943.719 20.0807 947.399 34.5563C953.152 33.2844 958.956 32.374 964.806 31.864C968.192 27.0606 971.887 22.4819 975.866 18.1567C967.453 9.97623 959.512 5.34042 953.81 5.34042V5.34042ZM1005.44 114.999C997.773 114.999 987.92 109.213 977.693 98.7151L975.866 96.8363L977.693 94.9639C982.466 89.9928 986.83 84.6445 990.742 78.971L991.465 77.9379L992.718 77.8153C999.592 77.2851 1006.41 76.1902 1013.11 74.5418L1015.66 73.8961L1016.37 76.4206C1021.68 95.1834 1020.07 108.652 1011.93 113.339C1009.96 114.46 1007.72 115.033 1005.44 114.999V114.999ZM983.394 96.7911C991.801 104.972 999.749 109.614 1005.44 109.614C1006.9 109.614 1008.17 109.291 1009.25 108.678C1014.6 105.591 1015.55 94.8477 1011.85 80.3721C1006.11 81.6505 1000.3 82.5673 994.435 83.0774C991.063 87.8883 987.374 92.4696 983.394 96.7911V96.7911Z" fill="#7CAFD1"/>
<path d="M1015.66 41.0384L1013.11 40.3992C1006.41 38.7466 999.593 37.6474 992.718 37.1128L991.465 37.0031L990.742 35.9571C986.835 30.2856 982.471 24.9432 977.693 19.9836L975.866 18.1047L977.693 16.2323C991.123 2.45404 1003.95 -3.00175 1011.93 1.60823C1020.08 6.30215 1021.7 19.7512 1016.37 38.5204L1015.66 41.0384ZM994.435 31.8637C1000.59 32.4125 1006.43 33.3358 1011.85 34.556C1015.54 20.0804 1014.6 9.3561 1009.25 6.26987C1003.93 3.19009 993.912 7.90338 983.394 18.1564C987.372 22.4823 991.065 27.0535 994.435 31.8637ZM953.81 114.998C951.539 115.031 949.299 114.458 947.322 113.339C939.167 108.651 937.553 95.1896 942.879 76.4204L943.577 73.8958L946.127 74.5415C952.351 76.1104 959.208 77.2145 966.517 77.815L967.769 77.9376L968.499 78.9707C972.399 84.6395 976.763 89.992 981.541 94.9636L983.375 96.836L981.541 98.7148C971.321 109.22 961.468 114.998 953.81 114.998V114.998ZM947.399 80.3782C943.719 94.8538 944.661 105.598 950.007 108.684C955.334 111.718 965.316 107.037 975.866 96.7908C971.888 92.4642 968.194 87.8856 964.806 83.0835C958.95 82.5657 953.135 81.662 947.399 80.3782V80.3782Z" fill="#7CAFD1"/>
<path d="M979.63 83.768C975.195 83.768 970.643 83.5808 966.071 83.1998L964.806 83.0901L964.076 82.0441C961.499 78.3374 959.073 74.527 956.806 70.6225C954.556 66.7074 952.465 62.7032 950.537 58.6197L949.995 57.4769L950.537 56.3212C952.467 52.2406 954.553 48.2376 956.806 44.3249C959.047 40.4768 961.494 36.6287 964.076 32.8968L964.806 31.8638L966.071 31.7475C975.091 30.9921 984.157 30.9921 993.176 31.7475L994.429 31.8702L995.158 32.9033C1000.32 40.3202 1004.86 48.1556 1008.72 56.3276L1009.25 57.4834L1008.72 58.6262C1004.87 66.8038 1000.33 74.6401 995.158 82.0506L994.429 83.0965L993.176 83.2063C988.618 83.5743 984.059 83.768 979.63 83.768V83.768ZM967.789 77.9313C975.763 78.5317 983.498 78.5317 991.465 77.9313C995.913 71.418 999.867 64.5807 1003.29 57.4769C999.879 50.3667 995.925 43.5286 991.465 37.0225C983.585 36.4156 975.669 36.4156 967.789 37.0225C963.326 43.5262 959.371 50.3646 955.96 57.4769C959.395 64.5768 963.348 71.4135 967.789 77.9313V77.9313Z" fill="#7CAFD1"/>
<path d="M1254.85 52.371L1204.63 2.16459C1203.24 0.778288 1201.35 0 1199.39 0C1197.42 0 1195.54 0.778288 1194.14 2.16459L1183.74 12.5809L1196.96 25.8097C1198.52 25.2826 1200.2 25.2032 1201.8 25.5805C1203.41 25.9578 1204.87 26.7768 1206.03 27.9446C1207.19 29.1123 1208 30.5821 1208.37 32.1872C1208.74 33.7922 1208.65 35.4684 1208.12 37.0255L1220.85 49.777C1222.74 49.1154 1224.79 49.1152 1226.67 49.7762C1228.56 50.4373 1230.16 51.7203 1231.22 53.4143C1232.28 55.1083 1232.74 57.1124 1232.5 59.0971C1232.27 61.0817 1231.37 62.9288 1229.95 64.3345C1226.51 67.7855 1220.95 67.7855 1217.5 64.3345C1216.27 63.1073 1215.43 61.5465 1215.09 59.8466C1214.74 58.1467 1214.91 56.3829 1215.56 54.7752L1203.63 42.9095V74.1814C1204.47 74.5897 1205.27 75.1534 1205.97 75.8493C1207.61 77.5054 1208.54 79.7446 1208.54 82.0784C1208.54 84.4123 1207.61 86.6514 1205.97 88.3075C1205.15 89.1294 1204.18 89.7814 1203.1 90.2263C1202.03 90.6712 1200.88 90.9002 1199.72 90.9002C1198.56 90.9002 1197.41 90.6712 1196.33 90.2263C1195.26 89.7814 1194.29 89.1294 1193.47 88.3075C1192.65 87.4911 1192 86.5211 1191.55 85.4532C1191.11 84.3853 1190.88 83.2404 1190.88 82.0842C1190.88 80.9279 1191.11 79.783 1191.55 78.7151C1192 77.6472 1192.65 76.6773 1193.47 75.8609C1194.34 74.9981 1195.32 74.3424 1196.36 73.911V42.3343C1195.29 41.894 1194.31 41.245 1193.49 40.4247C1192.67 39.6043 1192.01 38.629 1191.57 37.5551C1191.13 36.4812 1190.9 35.3299 1190.9 34.1679C1190.91 33.0058 1191.14 31.856 1191.59 30.7849L1178.59 17.7229L1144.16 52.1294C1141.28 55.0283 1141.28 59.7216 1144.16 62.6205L1194.37 112.827C1195.06 113.516 1195.88 114.062 1196.78 114.435C1197.68 114.808 1198.64 115 1199.61 115C1200.58 115 1201.55 114.808 1202.45 114.435C1203.35 114.062 1204.16 113.516 1204.85 112.827L1254.83 62.8506C1255.52 62.1653 1256.07 61.3498 1256.45 60.4512C1256.82 59.5525 1257.02 58.5884 1257.02 57.6144C1257.02 56.6403 1256.83 55.6756 1256.46 54.7757C1256.09 53.8758 1255.54 53.0585 1254.85 52.371" fill="#7CAFD1"/>
<path fill-rule="evenodd" clip-rule="evenodd" d="M264.095 291.453C264.095 292.084 264.281 292.501 264.385 292.906C265.065 295.541 266.525 297.803 268.257 299.866C270.724 302.805 273.745 305.172 276.84 307.397C279.525 309.327 282.264 311.214 284.96 313.129C285.422 313.458 285.86 313.836 286.362 314.24C285.93 314.473 285.571 314.679 285.197 314.869C281.64 316.673 278.218 318.695 275.063 321.145C273.162 322.622 271.324 324.192 270.026 326.243C267.937 329.542 267.198 333.057 268.755 336.809C269.209 337.905 269.903 338.852 270.881 339.552C271.198 339.779 271.554 340.003 271.925 340.091C272.876 340.315 273.844 340.462 274.806 340.639L277.531 340.637C280.545 340.368 283.288 339.336 285.766 337.625C289.64 334.951 292.25 331.367 293.373 326.766C294.188 323.422 294.222 320.074 293.26 316.745C293.168 316.437 293.062 316.133 292.942 315.834C292.825 315.535 292.688 315.244 292.526 314.871L298.704 311.319L298.796 311.398C298.684 311.765 298.565 312.132 298.463 312.503C297.729 315.184 297.241 317.912 297.416 320.694C297.603 323.659 298.431 326.434 300.167 328.911C301.57 330.915 304.914 330.989 306.405 328.979C306.935 328.264 307.448 327.518 307.833 326.721C308.84 324.641 309.773 322.524 310.735 320.422L310.903 320.037C310.834 321.033 310.753 321.907 310.716 322.782C310.659 324.149 310.738 325.507 311.206 326.807C311.605 327.919 312.286 328.75 313.56 328.897C314.431 328.997 315.126 328.598 315.766 328.092C316.759 327.308 317.581 326.33 318.184 325.218C319.892 322.081 321.646 318.964 323.194 315.748C324.868 312.27 326.333 308.691 327.888 305.154L328.145 304.527C328.512 305.971 328.768 307.385 329.24 308.723C329.788 310.277 330.466 311.793 331.205 313.268C331.554 313.964 331.514 314.416 331.03 315C329.003 317.444 327.011 319.917 325.017 322.388C324.576 322.933 324.137 323.488 323.769 324.084C323.547 324.46 323.4 324.877 323.338 325.309C323.276 325.708 323.371 326.115 323.603 326.445C323.834 326.775 324.185 327.003 324.581 327.08C325.38 327.252 326.199 327.311 327.014 327.254C329.796 327.049 332.323 326.072 334.556 324.417C337.45 322.274 338.379 319.348 337.678 315.881C337.489 314.941 337.153 314.026 336.827 313.119C336.681 312.711 336.671 312.424 336.938 312.043C339.251 308.739 341.228 305.235 343.066 301.649C343.139 301.508 343.213 301.367 343.341 301.216C343.937 304.316 344.833 307.303 346.44 310.013C345.62 310.803 344.809 311.519 344.075 312.308C342.459 314.046 341.057 315.932 340.326 318.233C340.011 319.225 339.77 320.233 339.91 321.292C340.127 322.938 341.475 324.007 343.093 323.632C346.556 322.831 349.545 321.199 351.729 318.309C353.199 316.363 353.333 314.192 352.717 311.918C352.548 311.3 352.348 310.692 352.132 309.983C352.987 309.718 353.819 309.4 354.681 309.203C359.154 308.182 363.579 308.36 367.89 309.976C370.406 310.919 372.44 312.498 373.645 314.981C375.118 318.017 374.304 320.897 371.442 322.816C371.175 322.995 370.87 323.136 370.649 323.36C370.578 323.442 370.525 323.538 370.494 323.641C370.462 323.745 370.452 323.854 370.465 323.962C370.484 324.072 370.776 324.211 370.944 324.209C371.884 324.202 372.647 323.708 373.379 323.202C375.214 321.932 376.553 320.224 376.841 317.975L376.898 317.807L376.828 316.342C376.801 316.258 376.849 316.174 376.843 316.11C376.453 312.835 374.704 310.296 372.159 308.305C369.212 306 365.733 305.051 362.053 304.901C359.068 304.773 356.087 305.232 353.28 306.252C352.474 306.544 351.675 306.89 350.865 307.216C350.756 307.019 350.639 306.83 350.543 306.635C349.711 304.932 348.703 303.304 348.48 301.351C348.322 299.964 348.128 298.578 348.458 297.206C348.775 295.886 349.188 294.589 349.577 293.287C349.777 292.617 349.636 292.241 348.997 291.94C348.774 291.828 348.536 291.75 348.29 291.708C346.718 291.48 345.168 291.61 343.645 292.053C343.106 292.21 342.714 292.512 342.594 293.108C342.526 293.451 342.387 293.779 342.29 294.117C341.892 295.521 341.61 296.952 340.966 298.29C339.355 301.645 337.515 304.874 335.632 308.08C335.428 308.426 335.213 308.766 334.956 309.185C334.295 307.802 333.589 306.56 333.376 305.104C333.134 303.458 332.943 301.815 333.353 300.182C333.658 298.964 334.056 297.768 334.422 296.566C334.596 295.994 334.516 295.694 333.998 295.393C333.737 295.241 333.441 295.107 333.146 295.063C331.534 294.817 329.887 294.952 328.336 295.456C327.848 295.614 327.592 295.93 327.443 296.433C327.005 297.917 326.631 299.437 326.016 300.849C323.523 306.563 320.959 312.247 318.398 317.931C317.863 319.117 317.237 320.263 316.634 321.418C316.481 321.711 316.258 321.969 316.068 322.244C315.915 322.063 315.856 321.939 315.857 321.815C315.861 321.085 315.774 320.333 315.913 319.627C316.341 317.491 316.814 315.365 317.331 313.249C317.753 311.5 318.245 309.768 318.713 308.032C318.87 307.45 318.873 306.907 318.455 306.418C317.753 305.599 316.287 305.42 315.418 306.05L315.033 306.268L315.108 305.648C315.291 304.319 315.328 302.995 314.963 301.686C314.508 300.054 313.344 299.115 311.651 299.168C310.862 299.192 310.034 299.327 309.304 299.614C306.232 300.818 303.87 302.95 301.859 305.515C301.673 305.753 301.442 305.953 301.179 306.103C298.58 307.544 295.973 308.967 293.366 310.395L290.465 311.985C289.687 311.243 288.98 310.473 288.178 309.819C285.728 307.821 283.238 305.873 280.771 303.897C278.584 302.146 276.466 300.322 274.845 298.003C273.639 296.278 272.862 294.391 272.788 292.258C272.693 289.54 273.464 287.057 274.848 284.745C276.618 281.787 279.032 279.414 281.686 277.264C284.493 274.991 287.53 273.061 290.677 271.299C295.081 268.834 299.61 266.653 304.466 265.213C309.445 263.736 314.497 262.89 319.708 263.48C321.756 263.712 323.745 264.181 325.572 265.182C326.971 265.949 328.118 266.952 328.652 268.521C329.178 270.064 329.162 271.629 328.797 273.196C328.056 276.371 326.317 278.989 324.13 281.327C320.541 285.161 316.164 287.771 311.236 289.495C308.403 290.488 305.455 291.116 302.463 291.366C300.011 291.572 297.611 291.355 295.289 290.502C293.752 289.937 292.413 289.073 291.337 287.818C291.144 287.594 290.898 287.35 290.54 287.561C290.189 287.767 290.127 288.101 290.244 288.44C290.441 289.003 290.622 289.588 290.929 290.092C291.699 291.354 292.822 292.269 294.058 293.055C296.433 294.565 299.087 295.072 301.839 295.19C306.015 295.371 310.089 294.747 314.106 293.627C319.841 292.028 324.827 289.203 328.826 284.747C332.155 281.036 334.534 276.849 335.043 271.792C335.292 269.324 335.027 266.906 333.871 264.655C332.618 262.216 330.625 260.402 328.243 259.152C324.773 257.333 321.028 256.273 317.163 256.273H313.291C308.61 256.273 304.085 257.615 299.686 259.215C296.356 260.427 293.091 261.857 289.922 263.44C283.019 266.889 276.591 271.048 271.311 276.767C268.68 279.616 266.453 282.759 265.172 286.461C264.785 287.566 264.452 288.689 264.173 289.826L264.095 291.453ZM289.185 322.182C288.886 326.188 287.07 329.436 284.103 332.067C282.433 333.545 280.519 334.598 278.289 334.968C277.48 335.102 276.653 335.135 275.868 334.8C274.75 334.322 274.499 333.329 274.478 332.271C274.444 330.586 275.035 329.062 275.844 327.612C276.901 325.722 278.45 324.281 280.104 322.935C282.709 320.814 285.536 319.019 288.43 317.324L288.649 317.234C289.096 318.887 289.309 320.52 289.185 322.182V322.182ZM311.788 304.771C311.577 306.05 311.313 307.331 310.939 308.571C309.647 312.862 307.987 317.021 306.193 321.124C305.862 321.884 305.379 322.576 304.96 323.296C304.888 323.407 304.803 323.507 304.705 323.596C304.186 324.109 303.694 324.082 303.432 323.411C303.126 322.631 302.938 321.796 302.777 320.971C302.668 320.416 302.694 319.834 302.66 319.266C302.695 315.229 303.927 311.56 306.016 308.144C306.878 306.735 307.816 305.393 309.249 304.502C309.695 304.224 310.177 304.011 310.682 303.867C311.446 303.653 311.915 304.006 311.788 304.771V304.771ZM327.209 324.418L332.751 317.947C332.982 320.35 328.897 325.148 327.209 324.418ZM344.911 320.063C344.519 320.288 344.092 320.45 343.69 320.657C343.323 320.848 343.202 320.655 343.191 320.339C343.186 320.12 343.214 319.902 343.275 319.691C344.023 317.052 345.4 314.799 347.45 312.966L347.593 312.892C348.568 315.619 347.441 318.613 344.911 320.063Z" fill="#7CAFD1"/>
<path d="M705.285 281.468C705.285 281.468 702.565 279.5 705.833 276.875L713.441 270.052C713.441 270.052 715.62 267.753 717.923 269.757L788.158 323.06V348.62C788.158 348.62 788.123 352.634 782.986 352.192L705.285 281.468Z" fill="#7CAFD1"/>
<path d="M723.391 297.942L705.285 314.44C705.285 314.44 703.425 315.826 705.285 318.308L713.69 325.969C713.69 325.969 715.687 328.121 718.639 325.674L737.829 311.085L723.391 297.942ZM755.173 298.079L788.373 272.666L788.158 247.243C788.158 247.243 786.741 241.695 782.01 244.585L737.829 284.89L755.173 298.079Z" fill="#7CAFD1"/>
<path d="M782.985 352.224C784.912 354.203 787.25 353.554 787.25 353.554L813.122 340.776C816.435 338.512 815.971 335.704 815.971 335.704V259.387C815.971 256.031 812.546 254.873 812.546 254.873L790.12 244.037C785.221 241.001 782.01 244.585 782.01 244.585C782.01 244.585 786.137 241.605 788.158 247.244V348.154C788.158 348.848 788.011 349.529 787.716 350.143C787.127 351.34 785.842 352.452 782.771 351.986L782.985 352.224Z" fill="#7CAFD1"/>
<g clip-path="url(#clip1_11_148)">
<path d="M963.879 356.898C974.57 356.898 983.195 348.273 983.195 337.582V318.266H963.879C953.188 318.266 944.562 326.891 944.562 337.582C944.562 348.273 953.188 356.898 963.879 356.898ZM944.562 298.949C944.562 288.258 953.188 279.633 963.879 279.633H983.195V318.266H963.879C953.188 318.266 944.562 309.641 944.562 298.949ZM944.562 260.316C944.562 249.625 953.188 241 963.879 241H983.195V279.633H963.879C953.188 279.633 944.562 271.008 944.562 260.316ZM983.195 241H1002.51C1013.2 241 1021.83 249.625 1021.83 260.316C1021.83 271.008 1013.2 279.633 1002.51 279.633H983.195V241ZM1021.83 298.949C1021.83 309.641 1013.2 318.266 1002.51 318.266C991.82 318.266 983.195 309.641 983.195 298.949C983.195 288.258 991.82 279.633 1002.51 279.633C1013.2 279.633 1021.83 288.258 1021.83 298.949Z" fill="#7CAFD1"/>
</g>
<path d="M586 264C586 251.534 564.938 241 540 241C515.062 241 494 251.534 494 264V275.5C494 287.966 515.062 298.5 540 298.5C564.938 298.5 586 287.966 586 275.5V264ZM540 338.75C515.062 338.75 494 328.216 494 315.75V333C494 345.466 515.062 356 540 356C564.938 356 586 345.466 586 333V315.75C586 328.216 564.938 338.75 540 338.75Z" fill="#7CAFD1"/>
<path d="M586 287C586 299.466 564.938 310 540 310C515.062 310 494 299.466 494 287V304.25C494 316.716 515.062 327.25 540 327.25C564.938 327.25 586 316.716 586 304.25V287Z" fill="#7CAFD1"/>
<path d="M1129 262.5H1253V306.21H1191V313.5H1163.44V306.21H1129V262.5ZM1135.89 298.93H1149.67V277.07H1156.56V298.93H1163.45V269.79H1135.89V298.93ZM1170.33 269.79V306.21H1184.11V298.93H1197.89V269.79H1170.33ZM1184.11 277.08H1191V291.64H1184.11V277.08ZM1204.78 269.79V298.93H1218.56V277.07H1225.45V298.93H1232.34V277.07H1239.23V298.93H1246.12V269.79H1204.78Z" fill="#7CAFD1"/>
<defs>
<clipPath id="clip0_11_148">
<rect width="102.31" height="115" fill="white" transform="translate(49 250)"/>
</clipPath>
<clipPath id="clip1_11_148">
<rect width="115" height="115" fill="white" transform="translate(923 241)"/>
</clipPath>
</defs>
</svg>
