<svg width="1920" height="1080" viewBox="0 0 1920 1080" fill="none" xmlns="http://www.w3.org/2000/svg">
<g style="mix-blend-mode:hard-light" opacity="0.35">
<path d="M261.879 665.826C270.565 700.129 294.873 728.789 331.476 751.233C368.081 773.679 416.955 789.887 474.695 799.283C590.175 818.073 741.024 809.595 899.86 769.373C1058.7 729.15 1195.4 664.81 1288.02 593.322C1334.33 557.578 1369.6 520.062 1391.11 482.899C1412.61 445.74 1420.35 408.964 1411.67 374.661C1402.98 340.359 1378.67 311.698 1342.07 289.254C1305.46 266.809 1256.59 250.6 1198.85 241.205C1083.37 222.414 932.52 230.892 773.684 271.115C614.848 311.337 478.145 375.677 385.527 447.165C339.218 482.909 303.949 520.426 282.438 557.588C260.93 594.748 253.192 631.523 261.879 665.826Z" stroke="url(#paint0_linear_222_100)"/>
<path d="M1.27231 731.82C13.9119 781.733 49.2781 823.418 102.493 856.049C155.711 888.681 226.752 912.238 310.663 925.892C478.484 953.199 697.689 940.877 928.49 882.431C1159.29 823.984 1357.94 730.491 1492.54 626.601C1559.84 574.656 1611.1 520.126 1642.38 466.098C1673.65 412.073 1684.91 358.58 1672.27 308.667C1659.63 258.754 1624.27 217.069 1571.05 184.439C1517.83 151.807 1446.79 128.249 1362.88 114.596C1195.06 87.2884 975.855 99.6104 745.054 158.057C514.254 216.503 315.604 309.996 181.006 413.886C113.707 465.831 62.4403 520.361 31.1677 574.389C-0.10337 628.414 -11.3673 681.908 1.27231 731.82Z" stroke="url(#paint1_linear_222_100)"/>
<path d="M-315.837 812.123C-298.388 881.03 -249.565 938.564 -176.136 983.589C-102.703 1028.62 -4.68959 1061.12 111.067 1079.95C342.578 1117.62 644.96 1100.62 963.327 1020C1281.7 939.379 1555.72 810.413 1741.4 667.096C1834.24 595.437 1904.98 520.205 1948.13 445.655C1991.28 371.107 2006.83 297.272 1989.38 228.365C1971.93 159.457 1923.11 101.924 1849.68 56.8983C1776.25 11.871 1678.23 -20.6282 1562.48 -39.4636C1330.97 -77.1342 1028.58 -60.1346 710.217 20.4868C391.849 101.108 117.821 230.075 -67.8578 373.392C-160.698 445.051 -231.431 520.283 -274.582 594.833C-317.732 669.38 -333.287 743.216 -315.837 812.123Z" stroke="url(#paint2_linear_222_100)"/>
</g>
<defs>
<linearGradient id="paint0_linear_222_100" x1="1371.85" y1="354.796" x2="375.789" y2="768.025" gradientUnits="userSpaceOnUse">
<stop stop-color="#7CAFD1"/>
<stop offset="0.491388" stop-color="#484848" stop-opacity="0.36"/>
<stop offset="1" stop-color="#BFD1E2"/>
</linearGradient>
<linearGradient id="paint1_linear_222_100" x1="1614.2" y1="279.859" x2="166.995" y2="880.253" gradientUnits="userSpaceOnUse">
<stop stop-color="#7CAFD1"/>
<stop offset="0.491388" stop-color="#484848" stop-opacity="0.36"/>
<stop offset="1" stop-color="#BFD1E2"/>
</linearGradient>
<linearGradient id="paint2_linear_222_100" x1="1909.1" y1="188.676" x2="-87.0673" y2="1016.81" gradientUnits="userSpaceOnUse">
<stop stop-color="#7CAFD1"/>
<stop offset="0.491388" stop-color="#484848" stop-opacity="0.36"/>
<stop offset="1" stop-color="#BFD1E2"/>
</linearGradient>
</defs>
</svg>
