<svg width="1300" height="503" viewBox="0 0 1300 503" fill="none" xmlns="http://www.w3.org/2000/svg">
<path d="M80.5245 168.09V189H77.7945V179.52H67.1445V189H64.4145V168.09H67.1445V177.27H77.7945V168.09H80.5245ZM98.056 168.09V170.31H92.356V189H89.626V170.31H83.896V168.09H98.056ZM122.626 168.24V189H119.896V173.52L112.996 189H111.076L104.146 173.49V189H101.416V168.24H104.356L112.036 185.4L119.716 168.24H122.626ZM129.986 186.78H137.306V189H127.256V168.09H129.986V186.78Z" fill="#BFD1E2"/>
<path d="M292.096 178.53C292.096 176.49 292.556 174.66 293.476 173.04C294.396 171.4 295.646 170.12 297.226 169.2C298.826 168.28 300.596 167.82 302.536 167.82C304.816 167.82 306.806 168.37 308.506 169.47C310.206 170.57 311.446 172.13 312.226 174.15H308.956C308.376 172.89 307.536 171.92 306.436 171.24C305.356 170.56 304.056 170.22 302.536 170.22C301.076 170.22 299.766 170.56 298.606 171.24C297.446 171.92 296.536 172.89 295.876 174.15C295.216 175.39 294.886 176.85 294.886 178.53C294.886 180.19 295.216 181.65 295.876 182.91C296.536 184.15 297.446 185.11 298.606 185.79C299.766 186.47 301.076 186.81 302.536 186.81C304.056 186.81 305.356 186.48 306.436 185.82C307.536 185.14 308.376 184.17 308.956 182.91H312.226C311.446 184.91 310.206 186.46 308.506 187.56C306.806 188.64 304.816 189.18 302.536 189.18C300.596 189.18 298.826 188.73 297.226 187.83C295.646 186.91 294.396 185.64 293.476 184.02C292.556 182.4 292.096 180.57 292.096 178.53ZM322.919 189.21C321.539 189.21 320.299 188.97 319.199 188.49C318.119 187.99 317.269 187.31 316.649 186.45C316.029 185.57 315.709 184.56 315.689 183.42H318.599C318.699 184.4 319.099 185.23 319.799 185.91C320.519 186.57 321.559 186.9 322.919 186.9C324.219 186.9 325.239 186.58 325.979 185.94C326.739 185.28 327.119 184.44 327.119 183.42C327.119 182.62 326.899 181.97 326.459 181.47C326.019 180.97 325.469 180.59 324.809 180.33C324.149 180.07 323.259 179.79 322.139 179.49C320.759 179.13 319.649 178.77 318.809 178.41C317.989 178.05 317.279 177.49 316.679 176.73C316.099 175.95 315.809 174.91 315.809 173.61C315.809 172.47 316.099 171.46 316.679 170.58C317.259 169.7 318.069 169.02 319.109 168.54C320.169 168.06 321.379 167.82 322.739 167.82C324.699 167.82 326.299 168.31 327.539 169.29C328.799 170.27 329.509 171.57 329.669 173.19H326.669C326.569 172.39 326.149 171.69 325.409 171.09C324.669 170.47 323.689 170.16 322.469 170.16C321.329 170.16 320.399 170.46 319.679 171.06C318.959 171.64 318.599 172.46 318.599 173.52C318.599 174.28 318.809 174.9 319.229 175.38C319.669 175.86 320.199 176.23 320.819 176.49C321.459 176.73 322.349 177.01 323.489 177.33C324.869 177.71 325.979 178.09 326.819 178.47C327.659 178.83 328.379 179.4 328.979 180.18C329.579 180.94 329.879 181.98 329.879 183.3C329.879 184.32 329.609 185.28 329.069 186.18C328.529 187.08 327.729 187.81 326.669 188.37C325.609 188.93 324.359 189.21 322.919 189.21ZM340.527 189.21C339.147 189.21 337.907 188.97 336.807 188.49C335.727 187.99 334.877 187.31 334.257 186.45C333.637 185.57 333.317 184.56 333.297 183.42H336.207C336.307 184.4 336.707 185.23 337.407 185.91C338.127 186.57 339.167 186.9 340.527 186.9C341.827 186.9 342.847 186.58 343.587 185.94C344.347 185.28 344.727 184.44 344.727 183.42C344.727 182.62 344.507 181.97 344.067 181.47C343.627 180.97 343.077 180.59 342.417 180.33C341.757 180.07 340.867 179.79 339.747 179.49C338.367 179.13 337.257 178.77 336.417 178.41C335.597 178.05 334.887 177.49 334.287 176.73C333.707 175.95 333.417 174.91 333.417 173.61C333.417 172.47 333.707 171.46 334.287 170.58C334.867 169.7 335.677 169.02 336.717 168.54C337.777 168.06 338.987 167.82 340.347 167.82C342.307 167.82 343.907 168.31 345.147 169.29C346.407 170.27 347.117 171.57 347.277 173.19H344.277C344.177 172.39 343.757 171.69 343.017 171.09C342.277 170.47 341.297 170.16 340.077 170.16C338.937 170.16 338.007 170.46 337.287 171.06C336.567 171.64 336.207 172.46 336.207 173.52C336.207 174.28 336.417 174.9 336.837 175.38C337.277 175.86 337.807 176.23 338.427 176.49C339.067 176.73 339.957 177.01 341.097 177.33C342.477 177.71 343.587 178.09 344.427 178.47C345.267 178.83 345.987 179.4 346.587 180.18C347.187 180.94 347.487 181.98 347.487 183.3C347.487 184.32 347.217 185.28 346.677 186.18C346.137 187.08 345.337 187.81 344.277 188.37C343.217 188.93 341.967 189.21 340.527 189.21Z" fill="#BFD1E2"/>
<path d="M473.402 168.09V183.54C473.402 185.26 472.872 186.64 471.812 187.68C470.752 188.7 469.352 189.21 467.612 189.21C465.852 189.21 464.442 188.69 463.382 187.65C462.322 186.59 461.792 185.15 461.792 183.33H464.522C464.542 184.35 464.802 185.18 465.302 185.82C465.822 186.46 466.592 186.78 467.612 186.78C468.632 186.78 469.392 186.48 469.892 185.88C470.392 185.26 470.642 184.48 470.642 183.54V168.09H473.402ZM477.76 180.72C477.76 179.04 478.1 177.57 478.78 176.31C479.46 175.03 480.39 174.04 481.57 173.34C482.77 172.64 484.1 172.29 485.56 172.29C487 172.29 488.25 172.6 489.31 173.22C490.37 173.84 491.16 174.62 491.68 175.56V172.56H494.44V189H491.68V185.94C491.14 186.9 490.33 187.7 489.25 188.34C488.19 188.96 486.95 189.27 485.53 189.27C484.07 189.27 482.75 188.91 481.57 188.19C480.39 187.47 479.46 186.46 478.78 185.16C478.1 183.86 477.76 182.38 477.76 180.72ZM491.68 180.75C491.68 179.51 491.43 178.43 490.93 177.51C490.43 176.59 489.75 175.89 488.89 175.41C488.05 174.91 487.12 174.66 486.1 174.66C485.08 174.66 484.15 174.9 483.31 175.38C482.47 175.86 481.8 176.56 481.3 177.48C480.8 178.4 480.55 179.48 480.55 180.72C480.55 181.98 480.8 183.08 481.3 184.02C481.8 184.94 482.47 185.65 483.31 186.15C484.15 186.63 485.08 186.87 486.1 186.87C487.12 186.87 488.05 186.63 488.89 186.15C489.75 185.65 490.43 184.94 490.93 184.02C491.43 183.08 491.68 181.99 491.68 180.75ZM505.173 186.48L510.273 172.56H513.183L506.733 189H503.553L497.103 172.56H500.043L505.173 186.48ZM514.85 180.72C514.85 179.04 515.19 177.57 515.87 176.31C516.55 175.03 517.48 174.04 518.66 173.34C519.86 172.64 521.19 172.29 522.65 172.29C524.09 172.29 525.34 172.6 526.4 173.22C527.46 173.84 528.25 174.62 528.77 175.56V172.56H531.53V189H528.77V185.94C528.23 186.9 527.42 187.7 526.34 188.34C525.28 188.96 524.04 189.27 522.62 189.27C521.16 189.27 519.84 188.91 518.66 188.19C517.48 187.47 516.55 186.46 515.87 185.16C515.19 183.86 514.85 182.38 514.85 180.72ZM528.77 180.75C528.77 179.51 528.52 178.43 528.02 177.51C527.52 176.59 526.84 175.89 525.98 175.41C525.14 174.91 524.21 174.66 523.19 174.66C522.17 174.66 521.24 174.9 520.4 175.38C519.56 175.86 518.89 176.56 518.39 177.48C517.89 178.4 517.64 179.48 517.64 180.72C517.64 181.98 517.89 183.08 518.39 184.02C518.89 184.94 519.56 185.65 520.4 186.15C521.24 186.63 522.17 186.87 523.19 186.87C524.21 186.87 525.14 186.63 525.98 186.15C526.84 185.65 527.52 184.94 528.02 184.02C528.52 183.08 528.77 181.99 528.77 180.75ZM542.773 189.21C541.393 189.21 540.153 188.97 539.053 188.49C537.973 187.99 537.123 187.31 536.503 186.45C535.883 185.57 535.563 184.56 535.543 183.42H538.453C538.553 184.4 538.953 185.23 539.653 185.91C540.373 186.57 541.413 186.9 542.773 186.9C544.073 186.9 545.093 186.58 545.833 185.94C546.593 185.28 546.973 184.44 546.973 183.42C546.973 182.62 546.753 181.97 546.313 181.47C545.873 180.97 545.323 180.59 544.663 180.33C544.003 180.07 543.113 179.79 541.993 179.49C540.613 179.13 539.503 178.77 538.663 178.41C537.843 178.05 537.133 177.49 536.533 176.73C535.953 175.95 535.663 174.91 535.663 173.61C535.663 172.47 535.953 171.46 536.533 170.58C537.113 169.7 537.923 169.02 538.963 168.54C540.023 168.06 541.233 167.82 542.593 167.82C544.553 167.82 546.153 168.31 547.393 169.29C548.653 170.27 549.363 171.57 549.523 173.19H546.523C546.423 172.39 546.003 171.69 545.263 171.09C544.523 170.47 543.543 170.16 542.323 170.16C541.183 170.16 540.253 170.46 539.533 171.06C538.813 171.64 538.453 172.46 538.453 173.52C538.453 174.28 538.663 174.9 539.083 175.38C539.523 175.86 540.053 176.23 540.673 176.49C541.313 176.73 542.203 177.01 543.343 177.33C544.723 177.71 545.833 178.09 546.673 178.47C547.513 178.83 548.233 179.4 548.833 180.18C549.433 180.94 549.733 181.98 549.733 183.3C549.733 184.32 549.463 185.28 548.923 186.18C548.383 187.08 547.583 187.81 546.523 188.37C545.463 188.93 544.213 189.21 542.773 189.21ZM552.73 180.75C552.73 179.05 553.07 177.57 553.75 176.31C554.43 175.03 555.37 174.04 556.57 173.34C557.79 172.64 559.18 172.29 560.74 172.29C562.76 172.29 564.42 172.78 565.72 173.76C567.04 174.74 567.91 176.1 568.33 177.84H565.39C565.11 176.84 564.56 176.05 563.74 175.47C562.94 174.89 561.94 174.6 560.74 174.6C559.18 174.6 557.92 175.14 556.96 176.22C556 177.28 555.52 178.79 555.52 180.75C555.52 182.73 556 184.26 556.96 185.34C557.92 186.42 559.18 186.96 560.74 186.96C561.94 186.96 562.94 186.68 563.74 186.12C564.54 185.56 565.09 184.76 565.39 183.72H568.33C567.89 185.4 567.01 186.75 565.69 187.77C564.37 188.77 562.72 189.27 560.74 189.27C559.18 189.27 557.79 188.92 556.57 188.22C555.37 187.52 554.43 186.53 553.75 185.25C553.07 183.97 552.73 182.47 552.73 180.75ZM574.703 175.23C575.183 174.29 575.863 173.56 576.743 173.04C577.643 172.52 578.733 172.26 580.013 172.26V175.08H579.293C576.233 175.08 574.703 176.74 574.703 180.06V189H571.973V172.56H574.703V175.23ZM584.574 169.89C584.054 169.89 583.614 169.71 583.254 169.35C582.894 168.99 582.714 168.55 582.714 168.03C582.714 167.51 582.894 167.07 583.254 166.71C583.614 166.35 584.054 166.17 584.574 166.17C585.074 166.17 585.494 166.35 585.834 166.71C586.194 167.07 586.374 167.51 586.374 168.03C586.374 168.55 586.194 168.99 585.834 169.35C585.494 169.71 585.074 169.89 584.574 169.89ZM585.894 172.56V189H583.164V172.56H585.894ZM593.277 175.59C593.817 174.65 594.617 173.87 595.677 173.25C596.757 172.61 598.007 172.29 599.427 172.29C600.887 172.29 602.207 172.64 603.387 173.34C604.587 174.04 605.527 175.03 606.207 176.31C606.887 177.57 607.227 179.04 607.227 180.72C607.227 182.38 606.887 183.86 606.207 185.16C605.527 186.46 604.587 187.47 603.387 188.19C602.207 188.91 600.887 189.27 599.427 189.27C598.027 189.27 596.787 188.96 595.707 188.34C594.647 187.7 593.837 186.91 593.277 185.97V196.8H590.547V172.56H593.277V175.59ZM604.437 180.72C604.437 179.48 604.187 178.4 603.687 177.48C603.187 176.56 602.507 175.86 601.647 175.38C600.807 174.9 599.877 174.66 598.857 174.66C597.857 174.66 596.927 174.91 596.067 175.41C595.227 175.89 594.547 176.6 594.027 177.54C593.527 178.46 593.277 179.53 593.277 180.75C593.277 181.99 593.527 183.08 594.027 184.02C594.547 184.94 595.227 185.65 596.067 186.15C596.927 186.63 597.857 186.87 598.857 186.87C599.877 186.87 600.807 186.63 601.647 186.15C602.507 185.65 603.187 184.94 603.687 184.02C604.187 183.08 604.437 181.98 604.437 180.72ZM614.151 174.81V184.5C614.151 185.3 614.321 185.87 614.661 186.21C615.001 186.53 615.591 186.69 616.431 186.69H618.441V189H615.981C614.461 189 613.321 188.65 612.561 187.95C611.801 187.25 611.421 186.1 611.421 184.5V174.81H609.291V172.56H611.421V168.42H614.151V172.56H618.441V174.81H614.151Z" fill="#BFD1E2"/>
<path d="M724.903 174.21C724.903 175.95 724.303 177.4 723.103 178.56C721.923 179.7 720.113 180.27 717.673 180.27H713.653V189H710.923V168.09H717.673C720.033 168.09 721.823 168.66 723.043 169.8C724.283 170.94 724.903 172.41 724.903 174.21ZM717.673 178.02C719.193 178.02 720.313 177.69 721.033 177.03C721.753 176.37 722.113 175.43 722.113 174.21C722.113 171.63 720.633 170.34 717.673 170.34H713.653V178.02H717.673ZM742.456 172.56L732.556 196.74H729.736L732.976 188.82L726.346 172.56H729.376L734.536 185.88L739.636 172.56H742.456ZM748.531 174.81V184.5C748.531 185.3 748.701 185.87 749.041 186.21C749.381 186.53 749.971 186.69 750.811 186.69H752.821V189H750.361C748.841 189 747.701 188.65 746.941 187.95C746.181 187.25 745.801 186.1 745.801 184.5V174.81H743.671V172.56H745.801V168.42H748.531V172.56H752.821V174.81H748.531ZM764.288 172.26C765.528 172.26 766.648 172.53 767.648 173.07C768.648 173.59 769.428 174.38 769.988 175.44C770.568 176.5 770.858 177.79 770.858 179.31V189H768.158V179.7C768.158 178.06 767.748 176.81 766.928 175.95C766.108 175.07 764.988 174.63 763.568 174.63C762.128 174.63 760.978 175.08 760.118 175.98C759.278 176.88 758.858 178.19 758.858 179.91V189H756.128V166.8H758.858V174.9C759.398 174.06 760.138 173.41 761.078 172.95C762.038 172.49 763.108 172.26 764.288 172.26ZM782.488 189.27C780.948 189.27 779.548 188.92 778.288 188.22C777.048 187.52 776.068 186.53 775.348 185.25C774.648 183.95 774.298 182.45 774.298 180.75C774.298 179.07 774.658 177.59 775.378 176.31C776.118 175.01 777.118 174.02 778.378 173.34C779.638 172.64 781.048 172.29 782.608 172.29C784.168 172.29 785.578 172.64 786.838 173.34C788.098 174.02 789.088 175 789.808 176.28C790.548 177.56 790.918 179.05 790.918 180.75C790.918 182.45 790.538 183.95 789.778 185.25C789.038 186.53 788.028 187.52 786.748 188.22C785.468 188.92 784.048 189.27 782.488 189.27ZM782.488 186.87C783.468 186.87 784.388 186.64 785.248 186.18C786.108 185.72 786.798 185.03 787.318 184.11C787.858 183.19 788.128 182.07 788.128 180.75C788.128 179.43 787.868 178.31 787.348 177.39C786.828 176.47 786.148 175.79 785.308 175.35C784.468 174.89 783.558 174.66 782.578 174.66C781.578 174.66 780.658 174.89 779.818 175.35C778.998 175.79 778.338 176.47 777.838 177.39C777.338 178.31 777.088 179.43 777.088 180.75C777.088 182.09 777.328 183.22 777.808 184.14C778.308 185.06 778.968 185.75 779.788 186.21C780.608 186.65 781.508 186.87 782.488 186.87ZM802.517 172.26C804.517 172.26 806.137 172.87 807.377 174.09C808.617 175.29 809.237 177.03 809.237 179.31V189H806.537V179.7C806.537 178.06 806.127 176.81 805.307 175.95C804.487 175.07 803.367 174.63 801.947 174.63C800.507 174.63 799.357 175.08 798.497 175.98C797.657 176.88 797.237 178.19 797.237 179.91V189H794.507V172.56H797.237V174.9C797.777 174.06 798.507 173.41 799.427 172.95C800.367 172.49 801.397 172.26 802.517 172.26Z" fill="#BFD1E2"/>
<path d="M950.18 189L945.2 180.45H941.9V189H939.17V168.09H945.92C947.5 168.09 948.83 168.36 949.91 168.9C951.01 169.44 951.83 170.17 952.37 171.09C952.91 172.01 953.18 173.06 953.18 174.24C953.18 175.68 952.76 176.95 951.92 178.05C951.1 179.15 949.86 179.88 948.2 180.24L953.45 189H950.18ZM941.9 178.26H945.92C947.4 178.26 948.51 177.9 949.25 177.18C949.99 176.44 950.36 175.46 950.36 174.24C950.36 173 949.99 172.04 949.25 171.36C948.53 170.68 947.42 170.34 945.92 170.34H941.9V178.26ZM972.422 180.15C972.422 180.67 972.392 181.22 972.332 181.8H959.192C959.292 183.42 959.842 184.69 960.842 185.61C961.862 186.51 963.092 186.96 964.532 186.96C965.712 186.96 966.692 186.69 967.472 186.15C968.272 185.59 968.832 184.85 969.152 183.93H972.092C971.652 185.51 970.772 186.8 969.452 187.8C968.132 188.78 966.492 189.27 964.532 189.27C962.972 189.27 961.572 188.92 960.332 188.22C959.112 187.52 958.152 186.53 957.452 185.25C956.752 183.95 956.402 182.45 956.402 180.75C956.402 179.05 956.742 177.56 957.422 176.28C958.102 175 959.052 174.02 960.272 173.34C961.512 172.64 962.932 172.29 964.532 172.29C966.092 172.29 967.472 172.63 968.672 173.31C969.872 173.99 970.792 174.93 971.432 176.13C972.092 177.31 972.422 178.65 972.422 180.15ZM969.602 179.58C969.602 178.54 969.372 177.65 968.912 176.91C968.452 176.15 967.822 175.58 967.022 175.2C966.242 174.8 965.372 174.6 964.412 174.6C963.032 174.6 961.852 175.04 960.872 175.92C959.912 176.8 959.362 178.02 959.222 179.58H969.602ZM975.006 180.72C975.006 179.04 975.346 177.57 976.026 176.31C976.706 175.03 977.636 174.04 978.816 173.34C980.016 172.64 981.346 172.29 982.806 172.29C984.246 172.29 985.496 172.6 986.556 173.22C987.616 173.84 988.406 174.62 988.926 175.56V172.56H991.686V189H988.926V185.94C988.386 186.9 987.576 187.7 986.496 188.34C985.436 188.96 984.196 189.27 982.776 189.27C981.316 189.27 979.996 188.91 978.816 188.19C977.636 187.47 976.706 186.46 976.026 185.16C975.346 183.86 975.006 182.38 975.006 180.72ZM988.926 180.75C988.926 179.51 988.676 178.43 988.176 177.51C987.676 176.59 986.996 175.89 986.136 175.41C985.296 174.91 984.366 174.66 983.346 174.66C982.326 174.66 981.396 174.9 980.556 175.38C979.716 175.86 979.046 176.56 978.546 177.48C978.046 178.4 977.796 179.48 977.796 180.72C977.796 181.98 978.046 183.08 978.546 184.02C979.046 184.94 979.716 185.65 980.556 186.15C981.396 186.63 982.326 186.87 983.346 186.87C984.366 186.87 985.296 186.63 986.136 186.15C986.996 185.65 987.676 184.94 988.176 184.02C988.676 183.08 988.926 181.99 988.926 180.75ZM995.279 180.75C995.279 179.05 995.619 177.57 996.299 176.31C996.979 175.03 997.919 174.04 999.119 173.34C1000.34 172.64 1001.73 172.29 1003.29 172.29C1005.31 172.29 1006.97 172.78 1008.27 173.76C1009.59 174.74 1010.46 176.1 1010.88 177.84H1007.94C1007.66 176.84 1007.11 176.05 1006.29 175.47C1005.49 174.89 1004.49 174.6 1003.29 174.6C1001.73 174.6 1000.47 175.14 999.509 176.22C998.549 177.28 998.069 178.79 998.069 180.75C998.069 182.73 998.549 184.26 999.509 185.34C1000.47 186.42 1001.73 186.96 1003.29 186.96C1004.49 186.96 1005.49 186.68 1006.29 186.12C1007.09 185.56 1007.64 184.76 1007.94 183.72H1010.88C1010.44 185.4 1009.56 186.75 1008.24 187.77C1006.92 188.77 1005.27 189.27 1003.29 189.27C1001.73 189.27 1000.34 188.92 999.119 188.22C997.919 187.52 996.979 186.53 996.299 185.25C995.619 183.97 995.279 182.47 995.279 180.75ZM1017.85 174.81V184.5C1017.85 185.3 1018.02 185.87 1018.36 186.21C1018.7 186.53 1019.29 186.69 1020.13 186.69H1022.14V189H1019.68C1018.16 189 1017.02 188.65 1016.26 187.95C1015.5 187.25 1015.12 186.1 1015.12 184.5V174.81H1012.99V172.56H1015.12V168.42H1017.85V172.56H1022.14V174.81H1017.85Z" fill="#BFD1E2"/>
<path d="M1197.32 174.15C1196.74 172.93 1195.9 171.99 1194.8 171.33C1193.7 170.65 1192.42 170.31 1190.96 170.31C1189.5 170.31 1188.18 170.65 1187 171.33C1185.84 171.99 1184.92 172.95 1184.24 174.21C1183.58 175.45 1183.25 176.89 1183.25 178.53C1183.25 180.17 1183.58 181.61 1184.24 182.85C1184.92 184.09 1185.84 185.05 1187 185.73C1188.18 186.39 1189.5 186.72 1190.96 186.72C1193 186.72 1194.68 186.11 1196 184.89C1197.32 183.67 1198.09 182.02 1198.31 179.94H1189.97V177.72H1201.22V179.82C1201.06 181.54 1200.52 183.12 1199.6 184.56C1198.68 185.98 1197.47 187.11 1195.97 187.95C1194.47 188.77 1192.8 189.18 1190.96 189.18C1189.02 189.18 1187.25 188.73 1185.65 187.83C1184.05 186.91 1182.78 185.64 1181.84 184.02C1180.92 182.4 1180.46 180.57 1180.46 178.53C1180.46 176.49 1180.92 174.66 1181.84 173.04C1182.78 171.4 1184.05 170.13 1185.65 169.23C1187.25 168.31 1189.02 167.85 1190.96 167.85C1193.18 167.85 1195.14 168.4 1196.84 169.5C1198.56 170.6 1199.81 172.15 1200.59 174.15H1197.32ZM1206.24 169.89C1205.72 169.89 1205.28 169.71 1204.92 169.35C1204.56 168.99 1204.38 168.55 1204.38 168.03C1204.38 167.51 1204.56 167.07 1204.92 166.71C1205.28 166.35 1205.72 166.17 1206.24 166.17C1206.74 166.17 1207.16 166.35 1207.5 166.71C1207.86 167.07 1208.04 167.51 1208.04 168.03C1208.04 168.55 1207.86 168.99 1207.5 169.35C1207.16 169.71 1206.74 169.89 1206.24 169.89ZM1207.56 172.56V189H1204.83V172.56H1207.56ZM1215.54 174.81V184.5C1215.54 185.3 1215.71 185.87 1216.05 186.21C1216.39 186.53 1216.98 186.69 1217.82 186.69H1219.83V189H1217.37C1215.85 189 1214.71 188.65 1213.95 187.95C1213.19 187.25 1212.81 186.1 1212.81 184.5V174.81H1210.68V172.56H1212.81V168.42H1215.54V172.56H1219.83V174.81H1215.54Z" fill="#BFD1E2"/>
<path d="M50.5039 419.53C50.5039 417.49 50.9639 415.66 51.8839 414.04C52.8039 412.4 54.0539 411.12 55.6339 410.2C57.2339 409.28 59.0039 408.82 60.9439 408.82C63.2239 408.82 65.2139 409.37 66.9139 410.47C68.6139 411.57 69.8539 413.13 70.6339 415.15H67.3639C66.7839 413.89 65.9439 412.92 64.8439 412.24C63.7639 411.56 62.4639 411.22 60.9439 411.22C59.4839 411.22 58.1739 411.56 57.0139 412.24C55.8539 412.92 54.9439 413.89 54.2839 415.15C53.6239 416.39 53.2939 417.85 53.2939 419.53C53.2939 421.19 53.6239 422.65 54.2839 423.91C54.9439 425.15 55.8539 426.11 57.0139 426.79C58.1739 427.47 59.4839 427.81 60.9439 427.81C62.4639 427.81 63.7639 427.48 64.8439 426.82C65.9439 426.14 66.7839 425.17 67.3639 423.91H70.6339C69.8539 425.91 68.6139 427.46 66.9139 428.56C65.2139 429.64 63.2239 430.18 60.9439 430.18C59.0039 430.18 57.2339 429.73 55.6339 428.83C54.0539 427.91 52.8039 426.64 51.8839 425.02C50.9639 423.4 50.5039 421.57 50.5039 419.53ZM84.8977 401.74L76.6777 435.1H73.9777L82.1677 401.74H84.8977ZM87.9453 419.53C87.9453 417.49 88.4053 415.66 89.3253 414.04C90.2453 412.4 91.4953 411.12 93.0753 410.2C94.6753 409.28 96.4453 408.82 98.3853 408.82C100.665 408.82 102.655 409.37 104.355 410.47C106.055 411.57 107.295 413.13 108.075 415.15H104.805C104.225 413.89 103.385 412.92 102.285 412.24C101.205 411.56 99.9053 411.22 98.3853 411.22C96.9253 411.22 95.6153 411.56 94.4553 412.24C93.2953 412.92 92.3853 413.89 91.7253 415.15C91.0653 416.39 90.7353 417.85 90.7353 419.53C90.7353 421.19 91.0653 422.65 91.7253 423.91C92.3853 425.15 93.2953 426.11 94.4553 426.79C95.6153 427.47 96.9253 427.81 98.3853 427.81C99.9053 427.81 101.205 427.48 102.285 426.82C103.385 426.14 104.225 425.17 104.805 423.91H108.075C107.295 425.91 106.055 427.46 104.355 428.56C102.655 429.64 100.665 430.18 98.3853 430.18C96.4453 430.18 94.6753 429.73 93.0753 428.83C91.4953 427.91 90.2453 426.64 89.3253 425.02C88.4053 423.4 87.9453 421.57 87.9453 419.53ZM127.739 420.19H121.349V426.67H118.799V420.19H112.439V417.88H118.799V411.37H121.349V417.88H127.739V420.19ZM148.218 420.19H141.828V426.67H139.278V420.19H132.918V417.88H139.278V411.37H141.828V417.88H148.218V420.19Z" fill="#BFD1E2"/>
<g clip-path="url(#clip0_11_148)">
<path fill-rule="evenodd" clip-rule="evenodd" d="M150.017 336.25C150.823 334.865 151.32 333.293 151.32 331.889V283.111C151.32 281.707 150.823 280.144 150.017 278.75L100.16 307.5L150.017 336.25Z" fill="#7CAFD1"/>
<path fill-rule="evenodd" clip-rule="evenodd" d="M104.592 363.942L146.888 339.554C148.106 338.852 149.212 337.635 150.017 336.25L100.16 307.5L50.3025 336.25C51.1083 337.635 52.214 338.852 53.432 339.554L95.7279 363.942C98.1641 365.346 102.146 365.346 104.592 363.942Z" fill="#7CAFD1"/>
<path fill-rule="evenodd" clip-rule="evenodd" d="M150.017 278.75C149.211 277.365 148.106 276.148 146.888 275.446L104.592 251.058C102.156 249.654 98.1641 249.654 95.7279 251.058L53.432 275.446C50.9958 276.85 49 280.304 49 283.111V331.889C49 333.293 49.4966 334.856 50.3024 336.25L100.16 307.5L150.017 278.75Z" fill="#7CAFD1"/>
<path fill-rule="evenodd" clip-rule="evenodd" d="M100.16 341.566C81.3543 341.566 66.0532 326.283 66.0532 307.5C66.0532 288.717 81.3543 273.434 100.16 273.434C112.294 273.434 123.613 279.957 129.694 290.458L114.936 298.993C111.891 293.733 106.232 290.477 100.16 290.477C90.7524 290.477 83.1065 298.113 83.1065 307.509C83.1065 316.896 90.7524 324.542 100.16 324.542C106.232 324.542 111.891 321.276 114.936 316.026L129.694 324.561C123.613 335.043 112.294 341.566 100.16 341.566Z" fill="#121824"/>
</g>
<path d="M294.326 430.21C292.946 430.21 291.706 429.97 290.606 429.49C289.526 428.99 288.676 428.31 288.056 427.45C287.436 426.57 287.116 425.56 287.096 424.42H290.006C290.106 425.4 290.506 426.23 291.206 426.91C291.926 427.57 292.966 427.9 294.326 427.9C295.626 427.9 296.646 427.58 297.386 426.94C298.146 426.28 298.526 425.44 298.526 424.42C298.526 423.62 298.306 422.97 297.866 422.47C297.426 421.97 296.876 421.59 296.216 421.33C295.556 421.07 294.666 420.79 293.546 420.49C292.166 420.13 291.056 419.77 290.216 419.41C289.396 419.05 288.686 418.49 288.086 417.73C287.506 416.95 287.216 415.91 287.216 414.61C287.216 413.47 287.506 412.46 288.086 411.58C288.666 410.7 289.476 410.02 290.516 409.54C291.576 409.06 292.786 408.82 294.146 408.82C296.106 408.82 297.706 409.31 298.946 410.29C300.206 411.27 300.916 412.57 301.076 414.19H298.076C297.976 413.39 297.556 412.69 296.816 412.09C296.076 411.47 295.096 411.16 293.876 411.16C292.736 411.16 291.806 411.46 291.086 412.06C290.366 412.64 290.006 413.46 290.006 414.52C290.006 415.28 290.216 415.9 290.636 416.38C291.076 416.86 291.606 417.23 292.226 417.49C292.866 417.73 293.756 418.01 294.896 418.33C296.276 418.71 297.386 419.09 298.226 419.47C299.066 419.83 299.786 420.4 300.386 421.18C300.986 421.94 301.286 422.98 301.286 424.3C301.286 425.32 301.016 426.28 300.476 427.18C299.936 428.08 299.136 428.81 298.076 429.37C297.016 429.93 295.766 430.21 294.326 430.21ZM304.283 421.72C304.283 420.04 304.623 418.57 305.303 417.31C305.983 416.03 306.913 415.04 308.093 414.34C309.293 413.64 310.623 413.29 312.083 413.29C313.523 413.29 314.773 413.6 315.833 414.22C316.893 414.84 317.683 415.62 318.203 416.56V413.56H320.963V430H318.203V426.94C317.663 427.9 316.853 428.7 315.773 429.34C314.713 429.96 313.473 430.27 312.053 430.27C310.593 430.27 309.273 429.91 308.093 429.19C306.913 428.47 305.983 427.46 305.303 426.16C304.623 424.86 304.283 423.38 304.283 421.72ZM318.203 421.75C318.203 420.51 317.953 419.43 317.453 418.51C316.953 417.59 316.273 416.89 315.413 416.41C314.573 415.91 313.643 415.66 312.623 415.66C311.603 415.66 310.673 415.9 309.833 416.38C308.993 416.86 308.323 417.56 307.823 418.48C307.323 419.4 307.073 420.48 307.073 421.72C307.073 422.98 307.323 424.08 307.823 425.02C308.323 425.94 308.993 426.65 309.833 427.15C310.673 427.63 311.603 427.87 312.623 427.87C313.643 427.87 314.573 427.63 315.413 427.15C316.273 426.65 316.953 425.94 317.453 425.02C317.953 424.08 318.203 422.99 318.203 421.75ZM331.397 430.27C330.137 430.27 329.007 430.06 328.007 429.64C327.007 429.2 326.217 428.6 325.637 427.84C325.057 427.06 324.737 426.17 324.677 425.17H327.497C327.577 425.99 327.957 426.66 328.637 427.18C329.337 427.7 330.247 427.96 331.367 427.96C332.407 427.96 333.227 427.73 333.827 427.27C334.427 426.81 334.727 426.23 334.727 425.53C334.727 424.81 334.407 424.28 333.767 423.94C333.127 423.58 332.137 423.23 330.797 422.89C329.577 422.57 328.577 422.25 327.797 421.93C327.037 421.59 326.377 421.1 325.817 420.46C325.277 419.8 325.007 418.94 325.007 417.88C325.007 417.04 325.257 416.27 325.757 415.57C326.257 414.87 326.967 414.32 327.887 413.92C328.807 413.5 329.857 413.29 331.037 413.29C332.857 413.29 334.327 413.75 335.447 414.67C336.567 415.59 337.167 416.85 337.247 418.45H334.517C334.457 417.59 334.107 416.9 333.467 416.38C332.847 415.86 332.007 415.6 330.947 415.6C329.967 415.6 329.187 415.81 328.607 416.23C328.027 416.65 327.737 417.2 327.737 417.88C327.737 418.42 327.907 418.87 328.247 419.23C328.607 419.57 329.047 419.85 329.567 420.07C330.107 420.27 330.847 420.5 331.787 420.76C332.967 421.08 333.927 421.4 334.667 421.72C335.407 422.02 336.037 422.48 336.557 423.1C337.097 423.72 337.377 424.53 337.397 425.53C337.397 426.43 337.147 427.24 336.647 427.96C336.147 428.68 335.437 429.25 334.517 429.67C333.617 430.07 332.577 430.27 331.397 430.27ZM347.07 430.27C345.81 430.27 344.68 430.06 343.68 429.64C342.68 429.2 341.89 428.6 341.31 427.84C340.73 427.06 340.41 426.17 340.35 425.17H343.17C343.25 425.99 343.63 426.66 344.31 427.18C345.01 427.7 345.92 427.96 347.04 427.96C348.08 427.96 348.9 427.73 349.5 427.27C350.1 426.81 350.4 426.23 350.4 425.53C350.4 424.81 350.08 424.28 349.44 423.94C348.8 423.58 347.81 423.23 346.47 422.89C345.25 422.57 344.25 422.25 343.47 421.93C342.71 421.59 342.05 421.1 341.49 420.46C340.95 419.8 340.68 418.94 340.68 417.88C340.68 417.04 340.93 416.27 341.43 415.57C341.93 414.87 342.64 414.32 343.56 413.92C344.48 413.5 345.53 413.29 346.71 413.29C348.53 413.29 350 413.75 351.12 414.67C352.24 415.59 352.84 416.85 352.92 418.45H350.19C350.13 417.59 349.78 416.9 349.14 416.38C348.52 415.86 347.68 415.6 346.62 415.6C345.64 415.6 344.86 415.81 344.28 416.23C343.7 416.65 343.41 417.2 343.41 417.88C343.41 418.42 343.58 418.87 343.92 419.23C344.28 419.57 344.72 419.85 345.24 420.07C345.78 420.27 346.52 420.5 347.46 420.76C348.64 421.08 349.6 421.4 350.34 421.72C351.08 422.02 351.71 422.48 352.23 423.1C352.77 423.72 353.05 424.53 353.07 425.53C353.07 426.43 352.82 427.24 352.32 427.96C351.82 428.68 351.11 429.25 350.19 429.67C349.29 430.07 348.25 430.27 347.07 430.27Z" fill="#BFD1E2"/>
<path d="M521.84 430.21C520.46 430.21 519.22 429.97 518.12 429.49C517.04 428.99 516.19 428.31 515.57 427.45C514.95 426.57 514.63 425.56 514.61 424.42H517.52C517.62 425.4 518.02 426.23 518.72 426.91C519.44 427.57 520.48 427.9 521.84 427.9C523.14 427.9 524.16 427.58 524.9 426.94C525.66 426.28 526.04 425.44 526.04 424.42C526.04 423.62 525.82 422.97 525.38 422.47C524.94 421.97 524.39 421.59 523.73 421.33C523.07 421.07 522.18 420.79 521.06 420.49C519.68 420.13 518.57 419.77 517.73 419.41C516.91 419.05 516.2 418.49 515.6 417.73C515.02 416.95 514.73 415.91 514.73 414.61C514.73 413.47 515.02 412.46 515.6 411.58C516.18 410.7 516.99 410.02 518.03 409.54C519.09 409.06 520.3 408.82 521.66 408.82C523.62 408.82 525.22 409.31 526.46 410.29C527.72 411.27 528.43 412.57 528.59 414.19H525.59C525.49 413.39 525.07 412.69 524.33 412.09C523.59 411.47 522.61 411.16 521.39 411.16C520.25 411.16 519.32 411.46 518.6 412.06C517.88 412.64 517.52 413.46 517.52 414.52C517.52 415.28 517.73 415.9 518.15 416.38C518.59 416.86 519.12 417.23 519.74 417.49C520.38 417.73 521.27 418.01 522.41 418.33C523.79 418.71 524.9 419.09 525.74 419.47C526.58 419.83 527.3 420.4 527.9 421.18C528.5 421.94 528.8 422.98 528.8 424.3C528.8 425.32 528.53 426.28 527.99 427.18C527.45 428.08 526.65 428.81 525.59 429.37C524.53 429.93 523.28 430.21 521.84 430.21ZM549.588 433.96L545.418 429.79C544.398 430.07 543.358 430.21 542.298 430.21C540.358 430.21 538.588 429.76 536.988 428.86C535.388 427.94 534.118 426.67 533.178 425.05C532.258 423.41 531.798 421.57 531.798 419.53C531.798 417.49 532.258 415.66 533.178 414.04C534.118 412.4 535.388 411.13 536.988 410.23C538.588 409.31 540.358 408.85 542.298 408.85C544.258 408.85 546.038 409.31 547.638 410.23C549.238 411.13 550.498 412.39 551.418 414.01C552.338 415.63 552.798 417.47 552.798 419.53C552.798 421.53 552.358 423.33 551.478 424.93C550.598 426.53 549.388 427.79 547.848 428.71L553.128 433.96H549.588ZM534.588 419.53C534.588 421.19 534.918 422.65 535.578 423.91C536.258 425.17 537.178 426.14 538.338 426.82C539.518 427.5 540.838 427.84 542.298 427.84C543.758 427.84 545.068 427.5 546.228 426.82C547.408 426.14 548.328 425.17 548.988 423.91C549.668 422.65 550.008 421.19 550.008 419.53C550.008 417.85 549.668 416.39 548.988 415.15C548.328 413.89 547.418 412.92 546.258 412.24C545.098 411.56 543.778 411.22 542.298 411.22C540.818 411.22 539.498 411.56 538.338 412.24C537.178 412.92 536.258 413.89 535.578 415.15C534.918 416.39 534.588 417.85 534.588 419.53ZM559.19 427.78H566.51V430H556.46V409.09H559.19V427.78Z" fill="#BFD1E2"/>
<path d="M683.218 409.09L675.328 430H672.178L664.288 409.09H667.198L673.768 427.12L680.338 409.09H683.218ZM687.621 410.89C687.101 410.89 686.661 410.71 686.301 410.35C685.941 409.99 685.761 409.55 685.761 409.03C685.761 408.51 685.941 408.07 686.301 407.71C686.661 407.35 687.101 407.17 687.621 407.17C688.121 407.17 688.541 407.35 688.881 407.71C689.241 408.07 689.421 408.51 689.421 409.03C689.421 409.55 689.241 409.99 688.881 410.35C688.541 410.71 688.121 410.89 687.621 410.89ZM688.941 413.56V430H686.211V413.56H688.941ZM699.414 430.27C698.154 430.27 697.024 430.06 696.024 429.64C695.024 429.2 694.234 428.6 693.654 427.84C693.074 427.06 692.754 426.17 692.694 425.17H695.514C695.594 425.99 695.974 426.66 696.654 427.18C697.354 427.7 698.264 427.96 699.384 427.96C700.424 427.96 701.244 427.73 701.844 427.27C702.444 426.81 702.744 426.23 702.744 425.53C702.744 424.81 702.424 424.28 701.784 423.94C701.144 423.58 700.154 423.23 698.814 422.89C697.594 422.57 696.594 422.25 695.814 421.93C695.054 421.59 694.394 421.1 693.834 420.46C693.294 419.8 693.024 418.94 693.024 417.88C693.024 417.04 693.274 416.27 693.774 415.57C694.274 414.87 694.984 414.32 695.904 413.92C696.824 413.5 697.874 413.29 699.054 413.29C700.874 413.29 702.344 413.75 703.464 414.67C704.584 415.59 705.184 416.85 705.264 418.45H702.534C702.474 417.59 702.124 416.9 701.484 416.38C700.864 415.86 700.024 415.6 698.964 415.6C697.984 415.6 697.204 415.81 696.624 416.23C696.044 416.65 695.754 417.2 695.754 417.88C695.754 418.42 695.924 418.87 696.264 419.23C696.624 419.57 697.064 419.85 697.584 420.07C698.124 420.27 698.864 420.5 699.804 420.76C700.984 421.08 701.944 421.4 702.684 421.72C703.424 422.02 704.054 422.48 704.574 423.1C705.114 423.72 705.394 424.53 705.414 425.53C705.414 426.43 705.164 427.24 704.664 427.96C704.164 428.68 703.454 429.25 702.534 429.67C701.634 430.07 700.594 430.27 699.414 430.27ZM723.848 413.56V430H721.118V427.57C720.598 428.41 719.868 429.07 718.928 429.55C718.008 430.01 716.988 430.24 715.868 430.24C714.588 430.24 713.438 429.98 712.418 429.46C711.398 428.92 710.588 428.12 709.988 427.06C709.408 426 709.118 424.71 709.118 423.19V413.56H711.818V422.83C711.818 424.45 712.228 425.7 713.048 426.58C713.868 427.44 714.988 427.87 716.408 427.87C717.868 427.87 719.018 427.42 719.858 426.52C720.698 425.62 721.118 424.31 721.118 422.59V413.56H723.848ZM727.437 421.72C727.437 420.04 727.777 418.57 728.457 417.31C729.137 416.03 730.067 415.04 731.247 414.34C732.447 413.64 733.777 413.29 735.237 413.29C736.677 413.29 737.927 413.6 738.987 414.22C740.047 414.84 740.837 415.62 741.357 416.56V413.56H744.117V430H741.357V426.94C740.817 427.9 740.007 428.7 738.927 429.34C737.867 429.96 736.627 430.27 735.207 430.27C733.747 430.27 732.427 429.91 731.247 429.19C730.067 428.47 729.137 427.46 728.457 426.16C727.777 424.86 727.437 423.38 727.437 421.72ZM741.357 421.75C741.357 420.51 741.107 419.43 740.607 418.51C740.107 417.59 739.427 416.89 738.567 416.41C737.727 415.91 736.797 415.66 735.777 415.66C734.757 415.66 733.827 415.9 732.987 416.38C732.147 416.86 731.477 417.56 730.977 418.48C730.477 419.4 730.227 420.48 730.227 421.72C730.227 422.98 730.477 424.08 730.977 425.02C731.477 425.94 732.147 426.65 732.987 427.15C733.827 427.63 734.757 427.87 735.777 427.87C736.797 427.87 737.727 427.63 738.567 427.15C739.427 426.65 740.107 425.94 740.607 425.02C741.107 424.08 741.357 422.99 741.357 421.75ZM751.461 407.8V430H748.731V407.8H751.461ZM770.742 430.21C769.362 430.21 768.122 429.97 767.022 429.49C765.942 428.99 765.092 428.31 764.472 427.45C763.852 426.57 763.532 425.56 763.512 424.42H766.422C766.522 425.4 766.922 426.23 767.622 426.91C768.342 427.57 769.382 427.9 770.742 427.9C772.042 427.9 773.062 427.58 773.802 426.94C774.562 426.28 774.942 425.44 774.942 424.42C774.942 423.62 774.722 422.97 774.282 422.47C773.842 421.97 773.292 421.59 772.632 421.33C771.972 421.07 771.082 420.79 769.962 420.49C768.582 420.13 767.472 419.77 766.632 419.41C765.812 419.05 765.102 418.49 764.502 417.73C763.922 416.95 763.632 415.91 763.632 414.61C763.632 413.47 763.922 412.46 764.502 411.58C765.082 410.7 765.892 410.02 766.932 409.54C767.992 409.06 769.202 408.82 770.562 408.82C772.522 408.82 774.122 409.31 775.362 410.29C776.622 411.27 777.332 412.57 777.492 414.19H774.492C774.392 413.39 773.972 412.69 773.232 412.09C772.492 411.47 771.512 411.16 770.292 411.16C769.152 411.16 768.222 411.46 767.502 412.06C766.782 412.64 766.422 413.46 766.422 414.52C766.422 415.28 766.632 415.9 767.052 416.38C767.492 416.86 768.022 417.23 768.642 417.49C769.282 417.73 770.172 418.01 771.312 418.33C772.692 418.71 773.802 419.09 774.642 419.47C775.482 419.83 776.202 420.4 776.802 421.18C777.402 421.94 777.702 422.98 777.702 424.3C777.702 425.32 777.432 426.28 776.892 427.18C776.352 428.08 775.552 428.81 774.492 429.37C773.432 429.93 772.182 430.21 770.742 430.21ZM785.049 415.81V425.5C785.049 426.3 785.219 426.87 785.559 427.21C785.899 427.53 786.489 427.69 787.329 427.69H789.339V430H786.879C785.359 430 784.219 429.65 783.459 428.95C782.699 428.25 782.319 427.1 782.319 425.5V415.81H780.189V413.56H782.319V409.42H785.049V413.56H789.339V415.81H785.049ZM807.227 413.56V430H804.497V427.57C803.977 428.41 803.247 429.07 802.307 429.55C801.387 430.01 800.367 430.24 799.247 430.24C797.967 430.24 796.817 429.98 795.797 429.46C794.777 428.92 793.967 428.12 793.367 427.06C792.787 426 792.497 424.71 792.497 423.19V413.56H795.197V422.83C795.197 424.45 795.607 425.7 796.427 426.58C797.247 427.44 798.367 427.87 799.787 427.87C801.247 427.87 802.397 427.42 803.237 426.52C804.077 425.62 804.497 424.31 804.497 422.59V413.56H807.227ZM810.816 421.72C810.816 420.04 811.156 418.57 811.836 417.31C812.516 416.03 813.446 415.04 814.626 414.34C815.826 413.64 817.166 413.29 818.646 413.29C819.926 413.29 821.116 413.59 822.216 414.19C823.316 414.77 824.156 415.54 824.736 416.5V407.8H827.496V430H824.736V426.91C824.196 427.89 823.396 428.7 822.336 429.34C821.276 429.96 820.036 430.27 818.616 430.27C817.156 430.27 815.826 429.91 814.626 429.19C813.446 428.47 812.516 427.46 811.836 426.16C811.156 424.86 810.816 423.38 810.816 421.72ZM824.736 421.75C824.736 420.51 824.486 419.43 823.986 418.51C823.486 417.59 822.806 416.89 821.946 416.41C821.106 415.91 820.176 415.66 819.156 415.66C818.136 415.66 817.206 415.9 816.366 416.38C815.526 416.86 814.856 417.56 814.356 418.48C813.856 419.4 813.606 420.48 813.606 421.72C813.606 422.98 813.856 424.08 814.356 425.02C814.856 425.94 815.526 426.65 816.366 427.15C817.206 427.63 818.136 427.87 819.156 427.87C820.176 427.87 821.106 427.63 821.946 427.15C822.806 426.65 823.486 425.94 823.986 425.02C824.486 424.08 824.736 422.99 824.736 421.75ZM833.52 410.89C833 410.89 832.56 410.71 832.2 410.35C831.84 409.99 831.66 409.55 831.66 409.03C831.66 408.51 831.84 408.07 832.2 407.71C832.56 407.35 833 407.17 833.52 407.17C834.02 407.17 834.44 407.35 834.78 407.71C835.14 408.07 835.32 408.51 835.32 409.03C835.32 409.55 835.14 409.99 834.78 410.35C834.44 410.71 834.02 410.89 833.52 410.89ZM834.84 413.56V430H832.11V413.56H834.84ZM846.663 430.27C845.123 430.27 843.723 429.92 842.463 429.22C841.223 428.52 840.243 427.53 839.523 426.25C838.823 424.95 838.473 423.45 838.473 421.75C838.473 420.07 838.833 418.59 839.553 417.31C840.293 416.01 841.293 415.02 842.553 414.34C843.813 413.64 845.223 413.29 846.783 413.29C848.343 413.29 849.753 413.64 851.013 414.34C852.273 415.02 853.263 416 853.983 417.28C854.723 418.56 855.093 420.05 855.093 421.75C855.093 423.45 854.713 424.95 853.953 426.25C853.213 427.53 852.203 428.52 850.923 429.22C849.643 429.92 848.223 430.27 846.663 430.27ZM846.663 427.87C847.643 427.87 848.563 427.64 849.423 427.18C850.283 426.72 850.973 426.03 851.493 425.11C852.033 424.19 852.303 423.07 852.303 421.75C852.303 420.43 852.043 419.31 851.523 418.39C851.003 417.47 850.323 416.79 849.483 416.35C848.643 415.89 847.733 415.66 846.753 415.66C845.753 415.66 844.833 415.89 843.993 416.35C843.173 416.79 842.513 417.47 842.013 418.39C841.513 419.31 841.263 420.43 841.263 421.75C841.263 423.09 841.503 424.22 841.983 425.14C842.483 426.06 843.143 426.75 843.963 427.21C844.783 427.65 845.683 427.87 846.663 427.87ZM720.67 475.53C720.67 473.49 721.13 471.66 722.05 470.04C722.97 468.4 724.22 467.12 725.8 466.2C727.4 465.28 729.17 464.82 731.11 464.82C733.39 464.82 735.38 465.37 737.08 466.47C738.78 467.57 740.02 469.13 740.8 471.15H737.53C736.95 469.89 736.11 468.92 735.01 468.24C733.93 467.56 732.63 467.22 731.11 467.22C729.65 467.22 728.34 467.56 727.18 468.24C726.02 468.92 725.11 469.89 724.45 471.15C723.79 472.39 723.46 473.85 723.46 475.53C723.46 477.19 723.79 478.65 724.45 479.91C725.11 481.15 726.02 482.11 727.18 482.79C728.34 483.47 729.65 483.81 731.11 483.81C732.63 483.81 733.93 483.48 735.01 482.82C736.11 482.14 736.95 481.17 737.53 479.91H740.8C740.02 481.91 738.78 483.46 737.08 484.56C735.38 485.64 733.39 486.18 731.11 486.18C729.17 486.18 727.4 485.73 725.8 484.83C724.22 483.91 722.97 482.64 722.05 481.02C721.13 479.4 720.67 477.57 720.67 475.53ZM752.034 486.27C750.494 486.27 749.094 485.92 747.834 485.22C746.594 484.52 745.614 483.53 744.894 482.25C744.194 480.95 743.844 479.45 743.844 477.75C743.844 476.07 744.204 474.59 744.924 473.31C745.664 472.01 746.664 471.02 747.924 470.34C749.184 469.64 750.594 469.29 752.154 469.29C753.714 469.29 755.124 469.64 756.384 470.34C757.644 471.02 758.634 472 759.354 473.28C760.094 474.56 760.464 476.05 760.464 477.75C760.464 479.45 760.084 480.95 759.324 482.25C758.584 483.53 757.574 484.52 756.294 485.22C755.014 485.92 753.594 486.27 752.034 486.27ZM752.034 483.87C753.014 483.87 753.934 483.64 754.794 483.18C755.654 482.72 756.344 482.03 756.864 481.11C757.404 480.19 757.674 479.07 757.674 477.75C757.674 476.43 757.414 475.31 756.894 474.39C756.374 473.47 755.694 472.79 754.854 472.35C754.014 471.89 753.104 471.66 752.124 471.66C751.124 471.66 750.204 471.89 749.364 472.35C748.544 472.79 747.884 473.47 747.384 474.39C746.884 475.31 746.634 476.43 746.634 477.75C746.634 479.09 746.874 480.22 747.354 481.14C747.854 482.06 748.514 482.75 749.334 483.21C750.154 483.65 751.054 483.87 752.034 483.87ZM763.033 477.72C763.033 476.04 763.373 474.57 764.053 473.31C764.733 472.03 765.663 471.04 766.843 470.34C768.043 469.64 769.383 469.29 770.863 469.29C772.143 469.29 773.333 469.59 774.433 470.19C775.533 470.77 776.373 471.54 776.953 472.5V463.8H779.713V486H776.953V482.91C776.413 483.89 775.613 484.7 774.553 485.34C773.493 485.96 772.253 486.27 770.833 486.27C769.373 486.27 768.043 485.91 766.843 485.19C765.663 484.47 764.733 483.46 764.053 482.16C763.373 480.86 763.033 479.38 763.033 477.72ZM776.953 477.75C776.953 476.51 776.703 475.43 776.203 474.51C775.703 473.59 775.023 472.89 774.163 472.41C773.323 471.91 772.393 471.66 771.373 471.66C770.353 471.66 769.423 471.9 768.583 472.38C767.743 472.86 767.073 473.56 766.573 474.48C766.073 475.4 765.823 476.48 765.823 477.72C765.823 478.98 766.073 480.08 766.573 481.02C767.073 481.94 767.743 482.65 768.583 483.15C769.423 483.63 770.353 483.87 771.373 483.87C772.393 483.87 773.323 483.63 774.163 483.15C775.023 482.65 775.703 481.94 776.203 481.02C776.703 480.08 776.953 478.99 776.953 477.75ZM799.327 477.15C799.327 477.67 799.297 478.22 799.237 478.8H786.097C786.197 480.42 786.747 481.69 787.747 482.61C788.767 483.51 789.997 483.96 791.437 483.96C792.617 483.96 793.597 483.69 794.377 483.15C795.177 482.59 795.737 481.85 796.057 480.93H798.997C798.557 482.51 797.677 483.8 796.357 484.8C795.037 485.78 793.397 486.27 791.437 486.27C789.877 486.27 788.477 485.92 787.237 485.22C786.017 484.52 785.057 483.53 784.357 482.25C783.657 480.95 783.307 479.45 783.307 477.75C783.307 476.05 783.647 474.56 784.327 473.28C785.007 472 785.957 471.02 787.177 470.34C788.417 469.64 789.837 469.29 791.437 469.29C792.997 469.29 794.377 469.63 795.577 470.31C796.777 470.99 797.697 471.93 798.337 473.13C798.997 474.31 799.327 475.65 799.327 477.15ZM796.507 476.58C796.507 475.54 796.277 474.65 795.817 473.91C795.357 473.15 794.727 472.58 793.927 472.2C793.147 471.8 792.277 471.6 791.317 471.6C789.937 471.6 788.757 472.04 787.777 472.92C786.817 473.8 786.267 475.02 786.127 476.58H796.507Z" fill="#BFD1E2"/>
<path d="M947.152 409.09V411.31H938.062V418.36H945.442V420.58H938.062V430H935.332V409.09H947.152ZM951.86 410.89C951.34 410.89 950.9 410.71 950.54 410.35C950.18 409.99 950 409.55 950 409.03C950 408.51 950.18 408.07 950.54 407.71C950.9 407.35 951.34 407.17 951.86 407.17C952.36 407.17 952.78 407.35 953.12 407.71C953.48 408.07 953.66 408.51 953.66 409.03C953.66 409.55 953.48 409.99 953.12 410.35C952.78 410.71 952.36 410.89 951.86 410.89ZM953.18 413.56V430H950.45V413.56H953.18ZM964.612 413.29C966.032 413.29 967.272 413.6 968.332 414.22C969.412 414.84 970.212 415.62 970.732 416.56V413.56H973.492V430.36C973.492 431.86 973.172 433.19 972.532 434.35C971.892 435.53 970.972 436.45 969.772 437.11C968.592 437.77 967.212 438.1 965.632 438.1C963.472 438.1 961.672 437.59 960.232 436.57C958.792 435.55 957.942 434.16 957.682 432.4H960.382C960.682 433.4 961.302 434.2 962.242 434.8C963.182 435.42 964.312 435.73 965.632 435.73C967.132 435.73 968.352 435.26 969.292 434.32C970.252 433.38 970.732 432.06 970.732 430.36V426.91C970.192 427.87 969.392 428.67 968.332 429.31C967.272 429.95 966.032 430.27 964.612 430.27C963.152 430.27 961.822 429.91 960.622 429.19C959.442 428.47 958.512 427.46 957.832 426.16C957.152 424.86 956.812 423.38 956.812 421.72C956.812 420.04 957.152 418.57 957.832 417.31C958.512 416.03 959.442 415.04 960.622 414.34C961.822 413.64 963.152 413.29 964.612 413.29ZM970.732 421.75C970.732 420.51 970.482 419.43 969.982 418.51C969.482 417.59 968.802 416.89 967.942 416.41C967.102 415.91 966.172 415.66 965.152 415.66C964.132 415.66 963.202 415.9 962.362 416.38C961.522 416.86 960.852 417.56 960.352 418.48C959.852 419.4 959.602 420.48 959.602 421.72C959.602 422.98 959.852 424.08 960.352 425.02C960.852 425.94 961.522 426.65 962.362 427.15C963.202 427.63 964.132 427.87 965.152 427.87C966.172 427.87 967.102 427.63 967.942 427.15C968.802 426.65 969.482 425.94 969.982 425.02C970.482 424.08 970.732 422.99 970.732 421.75ZM997.876 413.26C999.156 413.26 1000.3 413.53 1001.3 414.07C1002.3 414.59 1003.09 415.38 1003.67 416.44C1004.25 417.5 1004.54 418.79 1004.54 420.31V430H1001.84V420.7C1001.84 419.06 1001.43 417.81 1000.61 416.95C999.806 416.07 998.716 415.63 997.336 415.63C995.916 415.63 994.786 416.09 993.946 417.01C993.106 417.91 992.686 419.22 992.686 420.94V430H989.986V420.7C989.986 419.06 989.576 417.81 988.756 416.95C987.956 416.07 986.866 415.63 985.486 415.63C984.066 415.63 982.936 416.09 982.096 417.01C981.256 417.91 980.836 419.22 980.836 420.94V430H978.106V413.56H980.836V415.93C981.376 415.07 982.096 414.41 982.996 413.95C983.916 413.49 984.926 413.26 986.026 413.26C987.406 413.26 988.626 413.57 989.686 414.19C990.746 414.81 991.536 415.72 992.056 416.92C992.516 415.76 993.276 414.86 994.336 414.22C995.396 413.58 996.576 413.26 997.876 413.26ZM1007.99 421.72C1007.99 420.04 1008.33 418.57 1009.01 417.31C1009.69 416.03 1010.62 415.04 1011.8 414.34C1013 413.64 1014.33 413.29 1015.79 413.29C1017.23 413.29 1018.48 413.6 1019.54 414.22C1020.6 414.84 1021.39 415.62 1021.91 416.56V413.56H1024.67V430H1021.91V426.94C1021.37 427.9 1020.56 428.7 1019.48 429.34C1018.42 429.96 1017.18 430.27 1015.76 430.27C1014.3 430.27 1012.98 429.91 1011.8 429.19C1010.62 428.47 1009.69 427.46 1009.01 426.16C1008.33 424.86 1007.99 423.38 1007.99 421.72ZM1021.91 421.75C1021.91 420.51 1021.66 419.43 1021.16 418.51C1020.66 417.59 1019.98 416.89 1019.12 416.41C1018.28 415.91 1017.35 415.66 1016.33 415.66C1015.31 415.66 1014.38 415.9 1013.54 416.38C1012.7 416.86 1012.03 417.56 1011.53 418.48C1011.03 419.4 1010.78 420.48 1010.78 421.72C1010.78 422.98 1011.03 424.08 1011.53 425.02C1012.03 425.94 1012.7 426.65 1013.54 427.15C1014.38 427.63 1015.31 427.87 1016.33 427.87C1017.35 427.87 1018.28 427.63 1019.12 427.15C1019.98 426.65 1020.66 425.94 1021.16 425.02C1021.66 424.08 1021.91 422.99 1021.91 421.75Z" fill="#BFD1E2"/>
<path d="M1175.13 413.26C1177.13 413.26 1178.75 413.87 1179.99 415.09C1181.23 416.29 1181.85 418.03 1181.85 420.31V430H1179.15V420.7C1179.15 419.06 1178.74 417.81 1177.92 416.95C1177.1 416.07 1175.98 415.63 1174.56 415.63C1173.12 415.63 1171.97 416.08 1171.11 416.98C1170.27 417.88 1169.85 419.19 1169.85 420.91V430H1167.12V413.56H1169.85V415.9C1170.39 415.06 1171.12 414.41 1172.04 413.95C1172.98 413.49 1174.01 413.26 1175.13 413.26ZM1189.04 416.59C1189.58 415.65 1190.38 414.87 1191.44 414.25C1192.52 413.61 1193.77 413.29 1195.19 413.29C1196.65 413.29 1197.97 413.64 1199.15 414.34C1200.35 415.04 1201.29 416.03 1201.97 417.31C1202.65 418.57 1202.99 420.04 1202.99 421.72C1202.99 423.38 1202.65 424.86 1201.97 426.16C1201.29 427.46 1200.35 428.47 1199.15 429.19C1197.97 429.91 1196.65 430.27 1195.19 430.27C1193.79 430.27 1192.55 429.96 1191.47 429.34C1190.41 428.7 1189.6 427.91 1189.04 426.97V437.8H1186.31V413.56H1189.04V416.59ZM1200.2 421.72C1200.2 420.48 1199.95 419.4 1199.45 418.48C1198.95 417.56 1198.27 416.86 1197.41 416.38C1196.57 415.9 1195.64 415.66 1194.62 415.66C1193.62 415.66 1192.69 415.91 1191.83 416.41C1190.99 416.89 1190.31 417.6 1189.79 418.54C1189.29 419.46 1189.04 420.53 1189.04 421.75C1189.04 422.99 1189.29 424.08 1189.79 425.02C1190.31 425.94 1190.99 426.65 1191.83 427.15C1192.69 427.63 1193.62 427.87 1194.62 427.87C1195.64 427.87 1196.57 427.63 1197.41 427.15C1198.27 426.65 1198.95 425.94 1199.45 425.02C1199.95 424.08 1200.2 422.98 1200.2 421.72ZM1226.36 413.26C1227.64 413.26 1228.78 413.53 1229.78 414.07C1230.78 414.59 1231.57 415.38 1232.15 416.44C1232.73 417.5 1233.02 418.79 1233.02 420.31V430H1230.32V420.7C1230.32 419.06 1229.91 417.81 1229.09 416.95C1228.29 416.07 1227.2 415.63 1225.82 415.63C1224.4 415.63 1223.27 416.09 1222.43 417.01C1221.59 417.91 1221.17 419.22 1221.17 420.94V430H1218.47V420.7C1218.47 419.06 1218.06 417.81 1217.24 416.95C1216.44 416.07 1215.35 415.63 1213.97 415.63C1212.55 415.63 1211.42 416.09 1210.58 417.01C1209.74 417.91 1209.32 419.22 1209.32 420.94V430H1206.59V413.56H1209.32V415.93C1209.86 415.07 1210.58 414.41 1211.48 413.95C1212.4 413.49 1213.41 413.26 1214.51 413.26C1215.89 413.26 1217.11 413.57 1218.17 414.19C1219.23 414.81 1220.02 415.72 1220.54 416.92C1221 415.76 1221.76 414.86 1222.82 414.22C1223.88 413.58 1225.06 413.26 1226.36 413.26Z" fill="#BFD1E2"/>
<path d="M49 0H150.652L141.404 103.318L99.7128 115L58.261 103.318L49 0ZM83.0326 46.7139L81.9145 33.6952L130.598 33.708L131.716 21.1499L67.9292 21.1371L71.3028 59.5088H115.475L113.905 75.9246L99.8227 79.7758L85.5142 75.9054L84.603 65.7974H71.9749L73.5712 85.7766L99.8227 92.7242L125.854 85.815L129.461 46.7203H83.0326V46.7139Z" fill="#7CAFD1"/>
<path d="M270 0H370.623L361.473 103.323L320.205 115L279.163 103.317L270 0ZM351.891 21.1428L288.739 21.1299L289.757 33.6893L338.274 33.7022L337.056 46.7192H305.236L306.389 59.0466H336.013L334.26 75.9299L320.315 79.7834L306.157 75.8977L305.249 65.787H292.747L294.139 84.262L320.315 92.4137L346.059 85.0869L351.891 21.1428Z" fill="#7CAFD1"/>
<path d="M482 0H597V115H482V0ZM587.576 87.5725C586.739 82.3272 583.321 77.9189 573.189 73.8044C569.662 72.1497 565.746 71.0061 564.57 68.3483C564.136 66.7639 564.072 65.9078 564.353 64.9686C565.075 61.8764 568.742 60.95 571.617 61.8061C573.489 62.3811 575.214 63.8186 576.294 66.125C581.245 62.8858 581.245 62.8858 584.701 60.7328C583.404 58.7267 582.759 57.8514 581.897 56.9889C578.875 53.6156 574.85 51.8906 568.314 52.0375L564.941 52.4656C561.701 53.2578 558.609 54.9892 556.744 57.2828C551.281 63.4672 552.859 74.2453 559.472 78.7111C566.007 83.5986 575.578 84.6719 576.798 89.2719C577.948 94.8814 572.633 96.6767 567.375 96.0314C563.497 95.1625 561.337 93.2267 558.967 89.6297L550.201 94.6642C551.204 96.9578 552.354 97.9672 554.079 99.9797C562.417 108.387 583.264 107.959 587.001 95.1625C587.136 94.7344 588.151 91.7892 587.359 87.2595L587.576 87.5725ZM544.534 52.8553H533.763C533.763 62.1383 533.718 71.3703 533.718 80.6725C533.718 86.5758 534.018 91.9936 533.054 93.6611C531.476 96.9642 527.393 96.5425 525.547 95.9547C523.649 95.0219 522.684 93.725 521.566 91.8594C521.266 91.3611 521.042 90.9267 520.959 90.9267L512.219 96.3189C513.682 99.3408 515.816 101.935 518.57 103.583C522.665 106.03 528.166 106.822 533.929 105.532C537.686 104.446 540.925 102.216 542.605 98.7658C545.058 94.3128 544.534 88.8439 544.515 82.7361C544.566 72.8908 544.515 63.0392 544.515 53.1236L544.534 52.8553Z" fill="#7CAFD1"/>
<path d="M744.306 55.7834H772.082C772.082 55.7834 787.69 56.0337 787.69 40.7016V15.3449C787.69 15.3449 790.058 0 759.394 0C730.039 0 731.868 12.7265 731.868 12.7265L731.907 25.915H759.908V29.8748H720.785C720.785 29.8748 702 27.7441 702 57.3557C702 86.9674 718.397 85.9149 718.397 85.9149H728.178V72.1744C728.178 72.1744 727.645 55.7834 744.306 55.7834ZM743.947 18.9453C742.61 18.9453 741.329 18.4145 740.384 17.4697C739.439 16.5249 738.909 15.2435 738.909 13.9073C738.909 12.5712 739.439 11.2898 740.384 10.345C741.329 9.40016 742.61 8.86938 743.947 8.86938C745.283 8.86938 746.564 9.40016 747.509 10.345C748.454 11.2898 748.985 12.5712 748.985 13.9073C748.985 15.2435 748.454 16.5249 747.509 17.4697C746.564 18.4145 745.283 18.9453 743.947 18.9453Z" fill="#7CAFD1"/>
<path d="M801.212 29.0851H791.432V42.8256C791.432 42.8256 791.964 59.2166 775.304 59.2166H747.528C747.528 59.2166 731.92 58.9599 731.92 74.2984V99.6551C731.92 99.6551 729.551 115 760.216 115C789.564 115 787.735 102.274 787.735 102.274L787.697 89.0914H759.696V85.1316H798.825C798.825 85.1316 817.61 87.2623 817.61 57.6507C817.61 28.039 801.212 29.0851 801.212 29.0851ZM775.663 96.0611C776.999 96.0611 778.281 96.5919 779.226 97.5367C780.17 98.4815 780.701 99.7629 780.701 101.099C780.701 102.435 780.17 103.717 779.226 104.661C778.281 105.606 776.999 106.137 775.663 106.137C774.327 106.137 773.046 105.606 772.101 104.661C771.156 103.717 770.625 102.435 770.625 101.099C770.625 99.7629 771.156 98.4815 772.101 97.5367C773.046 96.5919 774.327 96.0611 775.663 96.0611Z" fill="#7CAFD1"/>
<path d="M979.631 69.0276C985.996 69.0276 991.156 63.8677 991.156 57.5027C991.156 51.1376 985.996 45.9777 979.631 45.9777C973.266 45.9777 968.106 51.1376 968.106 57.5027C968.106 63.8677 973.266 69.0276 979.631 69.0276Z" fill="#7CAFD1"/>
<path d="M947.36 80.4172L944.81 79.7651C925.866 74.9808 915 66.8455 915 57.4771C915 48.1022 925.873 39.9733 944.81 35.189L947.36 34.5434L948.077 37.0679C949.992 43.6775 952.445 50.119 955.412 56.3278L955.96 57.4771L955.412 58.6263C952.442 64.844 949.982 71.2876 948.077 77.8992L947.36 80.4172ZM943.635 41.0645C929.243 45.1192 920.404 51.3046 920.404 57.4771C920.404 63.6366 929.237 69.8285 943.635 73.8767C945.397 68.2724 947.528 62.7908 949.995 57.4771C947.51 52.1545 945.386 46.6713 943.635 41.0645ZM1011.89 80.4172L1011.18 77.8862C1009.26 71.2754 1006.81 64.832 1003.84 58.6199L1003.29 57.4771L1003.84 56.3213C1006.81 50.1166 1009.26 43.6665 1011.18 37.055L1011.89 34.5369L1014.44 35.1826C1033.39 39.9669 1044.25 48.0957 1044.25 57.4771C1044.25 66.852 1033.39 74.9808 1014.44 79.7651L1011.89 80.4172ZM1009.25 57.4771C1011.83 63.0684 1013.98 68.5694 1015.62 73.8767C1030.02 69.8285 1038.86 63.6366 1038.86 57.4771C1038.86 51.3046 1030.02 45.1257 1015.62 41.0645C1013.86 46.6696 1011.73 52.1524 1009.25 57.4771Z" fill="#7CAFD1"/>
<path d="M943.596 41.0387L942.886 38.5207C937.553 19.745 939.167 6.29599 947.322 1.60853C955.295 -3.00791 968.125 2.44788 981.561 16.2326L983.394 18.1179L981.561 19.9968C976.788 24.9599 972.427 30.3019 968.518 35.9703L967.789 37.0163L966.523 37.1196C959.651 37.6594 952.834 38.7585 946.14 40.406L943.596 41.0387ZM953.81 5.34042C952.364 5.34042 951.086 5.65679 950.007 6.27662C944.661 9.3564 943.719 20.0807 947.399 34.5563C953.152 33.2844 958.956 32.374 964.806 31.864C968.192 27.0606 971.887 22.4819 975.866 18.1567C967.453 9.97623 959.512 5.34042 953.81 5.34042ZM1005.44 114.999C997.773 114.999 987.92 109.214 977.693 98.7151L975.866 96.8363L977.693 94.9639C982.466 89.9928 986.83 84.6445 990.742 78.971L991.465 77.9379L992.718 77.8153C999.592 77.2851 1006.41 76.1902 1013.11 74.5418L1015.66 73.8961L1016.37 76.4206C1021.68 95.1834 1020.07 108.652 1011.93 113.339C1009.96 114.46 1007.72 115.033 1005.44 114.999ZM983.394 96.7911C991.801 104.972 999.749 109.614 1005.44 109.614C1006.9 109.614 1008.17 109.291 1009.25 108.678C1014.6 105.591 1015.55 94.8477 1011.85 80.3721C1006.11 81.6505 1000.3 82.5673 994.435 83.0774C991.063 87.8883 987.374 92.4696 983.394 96.7911Z" fill="#7CAFD1"/>
<path d="M1015.66 41.0384L1013.11 40.3992C1006.41 38.7466 999.593 37.6474 992.718 37.1128L991.465 37.0031L990.742 35.9571C986.835 30.2856 982.471 24.9432 977.693 19.9836L975.866 18.1047L977.693 16.2323C991.123 2.45404 1003.95 -3.00175 1011.93 1.60824C1020.08 6.30215 1021.7 19.7512 1016.37 38.5204L1015.66 41.0384ZM994.435 31.8637C1000.59 32.4125 1006.43 33.3358 1011.85 34.556C1015.54 20.0804 1014.6 9.3561 1009.25 6.26987C1003.93 3.19009 993.912 7.90338 983.394 18.1564C987.372 22.4823 991.065 27.0535 994.435 31.8637ZM953.81 114.998C951.539 115.031 949.299 114.458 947.322 113.339C939.167 108.651 937.553 95.1896 942.879 76.4204L943.577 73.8958L946.127 74.5415C952.351 76.1104 959.208 77.2145 966.517 77.815L967.769 77.9376L968.499 78.9707C972.399 84.6395 976.763 89.992 981.541 94.9636L983.375 96.836L981.541 98.7148C971.321 109.22 961.468 114.998 953.81 114.998ZM947.399 80.3782C943.719 94.8538 944.661 105.598 950.007 108.684C955.334 111.718 965.316 107.037 975.866 96.7908C971.888 92.4642 968.194 87.8856 964.806 83.0835C958.95 82.5657 953.135 81.662 947.399 80.3782Z" fill="#7CAFD1"/>
<path d="M979.63 83.768C975.195 83.768 970.643 83.5808 966.071 83.1998L964.806 83.0901L964.076 82.0441C961.499 78.3374 959.073 74.527 956.806 70.6225C954.556 66.7074 952.465 62.7032 950.537 58.6197L949.995 57.4769L950.537 56.3212C952.467 52.2406 954.553 48.2376 956.806 44.3249C959.047 40.4768 961.494 36.6287 964.076 32.8968L964.806 31.8638L966.071 31.7475C975.091 30.9921 984.157 30.9921 993.176 31.7475L994.429 31.8702L995.158 32.9033C1000.32 40.3202 1004.86 48.1556 1008.72 56.3276L1009.25 57.4834L1008.72 58.6262C1004.87 66.8038 1000.33 74.6401 995.158 82.0506L994.429 83.0965L993.176 83.2063C988.618 83.5743 984.059 83.768 979.63 83.768ZM967.789 77.9313C975.763 78.5317 983.498 78.5317 991.465 77.9313C995.913 71.418 999.867 64.5807 1003.29 57.4769C999.879 50.3667 995.925 43.5286 991.465 37.0225C983.585 36.4156 975.669 36.4156 967.789 37.0225C963.326 43.5262 959.371 50.3646 955.96 57.4769C959.395 64.5768 963.348 71.4135 967.789 77.9313Z" fill="#7CAFD1"/>
<path d="M1254.85 52.371L1204.63 2.16459C1203.24 0.778288 1201.35 0 1199.39 0C1197.42 0 1195.54 0.778288 1194.14 2.16459L1183.74 12.5809L1196.96 25.8097C1198.52 25.2826 1200.2 25.2032 1201.8 25.5805C1203.41 25.9578 1204.87 26.7768 1206.03 27.9446C1207.19 29.1123 1208 30.5821 1208.37 32.1872C1208.74 33.7922 1208.65 35.4684 1208.12 37.0255L1220.85 49.777C1222.74 49.1154 1224.79 49.1152 1226.67 49.7762C1228.56 50.4373 1230.16 51.7203 1231.22 53.4143C1232.28 55.1083 1232.74 57.1124 1232.5 59.0971C1232.27 61.0817 1231.37 62.9288 1229.95 64.3345C1226.51 67.7855 1220.95 67.7855 1217.5 64.3345C1216.27 63.1073 1215.43 61.5465 1215.09 59.8466C1214.74 58.1467 1214.91 56.3829 1215.56 54.7752L1203.63 42.9095V74.1814C1204.47 74.5897 1205.27 75.1534 1205.97 75.8493C1207.61 77.5054 1208.54 79.7446 1208.54 82.0784C1208.54 84.4123 1207.61 86.6514 1205.97 88.3075C1205.15 89.1294 1204.18 89.7814 1203.1 90.2263C1202.03 90.6712 1200.88 90.9002 1199.72 90.9002C1198.56 90.9002 1197.41 90.6712 1196.33 90.2263C1195.26 89.7814 1194.29 89.1294 1193.47 88.3075C1192.65 87.4911 1192 86.5211 1191.55 85.4532C1191.11 84.3853 1190.88 83.2404 1190.88 82.0842C1190.88 80.9279 1191.11 79.783 1191.55 78.7151C1192 77.6472 1192.65 76.6773 1193.47 75.8609C1194.34 74.9981 1195.32 74.3424 1196.36 73.911V42.3343C1195.29 41.894 1194.31 41.245 1193.49 40.4247C1192.67 39.6043 1192.01 38.629 1191.57 37.5551C1191.13 36.4812 1190.9 35.3299 1190.9 34.1679C1190.91 33.0058 1191.14 31.856 1191.59 30.7849L1178.59 17.7229L1144.16 52.1294C1141.28 55.0283 1141.28 59.7216 1144.16 62.6205L1194.37 112.827C1195.06 113.516 1195.88 114.062 1196.78 114.435C1197.68 114.808 1198.64 115 1199.61 115C1200.58 115 1201.55 114.808 1202.45 114.435C1203.35 114.062 1204.16 113.516 1204.85 112.827L1254.83 62.8506C1255.52 62.1653 1256.07 61.3498 1256.45 60.4512C1256.82 59.5525 1257.02 58.5884 1257.02 57.6144C1257.02 56.6403 1256.83 55.6756 1256.46 54.7757C1256.09 53.8758 1255.54 53.0585 1254.85 52.371Z" fill="#7CAFD1"/>
<path fill-rule="evenodd" clip-rule="evenodd" d="M264.095 291.453C264.095 292.084 264.281 292.501 264.385 292.906C265.065 295.541 266.525 297.803 268.257 299.866C270.724 302.805 273.745 305.172 276.84 307.397C279.525 309.327 282.264 311.214 284.96 313.129C285.422 313.458 285.86 313.836 286.362 314.24C285.93 314.473 285.571 314.679 285.197 314.869C281.64 316.673 278.218 318.695 275.063 321.145C273.162 322.622 271.324 324.192 270.026 326.243C267.937 329.542 267.198 333.057 268.755 336.809C269.209 337.905 269.903 338.852 270.881 339.552C271.198 339.779 271.554 340.003 271.925 340.091C272.876 340.315 273.844 340.462 274.806 340.639L277.531 340.637C280.545 340.368 283.288 339.336 285.766 337.625C289.64 334.951 292.25 331.367 293.373 326.766C294.188 323.422 294.222 320.074 293.26 316.745C293.168 316.437 293.062 316.133 292.942 315.834C292.825 315.535 292.688 315.244 292.526 314.871L298.704 311.319L298.796 311.398C298.684 311.765 298.565 312.132 298.463 312.503C297.729 315.184 297.241 317.912 297.416 320.694C297.603 323.659 298.431 326.434 300.167 328.911C301.57 330.915 304.914 330.989 306.405 328.979C306.935 328.264 307.448 327.518 307.833 326.721C308.84 324.641 309.773 322.524 310.735 320.422L310.903 320.037C310.834 321.033 310.753 321.907 310.716 322.782C310.659 324.149 310.738 325.507 311.206 326.807C311.605 327.919 312.286 328.75 313.56 328.897C314.431 328.997 315.126 328.598 315.766 328.092C316.759 327.308 317.581 326.33 318.184 325.218C319.892 322.081 321.646 318.964 323.194 315.748C324.868 312.27 326.333 308.691 327.888 305.154L328.145 304.527C328.512 305.971 328.768 307.385 329.24 308.723C329.788 310.277 330.466 311.793 331.205 313.268C331.554 313.964 331.514 314.416 331.03 315C329.003 317.444 327.011 319.917 325.017 322.388C324.576 322.933 324.137 323.488 323.769 324.084C323.547 324.46 323.4 324.877 323.338 325.309C323.276 325.708 323.371 326.115 323.603 326.445C323.834 326.775 324.185 327.003 324.581 327.08C325.38 327.252 326.199 327.311 327.014 327.254C329.796 327.049 332.323 326.072 334.556 324.417C337.45 322.274 338.379 319.348 337.678 315.881C337.489 314.941 337.153 314.026 336.827 313.119C336.681 312.711 336.671 312.424 336.938 312.043C339.251 308.739 341.228 305.235 343.066 301.649C343.139 301.508 343.213 301.367 343.341 301.216C343.937 304.316 344.833 307.303 346.44 310.013C345.62 310.803 344.809 311.519 344.075 312.308C342.459 314.046 341.057 315.932 340.326 318.233C340.011 319.225 339.77 320.233 339.91 321.292C340.127 322.938 341.475 324.007 343.093 323.632C346.556 322.831 349.545 321.199 351.729 318.309C353.199 316.363 353.333 314.192 352.717 311.918C352.548 311.3 352.348 310.692 352.132 309.983C352.987 309.718 353.819 309.4 354.681 309.203C359.154 308.182 363.579 308.36 367.89 309.976C370.406 310.919 372.44 312.498 373.645 314.981C375.118 318.017 374.304 320.897 371.442 322.816C371.175 322.995 370.87 323.136 370.649 323.36C370.578 323.442 370.525 323.538 370.494 323.641C370.462 323.745 370.452 323.854 370.465 323.962C370.484 324.072 370.776 324.211 370.944 324.209C371.884 324.202 372.647 323.708 373.379 323.202C375.214 321.932 376.553 320.224 376.841 317.975L376.898 317.807L376.828 316.342C376.801 316.258 376.849 316.174 376.843 316.11C376.453 312.835 374.704 310.296 372.159 308.305C369.212 306 365.733 305.051 362.053 304.901C359.068 304.773 356.087 305.232 353.28 306.252C352.474 306.544 351.675 306.89 350.865 307.216C350.756 307.019 350.639 306.83 350.543 306.635C349.711 304.932 348.703 303.304 348.48 301.351C348.322 299.964 348.128 298.578 348.458 297.206C348.775 295.886 349.188 294.589 349.577 293.287C349.777 292.617 349.636 292.241 348.997 291.94C348.774 291.828 348.536 291.75 348.29 291.708C346.718 291.48 345.168 291.61 343.645 292.053C343.106 292.21 342.714 292.512 342.594 293.108C342.526 293.451 342.387 293.779 342.29 294.117C341.892 295.521 341.61 296.952 340.966 298.29C339.355 301.645 337.515 304.874 335.632 308.08C335.428 308.426 335.213 308.766 334.956 309.185C334.295 307.802 333.589 306.56 333.376 305.104C333.134 303.458 332.943 301.815 333.353 300.182C333.658 298.964 334.056 297.768 334.422 296.566C334.596 295.994 334.516 295.694 333.998 295.393C333.737 295.241 333.441 295.107 333.146 295.063C331.534 294.817 329.887 294.952 328.336 295.456C327.848 295.614 327.592 295.93 327.443 296.433C327.005 297.917 326.631 299.437 326.016 300.849C323.523 306.563 320.959 312.247 318.398 317.931C317.863 319.117 317.237 320.263 316.634 321.418C316.481 321.711 316.258 321.969 316.068 322.244C315.915 322.063 315.856 321.939 315.857 321.815C315.861 321.085 315.774 320.333 315.913 319.627C316.341 317.491 316.814 315.365 317.331 313.249C317.753 311.5 318.245 309.768 318.713 308.032C318.87 307.45 318.873 306.907 318.455 306.418C317.753 305.599 316.287 305.42 315.418 306.05L315.033 306.268L315.108 305.648C315.291 304.319 315.328 302.995 314.963 301.686C314.508 300.054 313.344 299.115 311.651 299.168C310.862 299.192 310.034 299.327 309.304 299.614C306.232 300.818 303.87 302.95 301.859 305.515C301.673 305.753 301.442 305.953 301.179 306.103C298.58 307.544 295.973 308.967 293.366 310.395L290.465 311.985C289.687 311.243 288.98 310.473 288.178 309.819C285.728 307.821 283.238 305.873 280.771 303.897C278.584 302.146 276.466 300.322 274.845 298.003C273.639 296.278 272.862 294.391 272.788 292.258C272.693 289.54 273.464 287.057 274.848 284.745C276.618 281.787 279.032 279.414 281.686 277.264C284.493 274.991 287.53 273.061 290.677 271.299C295.081 268.834 299.61 266.653 304.466 265.213C309.445 263.736 314.497 262.89 319.708 263.48C321.756 263.712 323.745 264.181 325.572 265.182C326.971 265.949 328.118 266.952 328.652 268.521C329.178 270.064 329.162 271.629 328.797 273.196C328.056 276.371 326.317 278.989 324.13 281.327C320.541 285.161 316.164 287.771 311.236 289.495C308.403 290.488 305.455 291.116 302.463 291.366C300.011 291.572 297.611 291.355 295.289 290.502C293.752 289.937 292.413 289.073 291.337 287.818C291.144 287.594 290.898 287.35 290.54 287.561C290.189 287.767 290.127 288.101 290.244 288.44C290.441 289.003 290.622 289.588 290.929 290.092C291.699 291.354 292.822 292.269 294.058 293.055C296.433 294.565 299.087 295.072 301.839 295.19C306.015 295.371 310.089 294.747 314.106 293.627C319.841 292.028 324.827 289.203 328.826 284.747C332.155 281.036 334.534 276.849 335.043 271.792C335.292 269.324 335.027 266.906 333.871 264.655C332.618 262.216 330.625 260.402 328.243 259.152C324.773 257.333 321.028 256.273 317.163 256.273H313.291C308.61 256.273 304.085 257.615 299.686 259.215C296.356 260.427 293.091 261.857 289.922 263.44C283.019 266.889 276.591 271.048 271.311 276.767C268.68 279.616 266.453 282.759 265.172 286.461C264.785 287.566 264.452 288.689 264.173 289.826L264.095 291.453ZM289.185 322.182C288.886 326.188 287.07 329.436 284.103 332.067C282.433 333.545 280.519 334.598 278.289 334.968C277.48 335.102 276.653 335.135 275.868 334.8C274.75 334.322 274.499 333.329 274.478 332.271C274.444 330.586 275.035 329.062 275.844 327.612C276.901 325.722 278.45 324.281 280.104 322.935C282.709 320.814 285.536 319.019 288.43 317.324L288.649 317.234C289.096 318.887 289.309 320.52 289.185 322.182ZM311.788 304.771C311.577 306.05 311.313 307.331 310.939 308.571C309.647 312.862 307.987 317.021 306.193 321.124C305.862 321.884 305.379 322.576 304.96 323.296C304.888 323.407 304.803 323.507 304.705 323.596C304.186 324.109 303.694 324.082 303.432 323.411C303.126 322.631 302.938 321.796 302.777 320.971C302.668 320.416 302.694 319.834 302.66 319.266C302.695 315.229 303.927 311.56 306.016 308.144C306.878 306.735 307.816 305.393 309.249 304.502C309.695 304.224 310.177 304.011 310.682 303.867C311.446 303.653 311.915 304.006 311.788 304.771ZM327.209 324.418L332.751 317.947C332.982 320.35 328.897 325.148 327.209 324.418ZM344.911 320.063C344.519 320.288 344.092 320.45 343.69 320.657C343.323 320.848 343.202 320.655 343.191 320.339C343.186 320.12 343.214 319.902 343.275 319.691C344.023 317.052 345.4 314.799 347.45 312.966L347.593 312.892C348.568 315.619 347.441 318.613 344.911 320.063Z" fill="#7CAFD1"/>
<path d="M705.285 281.468C705.285 281.468 702.565 279.5 705.833 276.875L713.441 270.052C713.441 270.052 715.62 267.753 717.923 269.757L788.158 323.06V348.62C788.158 348.62 788.123 352.634 782.986 352.192L705.285 281.468Z" fill="#7CAFD1"/>
<path d="M723.391 297.942L705.285 314.44C705.285 314.44 703.425 315.826 705.285 318.308L713.69 325.969C713.69 325.969 715.687 328.121 718.639 325.674L737.829 311.085L723.391 297.942ZM755.173 298.079L788.373 272.666L788.158 247.243C788.158 247.243 786.741 241.695 782.01 244.585L737.829 284.89L755.173 298.079Z" fill="#7CAFD1"/>
<path d="M782.985 352.224C784.912 354.203 787.25 353.554 787.25 353.554L813.122 340.776C816.435 338.512 815.971 335.704 815.971 335.704V259.387C815.971 256.031 812.546 254.873 812.546 254.873L790.12 244.037C785.221 241.001 782.01 244.585 782.01 244.585C782.01 244.585 786.137 241.605 788.158 247.244V348.154C788.158 348.848 788.011 349.529 787.716 350.143C787.127 351.34 785.842 352.452 782.771 351.986L782.985 352.224Z" fill="#7CAFD1"/>
<g clip-path="url(#clip1_11_148)">
<path d="M963.879 356.898C974.57 356.898 983.195 348.273 983.195 337.582V318.266H963.879C953.188 318.266 944.562 326.891 944.562 337.582C944.562 348.273 953.188 356.898 963.879 356.898ZM944.562 298.949C944.562 288.258 953.188 279.633 963.879 279.633H983.195V318.266H963.879C953.188 318.266 944.562 309.641 944.562 298.949ZM944.562 260.316C944.562 249.625 953.188 241 963.879 241H983.195V279.633H963.879C953.188 279.633 944.562 271.008 944.562 260.316ZM983.195 241H1002.51C1013.2 241 1021.83 249.625 1021.83 260.316C1021.83 271.008 1013.2 279.633 1002.51 279.633H983.195V241ZM1021.83 298.949C1021.83 309.641 1013.2 318.266 1002.51 318.266C991.82 318.266 983.195 309.641 983.195 298.949C983.195 288.258 991.82 279.633 1002.51 279.633C1013.2 279.633 1021.83 288.258 1021.83 298.949Z" fill="#7CAFD1"/>
</g>
<path d="M586 264C586 251.534 564.938 241 540 241C515.062 241 494 251.534 494 264V275.5C494 287.966 515.062 298.5 540 298.5C564.938 298.5 586 287.966 586 275.5V264ZM540 338.75C515.062 338.75 494 328.216 494 315.75V333C494 345.466 515.062 356 540 356C564.938 356 586 345.466 586 333V315.75C586 328.216 564.938 338.75 540 338.75Z" fill="#7CAFD1"/>
<path d="M586 287C586 299.466 564.938 310 540 310C515.062 310 494 299.466 494 287V304.25C494 316.716 515.062 327.25 540 327.25C564.938 327.25 586 316.716 586 304.25V287Z" fill="#7CAFD1"/>
<path d="M1129 262.5H1253V306.21H1191V313.5H1163.44V306.21H1129V262.5ZM1135.89 298.93H1149.67V277.07H1156.56V298.93H1163.45V269.79H1135.89V298.93ZM1170.33 269.79V306.21H1184.11V298.93H1197.89V269.79H1170.33ZM1184.11 277.08H1191V291.64H1184.11V277.08ZM1204.78 269.79V298.93H1218.56V277.07H1225.45V298.93H1232.34V277.07H1239.23V298.93H1246.12V269.79H1204.78Z" fill="#7CAFD1"/>
<defs>
<clipPath id="clip0_11_148">
<rect width="102.31" height="115" fill="white" transform="translate(49 250)"/>
</clipPath>
<clipPath id="clip1_11_148">
<rect width="115" height="115" fill="white" transform="translate(923 241)"/>
</clipPath>
</defs>
</svg>
