<svg width="641" height="640" viewBox="0 0 641 640" fill="none" xmlns="http://www.w3.org/2000/svg">
<path d="M320.746 377C352.226 377 377.746 351.48 377.746 320C377.746 288.52 352.226 263 320.746 263C289.266 263 263.746 288.52 263.746 320C263.746 351.48 289.266 377 320.746 377Z" fill="white"/>
<path d="M537.246 226C526.246 222 514.746 218 502.746 214.5C505.746 202.5 508.246 190.5 510.246 179C520.746 113 509.246 66.5 477.246 48.5C467.746 43 457.246 40.5 445.246 40.5C410.246 40.5 365.746 66.5 320.746 110C275.746 66.5 231.246 40.5 196.246 40.5C184.246 40.5 173.746 43 164.246 48.5C132.246 67 120.746 113.5 131.246 179C133.246 190.5 135.746 202.5 138.746 214.5C126.746 218 115.246 221.5 104.246 226C41.7461 250 7.74609 283 7.74609 320C7.74609 357 42.2461 390 104.246 414C115.246 418 126.746 422 138.746 425.5C135.746 437.5 133.246 449.5 131.246 461C120.746 527 132.246 573.5 164.246 591.5C173.746 597 184.246 599.5 196.246 599.5C231.746 599.5 276.246 573.5 320.746 530C365.746 573.5 410.246 599.5 445.246 599.5C457.246 599.5 467.746 597 477.246 591.5C509.246 573 520.746 526.5 510.246 461C508.246 449.5 505.746 437.5 502.746 425.5C514.746 422 526.246 418.5 537.246 414C599.746 390 633.746 357 633.746 320C633.746 283 599.746 250 537.246 226ZM463.246 73.5C483.746 85.5 490.746 122.5 482.246 175C480.746 185.5 478.246 196.5 475.246 208C449.246 202 421.746 198 392.746 195.5C375.746 171.5 358.246 150 340.746 130.5C377.746 94 415.246 69 445.746 69C452.246 69 458.246 70.5 463.246 73.5ZM407.246 370C398.246 386 387.746 402 376.746 418C358.246 419.5 339.746 420 320.746 420C301.246 420 282.746 419.5 264.746 418C253.746 402 243.746 386 234.746 370C225.246 353.5 216.246 336.5 208.246 320C216.246 303.5 225.246 286.5 234.746 270C243.746 254 254.246 238 265.246 222C283.746 220.5 302.246 220 321.246 220C340.746 220 359.246 220.5 377.246 222C388.246 238 398.246 254 407.246 270C416.746 286.5 425.746 303.5 433.746 320C425.246 336.5 416.746 353 407.246 370ZM448.746 353.5C456.246 371 462.246 388 467.746 405C450.746 409 432.746 412 413.746 414.5C419.746 405 426.246 395 431.746 384.5C437.746 374 443.246 363.5 448.746 353.5ZM320.746 489C308.746 476 297.246 462 286.246 447.5C297.746 448 309.246 448.5 320.746 448.5C332.246 448.5 343.746 448 355.246 447.5C344.246 462 332.746 476 320.746 489ZM227.746 414C208.746 411.5 190.746 408.5 173.746 404.5C179.246 388 185.246 370.5 192.746 353C198.246 363 203.746 373.5 209.746 383.5C215.746 394.5 221.746 404 227.746 414ZM192.746 286.5C185.246 269 179.246 252 173.746 235C190.746 231 208.746 228 227.746 225.5C221.746 235 215.246 245 209.746 255.5C203.746 266 198.246 276.5 192.746 286.5ZM320.746 151C332.746 164 344.246 178 355.246 192.5C343.746 192 332.246 191.5 320.746 191.5C309.246 191.5 297.746 192 286.246 192.5C297.246 178 308.746 164 320.746 151ZM431.746 256L413.746 226C432.746 228.5 450.746 231.5 467.746 235.5C462.246 252 456.246 269.5 448.746 287C443.246 276.5 437.746 266 431.746 256ZM159.246 175C150.746 122.5 157.746 85.5 178.246 73.5C183.246 70.5 189.246 69 195.746 69C225.746 69 263.246 93.5 300.746 130.5C283.246 149.5 265.746 171.5 248.746 195.5C219.746 198 192.246 202.5 166.246 208C163.246 196.5 161.246 185.5 159.246 175ZM35.7461 320C35.7461 296.5 64.2461 271.5 114.246 253C124.246 249 135.246 245.5 146.246 242.5C154.246 267.5 164.246 294 176.246 320.5C164.246 347 153.746 373 146.246 398C77.2461 378 35.7461 348 35.7461 320ZM178.246 566.5C157.746 554.5 150.746 517.5 159.246 465C160.746 454.5 163.246 443.5 166.246 432C192.246 438 219.746 442 248.746 444.5C265.746 468.5 283.246 490 300.746 509.5C263.746 546 226.246 571 195.746 571C189.246 571 183.246 569.5 178.246 566.5ZM482.246 465C490.746 517.5 483.746 554.5 463.246 566.5C458.246 569.5 452.246 571 445.746 571C415.746 571 378.246 546.5 340.746 509.5C358.246 490.5 375.746 468.5 392.746 444.5C421.746 442 449.246 437.5 475.246 432C478.246 443.5 480.246 454.5 482.246 465ZM527.246 387C517.246 391 506.246 394.5 495.246 397.5C487.246 372.5 477.246 346 465.246 319.5C477.246 293 487.746 267 495.246 242C564.246 262 605.746 292 605.746 320C605.746 343.5 576.746 368.5 527.246 387Z" fill="white"/>
</svg>
