<svg width="640" height="640" viewBox="0 0 640 640" fill="none" xmlns="http://www.w3.org/2000/svg">
<rect width="640" height="640" fill="white"/>
<g clip-path="url(#clip0_330_80)">
<path fill-rule="evenodd" clip-rule="evenodd" d="M597.796 480C602.285 472.292 605.052 463.542 605.052 455.729V184.271C605.052 176.458 602.285 167.76 597.796 160L320.026 320L597.796 480Z" fill="white"/>
<path fill-rule="evenodd" clip-rule="evenodd" d="M344.718 634.115L580.36 498.385C587.147 494.479 593.307 487.708 597.796 480L320.026 320L42.2561 480C46.7455 487.708 52.9054 494.479 59.6918 498.385L295.334 634.115C308.907 641.927 331.093 641.927 344.718 634.115Z" fill="white"/>
<path fill-rule="evenodd" clip-rule="evenodd" d="M597.796 160C593.307 152.292 587.147 145.521 580.36 141.615L344.718 5.88574C331.145 -1.92676 308.907 -1.92676 295.334 5.88574L59.6918 141.615C46.1192 149.427 35 168.646 35 184.271V455.73C35 463.542 37.7667 472.24 42.2562 480L320.026 320L597.796 160Z" fill="white"/>
<path fill-rule="evenodd" clip-rule="evenodd" d="M320.026 509.583C215.255 509.583 130.009 424.531 130.009 320C130.009 215.469 215.255 130.417 320.026 130.417C387.628 130.417 450.689 166.719 484.569 225.156L402.35 272.656C385.384 243.385 353.853 225.26 320.026 225.26C267.615 225.26 225.017 267.761 225.017 320.052C225.017 372.292 267.615 414.844 320.026 414.844C353.853 414.844 385.384 396.667 402.35 367.448L484.569 414.948C450.689 473.281 387.628 509.583 320.026 509.583Z" fill="#121824"/>
</g>
<defs>
<clipPath id="clip0_330_80">
<rect width="570" height="640" fill="white" transform="translate(35)"/>
</clipPath>
</defs>
</svg>
