<svg width="640" height="640" viewBox="0 0 640 640" fill="none" xmlns="http://www.w3.org/2000/svg">
<path d="M265.191 456.349C200.982 477.697 304.257 521.801 386.017 480.114C372.625 473.919 363.02 466.772 363.02 466.772C326.563 474.974 309.651 475.619 276.556 471.12C249.242 467.397 265.191 456.349 265.191 456.349ZM376.228 414.702C327.904 425.766 299.992 425.412 264.639 421.072C237.302 417.708 255.198 401.941 255.198 401.941C184.482 429.875 294.565 461.572 393.401 427.168C382.896 422.764 376.228 414.702 376.228 414.702ZM414.097 173.521C414.1 173.521 271.136 216 339.413 309.637C359.567 337.249 334.127 362.074 334.127 362.074C334.127 362.074 385.278 330.656 361.792 291.294C339.848 254.605 323.026 236.377 414.097 173.521ZM447.546 496.598C447.546 496.598 459.353 508.184 434.539 517.138C387.359 534.147 238.132 539.276 196.683 517.819C181.795 510.103 209.727 499.405 218.516 497.147C227.68 494.786 232.912 495.216 232.912 495.216C216.345 481.333 125.81 522.49 186.937 534.295C353.618 566.45 490.775 519.814 447.546 496.598ZM390.26 375.826C398.272 369.32 409.34 363.671 409.34 363.671C409.34 363.671 377.811 370.379 346.399 373.521C307.944 377.359 266.696 378.116 245.99 374.819C196.971 367.019 272.866 345.563 272.866 345.563C272.866 345.563 243.384 343.19 207.145 364.053C164.281 388.718 313.17 399.962 390.26 375.826ZM409.025 436.126C408.664 437.281 407.459 438.579 407.459 438.579C512.086 405.847 473.619 323.198 423.592 344.117C419.202 345.965 416.901 350.261 416.901 350.261C416.901 350.261 419.674 348.931 425.86 347.394C451.15 341.123 487.382 387.683 409.025 436.126ZM320.607 344.663C305.171 303.139 252.825 266.812 320.631 203.084C405.178 123.664 361.795 72 361.795 72C379.293 154.051 300.065 178.836 271.467 229.935C251.992 264.754 281.026 302.168 320.607 344.663ZM411.855 550.699C347.663 565.08 268.483 563.404 221.534 554.179C221.534 554.179 231.149 563.655 280.571 567.441C355.766 573.162 471.27 564.256 474 521.908C474.003 521.908 468.747 537.962 411.855 550.699Z" fill="white"/>
</svg>
