<svg width="626" height="625" viewBox="0 0 626 625" fill="none" xmlns="http://www.w3.org/2000/svg">
<path d="M0.746094 0V625H625.746V0H0.746094ZM331.341 532.565C322.116 551.31 304.506 563.625 284.101 569.57C252.746 576.77 222.756 572.665 200.446 559.275C185.516 550.115 173.856 536.015 165.941 519.77L213.541 490.62C213.956 490.795 215.206 493.055 216.876 495.975C222.946 506.145 228.181 513.345 238.471 518.4C248.581 521.85 270.776 524.055 279.346 506.265C284.581 497.215 282.916 468.125 282.916 435.94C282.911 385.365 283.146 335 283.146 285H341.691C341.691 340 341.991 392.09 341.691 445.76C341.816 478.66 344.671 507.99 331.341 532.565ZM574.211 516.025C553.861 585.635 440.401 587.895 395.061 541.905C385.481 531.08 379.476 525.425 373.761 512.93C397.856 499.07 397.856 499.07 421.301 485.505C434.036 505.08 445.811 515.845 466.996 520.25C495.736 523.76 524.651 513.885 518.166 483.36C511.501 458.43 459.316 452.365 423.801 425.705C387.746 401.49 379.296 342.65 408.926 309.03C418.801 296.595 435.641 287.315 453.311 282.855L471.751 280.47C507.156 279.755 529.286 289.105 545.531 307.245C550.051 311.825 553.741 316.765 560.641 327.47C541.781 339.49 541.841 339.375 514.826 356.865C509.056 344.435 499.481 336.635 489.361 333.245C473.651 328.485 453.841 333.66 449.731 350.26C448.306 355.375 448.601 360.135 450.866 368.585C457.231 383.1 478.591 389.41 497.751 398.215C552.906 420.585 571.531 444.57 576.111 473.12C580.521 497.7 575.046 513.645 574.211 516.025Z" fill="white"/>
</svg>
