<svg width="641" height="640" viewBox="0 0 641 640" fill="none" xmlns="http://www.w3.org/2000/svg">
<path d="M247.396 310H393.191C433.776 310 465.746 275.66 465.746 234.905V95.9151C465.746 56.355 432.586 26.635 392.971 20.035C367.901 15.86 341.996 13.96 317.036 14.08C292.086 14.195 268.976 16.32 248.011 20.035C186.236 30.94 175.746 53.7901 175.746 95.9151V150H320.746V170H119.626C77.2062 170 40.0562 195.54 28.4412 244.055C15.0362 299.655 14.4412 333.65 28.4412 391.705C38.8162 434.915 63.5912 465 106.016 465H155.746V399.76C155.746 351.575 197.886 310 247.396 310ZM238.206 114.45C223.076 114.45 210.816 102.055 210.816 86.725C210.816 71.33 223.071 58.82 238.206 58.82C253.281 58.82 265.601 71.33 265.601 86.725C265.596 102.055 253.276 114.45 238.206 114.45ZM612.151 244.055C601.661 201.815 581.636 170 539.156 170H485.746V234.905C485.746 285.155 441.776 325 393.191 325H247.396C207.456 325 175.746 361.63 175.746 401.63V540.63C175.746 580.18 209.471 603.45 248.056 614.8C294.266 628.385 338.026 630.84 393.311 614.8C430.056 604.155 465.746 582.745 465.746 540.63V485H320.746V465H539.156C581.576 465 597.391 436.12 612.151 391.7C627.386 345.975 626.731 302.705 612.151 244.055ZM402.376 522.085C417.511 522.085 429.771 534.48 429.771 549.82C429.771 565.2 417.516 577.715 402.376 577.715C387.301 577.715 374.986 565.205 374.986 549.82C374.986 534.48 387.301 522.085 402.376 522.085Z" fill="white"/>
</svg>
