<svg width="641" height="640" viewBox="0 0 641 640" fill="none" xmlns="http://www.w3.org/2000/svg">
<path fill-rule="evenodd" clip-rule="evenodd" d="M6.84106 280.78C6.84106 284.295 7.87606 286.615 8.45606 288.87C12.2361 303.535 20.3611 316.12 30.0011 327.6C43.7311 343.96 60.5461 357.13 77.7711 369.515C92.7111 380.255 107.956 390.755 122.956 401.415C125.531 403.245 127.966 405.35 130.761 407.595C128.356 408.895 126.356 410.04 124.276 411.095C104.481 421.135 85.4361 432.39 67.8811 446.025C57.3011 454.245 47.0711 462.98 39.8461 474.395C28.2211 492.755 24.1061 512.315 32.7711 533.2C35.3011 539.3 39.1611 544.57 44.6061 548.465C46.3711 549.725 48.3511 550.975 50.4161 551.465C55.7061 552.71 61.0961 553.525 66.4511 554.51L81.6161 554.5C98.3861 553.005 113.651 547.26 127.446 537.74C149.006 522.86 163.531 502.91 169.776 477.305C174.316 458.695 174.501 440.065 169.151 421.54C168.639 419.824 168.048 418.132 167.381 416.47C166.731 414.805 165.966 413.185 165.066 411.11L199.446 391.34L199.961 391.78C199.336 393.825 198.671 395.865 198.106 397.93C194.021 412.85 191.306 428.03 192.281 443.515C193.321 460.015 197.926 475.46 207.586 489.245C215.396 500.395 234.006 500.81 242.306 489.62C245.251 485.645 248.106 481.49 250.251 477.055C255.856 465.48 261.046 453.7 266.401 442L267.336 439.86C266.951 445.4 266.501 450.265 266.296 455.135C265.976 462.74 266.421 470.3 269.021 477.535C271.246 483.725 275.031 488.35 282.121 489.165C286.971 489.72 290.836 487.5 294.401 484.685C299.924 480.321 304.502 474.879 307.856 468.69C317.361 451.235 327.121 433.885 335.736 415.99C345.056 396.635 353.206 376.715 361.861 357.03L363.291 353.54C365.336 361.575 366.761 369.445 369.386 376.895C372.436 385.54 376.211 393.98 380.321 402.185C382.266 406.06 382.041 408.575 379.346 411.825C368.066 425.425 356.981 439.19 345.886 452.94C343.431 455.975 340.986 459.065 338.941 462.38C337.7 464.473 336.885 466.791 336.541 469.2C336.197 471.418 336.725 473.683 338.014 475.52C339.303 477.357 341.253 478.624 343.456 479.055C347.901 480.012 352.46 480.337 356.996 480.02C372.481 478.88 386.541 473.445 398.971 464.235C415.076 452.305 420.246 436.025 416.346 416.73C415.291 411.495 413.426 406.405 411.611 401.36C410.796 399.085 410.741 397.49 412.226 395.37C425.101 376.985 436.101 357.48 446.331 337.525C446.736 336.74 447.151 335.955 447.861 335.115C451.176 352.365 456.166 368.99 465.106 384.075C460.546 388.47 456.031 392.455 451.946 396.845C442.951 406.515 435.151 417.015 431.081 429.82C429.331 435.34 427.986 440.95 428.766 446.845C429.976 456 437.476 461.95 446.481 459.865C465.751 455.405 482.386 446.325 494.541 430.24C502.721 419.41 503.466 407.33 500.041 394.675C499.101 391.235 497.986 387.85 496.786 383.905C501.541 382.43 506.176 380.66 510.971 379.565C535.866 373.885 560.491 374.875 584.481 383.865C598.486 389.115 609.801 397.9 616.511 411.72C624.706 428.615 620.176 444.645 604.251 455.325C602.766 456.32 601.066 457.105 599.836 458.35C599.442 458.807 599.147 459.34 598.971 459.917C598.794 460.494 598.74 461.101 598.811 461.7C598.916 462.315 600.541 463.085 601.476 463.075C606.711 463.035 610.956 460.29 615.031 457.47C625.241 450.405 632.691 440.9 634.296 428.385L634.611 427.445L634.226 419.295C634.071 418.825 634.341 418.36 634.306 418.005C632.136 399.78 622.401 385.645 608.241 374.565C591.841 361.74 572.476 356.46 551.996 355.625C535.386 354.91 518.797 357.463 503.171 363.14C498.686 364.765 494.241 366.69 489.731 368.505C489.126 367.41 488.476 366.36 487.941 365.275C483.311 355.795 477.701 346.735 476.461 335.865C475.581 328.145 474.501 320.435 476.336 312.8C478.101 305.455 480.401 298.235 482.566 290.99C483.681 287.26 482.896 285.17 479.336 283.49C478.096 282.871 476.772 282.437 475.406 282.2C466.656 280.93 458.026 281.655 449.551 284.12C446.551 284.995 444.371 286.675 443.706 289.995C443.326 291.9 442.551 293.725 442.011 295.605C439.796 303.42 438.226 311.385 434.646 318.83C425.676 337.505 415.436 355.475 404.956 373.315C403.821 375.24 402.626 377.13 401.196 379.465C397.516 371.765 393.591 364.855 392.401 356.755C391.056 347.595 389.996 338.45 392.276 329.36C393.971 322.58 396.186 315.925 398.226 309.235C399.191 306.055 398.746 304.385 395.866 302.71C394.411 301.865 392.766 301.115 391.126 300.87C382.154 299.503 372.987 300.253 364.356 303.06C361.641 303.94 360.216 305.695 359.386 308.495C356.946 316.755 354.866 325.215 351.441 333.07C337.571 364.87 323.301 396.505 309.046 428.135C306.071 434.74 302.586 441.115 299.231 447.545C298.381 449.175 297.141 450.61 296.081 452.14C295.231 451.135 294.901 450.445 294.906 449.755C294.931 445.69 294.446 441.505 295.221 437.575C297.601 425.689 300.231 413.855 303.111 402.08C305.461 392.35 308.196 382.71 310.801 373.045C311.676 369.81 311.691 366.785 309.366 364.065C305.461 359.51 297.301 358.51 292.461 362.02L290.321 363.23L290.736 359.78C291.756 352.385 291.961 345.015 289.931 337.73C287.401 328.65 280.921 323.425 271.501 323.715C267.111 323.85 262.501 324.6 258.436 326.2C241.341 332.9 228.196 344.765 217.006 359.04C215.969 360.365 214.683 361.476 213.221 362.31C198.756 370.33 184.246 378.25 169.741 386.2L153.596 395.045C149.266 390.915 145.331 386.63 140.866 382.995C127.231 371.875 113.376 361.03 99.6461 350.035C87.4761 340.29 75.6861 330.14 66.6661 317.235C59.9561 307.635 55.6311 297.13 55.2161 285.26C54.6911 270.135 58.9811 256.315 66.6811 243.45C76.5311 226.99 89.9661 213.78 104.736 201.815C120.361 189.165 137.261 178.425 154.776 168.62C179.281 154.905 204.486 142.765 231.511 134.75C259.221 126.53 287.336 121.825 316.336 125.105C327.736 126.395 338.806 129.005 348.971 134.58C356.756 138.845 363.141 144.43 366.111 153.16C369.041 161.75 368.951 170.455 366.921 179.18C362.796 196.85 353.121 211.415 340.946 224.43C320.976 245.765 296.616 260.29 269.191 269.885C253.422 275.409 237.016 278.909 220.366 280.3C206.721 281.445 193.361 280.235 180.441 275.49C171.886 272.345 164.436 267.535 158.446 260.555C157.376 259.305 156.006 257.95 154.011 259.12C152.056 260.27 151.711 262.13 152.366 264.015C153.461 267.145 154.471 270.405 156.176 273.205C160.461 280.23 166.711 285.325 173.591 289.695C186.806 298.1 201.576 300.925 216.891 301.58C240.131 302.585 262.806 299.115 285.161 292.88C317.076 283.98 344.826 268.26 367.081 243.46C385.611 222.81 398.846 199.505 401.681 171.365C403.066 157.63 401.591 144.175 395.161 131.645C388.186 118.07 377.096 107.975 363.836 101.02C344.526 90.895 323.686 85 302.176 85H280.626C254.576 85 229.391 92.465 204.911 101.37C186.381 108.115 168.211 116.075 150.571 124.885C112.156 144.08 76.3811 167.225 46.9961 199.05C32.3561 214.905 19.9611 232.4 12.8311 253C10.6791 259.15 8.82527 265.401 7.27606 271.73L6.84106 280.78ZM146.471 451.795C144.806 474.09 134.701 492.165 118.186 506.805C108.896 515.035 98.2411 520.895 85.8311 522.955C81.3311 523.7 76.7261 523.88 72.3611 522.015C66.1361 519.355 64.7411 513.83 64.6211 507.945C64.4361 498.565 67.7211 490.085 72.2261 482.015C78.1061 471.495 86.7261 463.475 95.9311 455.985C110.431 444.18 126.161 434.19 142.271 424.76L143.486 424.26C145.976 433.46 147.161 442.545 146.471 451.795ZM272.261 354.9C271.086 362.02 269.616 369.145 267.536 376.045C260.346 399.93 251.111 423.075 241.126 445.91C239.281 450.135 236.596 453.99 234.261 457.995C233.864 458.611 233.388 459.172 232.846 459.665C229.956 462.52 227.216 462.37 225.756 458.635C224.056 454.295 223.011 449.65 222.111 445.055C221.506 441.97 221.651 438.73 221.461 435.57C221.656 413.1 228.511 392.68 240.141 373.67C244.936 365.83 250.156 358.36 258.131 353.4C260.612 351.858 263.296 350.669 266.106 349.87C270.356 348.675 272.966 350.64 272.261 354.9ZM358.081 464.24L388.926 428.225C390.211 441.6 367.476 468.3 358.081 464.24ZM456.596 440.005C454.416 441.255 452.041 442.155 449.806 443.31C447.761 444.37 447.086 443.3 447.026 441.54C446.996 440.322 447.153 439.106 447.491 437.935C451.656 423.245 459.321 410.705 470.726 400.505L471.526 400.095C476.951 415.27 470.681 431.935 456.596 440.005Z" fill="white"/>
</svg>
